<svg width="200" height="160" viewBox="0 0 200 160" fill="none" xmlns="http://www.w3.org/2000/svg">
<path d="M193.274 84.6505C194.276 72.735 191.18 60.2949 187.032 49.2225C180.895 32.7372 168.911 15.8439 148.771 11.9424C137.158 9.70008 125.34 12.1038 115.38 17.7364C105.806 23.1538 98.3461 30.1541 86.5678 31.5085C74.6592 32.8808 62.44 32.3292 50.4713 32.3292C19.6954 32.3292 -5.27906 61.268 0.963298 91.4132C7.20566 121.558 36.644 142.461 61.6184 142.461C84.0629 142.461 102.529 130.411 123.847 127.173C134.418 125.568 145.034 127.469 155.494 125.065C167.653 122.267 179.086 115.598 185.824 105.943C190.413 99.3598 192.648 92.1083 193.274 84.6505Z" fill="#355B5E"/>
<path opacity="0.7" d="M193.274 84.6505C194.276 72.735 191.18 60.2949 187.032 49.2225C180.895 32.7372 168.911 15.8439 148.771 11.9424C137.158 9.70008 125.34 12.1038 115.38 17.7364C105.806 23.1538 98.3461 30.1541 86.5678 31.5085C74.6592 32.8808 62.44 32.3292 50.4713 32.3292C19.6954 32.3292 -5.27906 61.268 0.963298 91.4132C7.20566 121.558 36.644 142.461 61.6184 142.461C84.0629 142.461 102.529 130.411 123.847 127.173C134.418 125.568 145.034 127.469 155.494 125.065C167.653 122.267 179.086 115.598 185.824 105.943C190.413 99.3598 192.648 92.1083 193.274 84.6505Z" fill="white"/>
<path d="M189.672 80.4665C189.672 80.4665 189.672 78.2242 186.165 75.1164C182.658 72.0086 180.434 70.2058 180.434 70.2058C180.434 70.2058 178.69 75.3361 181.937 78.4619C184.32 80.6572 186.904 82.6703 189.662 84.4802L189.672 80.4665Z" fill="#355B5E"/>
<path d="M184.612 94.3954C184.612 94.3954 184.612 92.1532 181.105 89.0454C177.598 85.9376 175.384 84.1348 175.384 84.1348C175.384 84.1348 173.635 89.2651 176.887 92.3908C179.27 94.5861 181.854 96.5993 184.612 98.4091V94.3954Z" fill="#355B5E"/>
<path d="M189.452 84.2649C189.452 84.2649 189.717 82.0495 193.555 79.2736C197.392 76.4976 199.832 74.937 199.832 74.937C199.832 74.937 200.959 80.2019 197.372 83.0092C194.743 84.9674 191.936 86.7254 188.981 88.2651L189.452 84.2649Z" fill="#355B5E"/>
<path d="M183.339 100.714C183.339 100.714 183.84 98.5347 188.004 96.1355C192.167 93.7363 194.752 92.4133 194.752 92.4133C194.752 92.4133 195.253 97.7589 191.36 100.203C188.516 101.904 185.518 103.389 182.398 104.643L183.339 100.714Z" fill="#355B5E"/>
<path d="M184.487 118.653C184.487 118.653 184.487 116.41 187.994 113.298C191.501 110.186 193.72 108.392 193.72 108.392C193.72 108.392 195.468 113.522 192.217 116.643C189.835 118.841 187.251 120.856 184.492 122.666L184.487 118.653Z" fill="#355B5E"/>
<path d="M184.432 123.029C184.432 123.029 184.782 120.823 181.826 117.289C178.871 113.755 176.932 111.701 176.932 111.701C176.932 111.701 174.392 116.558 177.102 120.061C179.111 122.538 181.348 124.86 183.79 127.003L184.432 123.029Z" fill="#355B5E"/>
<path d="M180.99 136.003C180.99 136.003 180.99 133.761 184.497 130.653C188.004 127.545 190.228 125.743 190.228 125.743C190.228 125.743 191.972 130.873 188.725 133.999C186.341 136.195 183.757 138.209 181 140.022L180.99 136.003Z" fill="#355B5E"/>
<path d="M183.319 147.766C183.319 147.766 182.688 145.609 185.178 141.797C187.668 137.985 189.336 135.752 189.336 135.752C189.336 135.752 192.473 140.317 190.223 144.075C188.54 146.74 186.611 149.273 184.457 151.65L183.319 147.766Z" fill="#355B5E"/>
<path d="M189.988 79.897C189.812 82.2189 189.494 84.5304 189.036 86.8211C187.653 93.1982 184.206 97.315 182.828 103.073C181.451 108.831 185.409 116.253 184.331 123.653C183.254 131.052 180.058 135.165 180.975 140.102C181.892 145.04 186.721 158.413 186.721 158.413" stroke="#263238" stroke-linecap="round" stroke-linejoin="round"/>
<path d="M189.421 85.7491L193.179 83.166" stroke="#263238" stroke-linecap="round" stroke-linejoin="round"/>
<path d="M189.597 82.7759L188.019 80.269" stroke="#263238" stroke-linecap="round" stroke-linejoin="round"/>
<path d="M183.039 102.808C183.039 102.808 186.185 100.696 189.421 98.584" stroke="#263238" stroke-linecap="round" stroke-linejoin="round"/>
<path d="M184.612 98.4092C184.612 98.4092 181.987 93.808 179.016 90.7585" stroke="#263238" stroke-linecap="round" stroke-linejoin="round"/>
<path d="M184.612 121.828C186.407 118.859 188.675 116.139 191.345 113.755" stroke="#263238" stroke-linecap="round" stroke-linejoin="round"/>
<path d="M184.001 124.958C183.046 122.945 181.905 121.006 180.589 119.164C178.755 116.738 178.49 116.424 178.49 116.424" stroke="#263238" stroke-linecap="round" stroke-linejoin="round"/>
<path d="M180.99 140.102C181.789 138.335 182.737 136.624 183.825 134.985C184.915 133.462 186.143 132.022 187.498 130.68" stroke="#263238" stroke-linecap="round" stroke-linejoin="round"/>
<path d="M184.457 151.65C184.274 149.96 184.599 148.257 185.399 146.717C186.711 144.448 188.194 141.474 188.805 140.299" stroke="#263238" stroke-linecap="round" stroke-linejoin="round"/>
<path d="M161.206 110.266C161.206 110.266 160.935 108.867 162.744 106.567C164.552 104.266 165.75 102.934 165.75 102.934C165.75 102.934 167.463 105.984 165.81 108.253C164.582 109.862 163.206 111.377 161.697 112.782L161.206 110.266Z" fill="#355B5E"/>
<path d="M166.07 118.509C166.07 118.509 165.8 117.11 167.608 114.809C169.417 112.509 170.614 111.177 170.614 111.177C170.614 111.177 172.328 114.226 170.674 116.5C169.446 118.108 168.07 119.621 166.561 121.025L166.07 118.509Z" fill="#355B5E"/>
<path d="M161.802 112.625C161.802 112.625 161.371 111.28 158.626 109.894C155.88 108.508 154.167 107.782 154.167 107.782C154.167 107.782 154.097 111.195 156.672 112.603C158.557 113.574 160.529 114.404 162.568 115.083L161.802 112.625Z" fill="#355B5E"/>
<path d="M167.633 122.348C167.633 122.348 167.042 121.029 164.156 119.926C161.271 118.823 159.467 118.249 159.467 118.249C159.467 118.249 159.798 121.648 162.543 122.805C164.533 123.594 166.592 124.233 168.7 124.716L167.633 122.348Z" fill="#355B5E"/>
<path d="M169.086 133.707C169.086 133.707 168.821 132.308 166.251 130.689C163.681 129.07 162.062 128.169 162.062 128.169C162.062 128.169 161.591 131.555 164.001 133.196C165.762 134.343 167.627 135.356 169.577 136.223L169.086 133.707Z" fill="#355B5E"/>
<path d="M169.657 136.447C169.657 136.447 169.156 135.102 170.594 132.59C172.032 130.079 172.984 128.613 172.984 128.613C172.984 128.613 175.163 131.411 173.891 133.873C172.932 135.621 171.811 137.293 170.539 138.873L169.657 136.447Z" fill="#355B5E"/>
<path d="M174.036 147.726C174.036 147.726 174.216 146.318 176.676 144.587C179.136 142.856 180.684 141.855 180.684 141.855C180.684 141.855 181.37 145.214 179.071 146.977C177.387 148.21 175.59 149.316 173.7 150.282L174.036 147.726Z" fill="#355B5E"/>
<path d="M173.38 144.246C173.38 144.246 173.109 142.847 170.544 141.228C167.979 139.609 166.366 138.707 166.366 138.707C166.366 138.707 165.895 142.093 168.305 143.739C170.066 144.885 171.931 145.897 173.881 146.766L173.38 144.246Z" fill="#355B5E"/>
<path d="M173.38 151.852C173.38 151.852 173.51 150.435 171.486 148.286C169.462 146.138 168.149 144.901 168.149 144.901C168.149 144.901 166.732 148.067 168.6 150.206C169.97 151.712 171.478 153.113 173.109 154.394L173.38 151.852Z" fill="#355B5E"/>
<path d="M160.94 109.935C161.332 111.374 161.812 112.793 162.378 114.186C164.016 118.052 166.676 120.298 168.24 123.774C169.803 127.249 168.24 132.295 169.783 136.828C171.326 141.362 173.881 143.632 173.881 146.816C173.881 150 172.498 158.857 172.498 158.857" stroke="#263238" stroke-linecap="round" stroke-linejoin="round"/>
<path d="M162.007 113.549L159.337 112.298" stroke="#263238" stroke-linecap="round" stroke-linejoin="round"/>
<path d="M161.536 111.701L162.218 109.979" stroke="#263238" stroke-linecap="round" stroke-linejoin="round"/>
<path d="M168.074 123.63C168.074 123.63 165.845 122.612 163.565 121.599" stroke="#263238" stroke-linecap="round" stroke-linejoin="round"/>
<path d="M166.556 121.025C167.213 119.177 168.078 117.394 169.136 115.702" stroke="#263238" stroke-linecap="round" stroke-linejoin="round"/>
<path d="M169.397 135.707C167.91 134.023 166.159 132.541 164.197 131.308" stroke="#263238" stroke-linecap="round" stroke-linejoin="round"/>
<path d="M170.158 137.609C170.515 136.255 170.996 134.931 171.596 133.649C172.453 131.949 172.598 131.725 172.598 131.725" stroke="#263238" stroke-linecap="round" stroke-linejoin="round"/>
<path d="M173.76 149.233C174.629 148.269 175.592 147.376 176.636 146.564C177.301 146.126 177.924 145.64 178.5 145.111" stroke="#263238" stroke-linecap="round" stroke-linejoin="round"/>
<path d="M173.881 146.816C173.165 145.782 172.363 144.799 171.481 143.874C170.613 143.025 169.668 142.242 168.655 141.533" stroke="#263238" stroke-linecap="round" stroke-linejoin="round"/>
<path d="M173.109 154.394C173.02 153.316 172.61 152.279 171.922 151.39C170.825 150.094 169.532 148.372 169.006 147.694" stroke="#263238" stroke-linecap="round" stroke-linejoin="round"/>
<path d="M18.9088 90.7316L16.7145 85.1214L18.9088 87.5027L17.1854 79.0852L19.8507 85.1214L20.7926 73.3315L22.3607 84.5564L24.0841 82.3141V85.1214L26.1231 81.332L25.0259 87.9243L26.9047 86.8032L23.9288 90.4491L18.9088 90.7316Z" fill="#355B5E"/>
<path d="M25.8075 89.3279H17.6564L19.1243 104.06H24.3396L25.8075 89.3279Z" fill="#263238" stroke="#263238" stroke-linecap="round" stroke-linejoin="round"/>
<path d="M41.0978 103.894H13.3278V156.542H41.0978V103.894Z" fill="white" stroke="#263238" stroke-linecap="round" stroke-linejoin="round"/>
<path d="M42.6158 103.894H27.2103V156.542H42.6158V103.894Z" fill="white" stroke="#263238" stroke-linecap="round" stroke-linejoin="round"/>
<path d="M40.8823 103.894H27.2103V156.542H40.8823V103.894Z" fill="#263238" stroke="#263238" stroke-linecap="round" stroke-linejoin="round"/>
<path d="M39.3443 144.3H27.2103V155.08H39.3443V144.3Z" fill="#355B5E" stroke="#263238" stroke-linecap="round" stroke-linejoin="round"/>
<path d="M39.3443 144.883H27.2103V146.264H39.3443V144.883Z" fill="white" stroke="#263238" stroke-linecap="round" stroke-linejoin="round"/>
<path d="M39.3443 152.82H27.2103V154.202H39.3443V152.82Z" fill="white" stroke="#263238" stroke-linecap="round" stroke-linejoin="round"/>
<path d="M29.5098 144.524V158.157" stroke="#263238" stroke-linecap="round" stroke-linejoin="round"/>
<path d="M33.7432 144.524V158.157" stroke="#263238" stroke-linecap="round" stroke-linejoin="round"/>
<path d="M37.4606 144.524V158.157" stroke="#263238" stroke-linecap="round" stroke-linejoin="round"/>
<path d="M39.3443 105.849H27.2103V121.702H39.3443V105.849Z" fill="#355B5E" stroke="#263238" stroke-linecap="round" stroke-linejoin="round"/>
<path d="M39.3443 106.513H27.2103V108.082H39.3443V106.513Z" fill="white" stroke="#263238" stroke-linecap="round" stroke-linejoin="round"/>
<path d="M39.3443 116.675H27.2103V118.244H39.3443V116.675Z" fill="white" stroke="#263238" stroke-linecap="round" stroke-linejoin="round"/>
<path d="M29.5098 106.1V121.594" stroke="#263238" stroke-linecap="round" stroke-linejoin="round"/>
<path d="M33.7432 106.1V121.594" stroke="#263238" stroke-linecap="round" stroke-linejoin="round"/>
<path d="M37.4606 106.1V121.594" stroke="#263238" stroke-linecap="round" stroke-linejoin="round"/>
<path d="M39.3443 124.953H27.2103V140.806H39.3443V124.953Z" fill="#355B5E" stroke="#263238" stroke-linecap="round" stroke-linejoin="round"/>
<path d="M39.3443 125.617H27.2103V127.187H39.3443V125.617Z" fill="white" stroke="#263238" stroke-linecap="round" stroke-linejoin="round"/>
<path d="M39.3443 135.779H27.2103V137.349H39.3443V135.779Z" fill="white" stroke="#263238" stroke-linecap="round" stroke-linejoin="round"/>
<path d="M29.5098 125.209V140.698" stroke="#263238" stroke-linecap="round" stroke-linejoin="round"/>
<path d="M33.7432 125.209V140.698" stroke="#263238" stroke-linecap="round" stroke-linejoin="round"/>
<path d="M37.4606 125.209V140.698" stroke="#263238" stroke-linecap="round" stroke-linejoin="round"/>
<path d="M41.0928 121.482H27.2103V123.285H41.0928V121.482Z" fill="white" stroke="#263238" stroke-linecap="round" stroke-linejoin="round"/>
<path d="M41.0928 140.708H27.2103V142.51H41.0928V140.708Z" fill="white" stroke="#263238" stroke-linecap="round" stroke-linejoin="round"/>
<path d="M41.0928 103.894V156.538" stroke="#263238" stroke-linecap="round" stroke-linejoin="round"/>
<path d="M25.2513 103.894V156.538H27.2102V105.849H40.8522V103.871L25.2513 103.894Z" fill="white" stroke="#263238" stroke-linecap="round" stroke-linejoin="round"/>
<path d="M27.2103 105.849V103.894" stroke="#263238" stroke-linecap="round" stroke-linejoin="round"/>
<path d="M40.9876 79.7085C39.5297 77.1926 38.9185 75.3898 38.9185 74.9728C38.9185 74.1476 40.9224 73.6543 40.9224 73.6543C44.0486 72.1744 58.7527 74.3135 65.3708 75.3001C69.0756 75.8783 72.8234 76.2081 76.583 76.2867C76.583 76.2867 77.4998 75.632 78.587 74.8068C79.6742 73.9817 84.8344 68.5554 86.8584 68.08C88.8824 67.6046 90.716 68.7392 90.716 68.7392C90.716 68.7392 94.0276 70.533 93.4715 70.8784C92.9154 71.2237 84.8344 77.4572 82.8104 78.6097C80.7864 79.7623 76.563 79.269 72.8857 79.9282C69.7194 80.4932 56.894 81.1928 53.9532 81.4081C51.7446 81.877 49.4266 81.7042 47.3351 80.9148" fill="white"/>
<mask id="mask0_276_4952" style="mask-type:luminance" maskUnits="userSpaceOnUse" x="38" y="67" width="56" height="15">
<path d="M40.9876 79.7085C39.5297 77.1926 38.9185 75.3898 38.9185 74.9728C38.9185 74.1476 40.9224 73.6543 40.9224 73.6543C44.0486 72.1744 58.7527 74.3135 65.3708 75.3001C69.0756 75.8783 72.8234 76.2081 76.583 76.2867C76.583 76.2867 77.4998 75.632 78.587 74.8068C79.6742 73.9817 84.8344 68.5554 86.8584 68.08C88.8824 67.6046 90.716 68.7392 90.716 68.7392C90.716 68.7392 94.0276 70.533 93.4715 70.8784C92.9154 71.2237 84.8344 77.4572 82.8104 78.6097C80.7864 79.7623 76.563 79.269 72.8857 79.9282C69.7194 80.4932 56.894 81.1928 53.9532 81.4081C51.7446 81.877 49.4266 81.7042 47.3351 80.9148" fill="white"/>
</mask>
<g mask="url(#mask0_276_4952)">
<path d="M90.7511 68.7215C90.7511 68.7215 88.9124 67.5689 86.8934 68.0622C84.8744 68.5555 79.7242 73.9863 78.622 74.7891C77.5199 75.5918 76.6181 76.269 76.6181 76.269C72.8585 76.1903 69.1106 75.8605 65.4059 75.2824C58.7878 74.2958 44.0836 72.1432 40.9575 73.6365C40.9575 73.6365 38.9535 74.1298 38.9535 74.955C39.0231 75.4163 39.156 75.8682 39.3493 76.3004L39.6248 76.39C39.6248 76.39 43.2971 76.0447 51.2228 76.2152C59.1485 76.3856 77.4798 77.3587 78.6571 77.7399C79.1581 77.9103 82.7101 77.1928 86.6479 75.9461C89.6539 73.7531 93.1859 71.0131 93.5416 70.8202C94.0626 70.5287 90.7511 68.7215 90.7511 68.7215Z" fill="#355B5E"/>
<path opacity="0.5" d="M90.7511 68.7215C90.7511 68.7215 88.9124 67.5689 86.8934 68.0622C84.8744 68.5555 79.7242 73.9863 78.622 74.7891C77.5199 75.5918 76.6181 76.269 76.6181 76.269C72.8585 76.1903 69.1106 75.8605 65.4059 75.2824C58.7878 74.2958 44.0836 72.1432 40.9575 73.6365C40.9575 73.6365 38.9535 74.1298 38.9535 74.955C39.0231 75.4163 39.156 75.8682 39.3493 76.3004L39.6248 76.39C39.6248 76.39 43.2971 76.0447 51.2228 76.2152C59.1485 76.3856 77.4798 77.3587 78.6571 77.7399C79.1581 77.9103 82.7101 77.1928 86.6479 75.9461C89.6539 73.7531 93.1859 71.0131 93.5416 70.8202C94.0626 70.5287 90.7511 68.7215 90.7511 68.7215Z" fill="white"/>
</g>
<path d="M40.9876 79.7085C39.5297 77.1926 38.9185 75.3898 38.9185 74.9728C38.9185 74.1476 40.9224 73.6543 40.9224 73.6543C44.0486 72.1744 58.7527 74.3135 65.3708 75.3001C69.0756 75.8783 72.8234 76.2081 76.583 76.2867C76.583 76.2867 77.4998 75.632 78.587 74.8068C79.6742 73.9817 84.8344 68.5554 86.8584 68.08C88.8824 67.6046 90.716 68.7392 90.716 68.7392C90.716 68.7392 94.0276 70.533 93.4715 70.8784C92.9154 71.2237 84.8344 77.4572 82.8104 78.6097C80.7864 79.7623 76.563 79.269 72.8857 79.9282C69.7194 80.4932 56.894 81.1928 53.9532 81.4081C51.7446 81.877 49.4266 81.7042 47.3351 80.9148" stroke="#263238" stroke-linecap="round" stroke-linejoin="round"/>
<path d="M113.586 94.3371C113.919 93.7721 114.418 93.2992 115.029 92.9696C115.64 92.64 116.34 92.4662 117.053 92.467H150.469C150.469 92.467 152.884 92.467 152.163 96.5749C151.441 100.683 141.532 125.765 139.137 133.348C136.742 140.932 136.236 156.915 136.236 156.915H96.1569C96.1569 156.915 99.3331 118.693 113.586 94.3371Z" fill="white"/>
<mask id="mask1_276_4952" style="mask-type:luminance" maskUnits="userSpaceOnUse" x="96" y="92" width="57" height="65">
<path d="M113.586 94.3371C113.919 93.7721 114.418 93.2992 115.029 92.9696C115.64 92.64 116.34 92.4662 117.053 92.467H150.469C150.469 92.467 152.884 92.467 152.163 96.5749C151.441 100.683 141.532 125.765 139.137 133.348C136.742 140.932 136.236 156.915 136.236 156.915H96.1569C96.1569 156.915 99.3331 118.693 113.586 94.3371Z" fill="white"/>
</mask>
<g mask="url(#mask1_276_4952)">
<path opacity="0.16" d="M128.636 92.467H117.053C116.34 92.4662 115.64 92.64 115.029 92.9696C114.418 93.2992 113.919 93.7721 113.586 94.3371C99.3331 118.693 96.1218 156.901 96.1218 156.901H114.097L118.531 141.829L137.018 145.241C137.148 143.977 137.298 142.69 137.474 141.42L137.068 137.384C137.068 137.384 133.28 133.819 132.088 132.927C130.896 132.034 131.687 130.424 131.487 123.469C131.286 116.513 124.313 111.513 121.717 107.23C119.122 102.947 123.115 100.27 126.702 95.9874C127.98 94.4403 128.501 93.3012 128.636 92.467Z" fill="black"/>
</g>
<path d="M113.586 94.3371C113.919 93.7721 114.418 93.2992 115.029 92.9696C115.64 92.64 116.34 92.4662 117.053 92.467H150.469C150.469 92.467 152.884 92.467 152.163 96.5749C151.441 100.683 141.532 125.765 139.137 133.348C136.742 140.932 136.236 156.915 136.236 156.915H96.1569C96.1569 156.915 99.3331 118.693 113.586 94.3371Z" stroke="#263238" stroke-linecap="round" stroke-linejoin="round"/>
<path d="M144.673 99.602C141.296 106.656 134.152 134.582 132.99 156.901H136.216C136.216 156.901 136.717 140.9 139.117 133.335C141.517 125.769 151.436 100.683 152.143 96.5615C152.849 92.4402 150.449 92.4536 150.449 92.4536C150.449 92.4536 147.383 93.947 144.673 99.602Z" fill="#263238" stroke="#263238" stroke-linecap="round" stroke-linejoin="round"/>
<path d="M85.9716 85.5027C85.9716 85.5027 80.6411 82.7043 78.6221 77.7713C76.6031 72.8383 94.4283 64.9365 102.169 64.4432C109.909 63.9499 112.093 65.7572 116.697 72.8338C121.302 79.9104 124.418 89.615 122.028 94.3866C119.638 99.1582 115.595 100.311 118.521 104.253C121.447 108.195 129.733 119.388 129.182 124.653C128.631 129.918 122.935 134.519 114.653 135.021C106.372 135.523 95.3502 131.07 86.162 123.81C76.9738 116.549 79.3585 105.872 82.655 102.418C85.9516 98.9653 90.9264 97.6469 91.2921 94.1938C91.6579 90.7406 85.9716 85.5027 85.9716 85.5027Z" fill="#263238" stroke="#263238" stroke-linecap="round" stroke-linejoin="round"/>
<path d="M108.692 77.6951C111.522 82.4128 115.064 88.7316 116.171 92.5479C118.105 99.2299 108.156 103.436 110.916 106.652" stroke="white" stroke-linecap="round" stroke-linejoin="round"/>
<path d="M104.834 71.5151C104.834 71.5151 105.936 73.1968 107.459 75.6723" stroke="white" stroke-linecap="round" stroke-linejoin="round"/>
<path d="M119.683 83.3857C120.01 84.2699 120.222 85.1848 120.315 86.1123" stroke="white" stroke-linecap="round" stroke-linejoin="round"/>
<path d="M106.748 69.0623C106.748 69.0623 115.455 74.8204 118.932 81.7132" stroke="white" stroke-linecap="round" stroke-linejoin="round"/>
<path d="M94.6638 73.3809C88.4465 74.9415 79.5038 77.4753 80.2302 78.9372" stroke="white" stroke-linecap="round" stroke-linejoin="round"/>
<path d="M100.41 72.0085C100.41 72.0085 99.0826 72.3045 97.1036 72.7799" stroke="white" stroke-linecap="round" stroke-linejoin="round"/>
<path d="M92.72 69.1027C96.2813 68.098 100.011 67.6579 103.742 67.8021" stroke="white" stroke-linecap="round" stroke-linejoin="round"/>
<path d="M90.1849 70.031C90.748 69.7684 91.3305 69.5406 91.9284 69.3494" stroke="white" stroke-linecap="round" stroke-linejoin="round"/>
<path d="M40.9876 79.7086C40.1438 78.3255 39.4718 76.8637 38.9836 75.3496C39.4694 76.8645 40.1415 78.3264 40.9876 79.7086ZM38.9285 75.094C38.9285 75.1209 38.9285 75.1523 38.9285 75.1926C38.9385 75.1523 38.9335 75.1209 38.9285 75.094ZM40.9876 79.7041C42.8612 82.8809 45.1924 85.824 47.9213 88.458C54.5394 94.8754 73.6572 111.661 75.4758 112.814C77.2944 113.966 76.7634 117.253 75.4758 120.545C74.1883 123.837 69.4088 128.617 69.5942 133.873C69.7796 139.129 71.5982 147.201 71.4328 148.847C71.2675 150.493 66.6684 156.09 66.6684 156.09H114.092C114.092 156.09 108.181 149.363 108.181 147.062C108.181 144.762 116.297 115.285 116.662 113.145C117.028 111.006 115.56 109.526 112.619 109.36C109.679 109.195 98.4664 107.055 97.9153 105.41C97.3642 103.764 100.856 97.5123 100.856 97.5123L89.8343 98.0056C89.8343 98.0056 89.2832 102.284 88.5467 103.109C87.8103 103.934 86.7081 102.284 84.133 101.136C81.5579 99.9878 76.6181 98.9967 74.7594 97.6782C72.9007 96.3598 55.2758 81.5338 55.2758 81.5338" fill="white"/>
<mask id="mask2_276_4952" style="mask-type:luminance" maskUnits="userSpaceOnUse" x="38" y="75" width="79" height="82">
<path d="M40.9876 79.7086C40.1438 78.3255 39.4718 76.8637 38.9836 75.3496C39.4694 76.8645 40.1415 78.3264 40.9876 79.7086ZM38.9285 75.094C38.9285 75.1209 38.9285 75.1523 38.9285 75.1926C38.9385 75.1523 38.9335 75.1209 38.9285 75.094ZM40.9876 79.7041C42.8612 82.8809 45.1924 85.824 47.9213 88.458C54.5394 94.8754 73.6572 111.661 75.4758 112.814C77.2944 113.966 76.7634 117.253 75.4758 120.545C74.1883 123.837 69.4088 128.617 69.5942 133.873C69.7796 139.129 71.5982 147.201 71.4328 148.847C71.2675 150.493 66.6684 156.09 66.6684 156.09H114.092C114.092 156.09 108.181 149.363 108.181 147.062C108.181 144.762 116.297 115.285 116.662 113.145C117.028 111.006 115.56 109.526 112.619 109.36C109.679 109.195 98.4664 107.055 97.9153 105.41C97.3642 103.764 100.856 97.5123 100.856 97.5123L89.8343 98.0056C89.8343 98.0056 89.2832 102.284 88.5467 103.109C87.8103 103.934 86.7081 102.284 84.133 101.136C81.5579 99.9878 76.6181 98.9967 74.7594 97.6782C72.9007 96.3598 55.2758 81.5338 55.2758 81.5338" fill="white"/>
</mask>
<g mask="url(#mask2_276_4952)">
<path d="M77.575 98.9473C78.4918 100.382 79.4086 101.678 79.4086 101.678C79.4086 101.678 82.4998 103.235 83.2713 103.235C84.0428 103.235 88.682 105.477 88.682 105.477C88.682 105.477 92.5497 104.611 91.187 101.669C90.7571 100.916 90.2143 100.219 89.5738 99.5975C89.3433 100.903 88.9726 102.611 88.5367 103.1C87.8003 103.921 86.6981 102.275 84.123 101.127C82.4547 100.382 79.7543 99.7007 77.575 98.9473Z" fill="#355B5E"/>
<path d="M68.1363 92.2876C62.46 87.5833 55.2758 81.5516 55.2758 81.5516L51.0975 81.0134L50.5966 81.2646C50.5966 81.2646 62.3899 90.6059 64.8999 91.6463C65.9153 92.0641 67.0188 92.2828 68.1363 92.2876Z" fill="#355B5E"/>
<path d="M74.083 97.1578L73.6321 96.7991C73.8626 97.1399 73.9929 97.3552 73.9929 97.3552L74.083 97.1578Z" fill="#355B5E"/>
<g opacity="0.5">
<path d="M77.575 98.9473C78.4918 100.382 79.4086 101.678 79.4086 101.678C79.4086 101.678 82.4998 103.235 83.2713 103.235C84.0428 103.235 88.682 105.477 88.682 105.477C88.682 105.477 92.5497 104.611 91.187 101.669C90.7571 100.916 90.2143 100.219 89.5738 99.5975C89.3433 100.903 88.9726 102.611 88.5367 103.1C87.8003 103.921 86.6981 102.275 84.123 101.127C82.4547 100.382 79.7543 99.7007 77.575 98.9473Z" fill="white"/>
<path d="M68.1363 92.2876C62.46 87.5833 55.2758 81.5516 55.2758 81.5516L51.0975 81.0134L50.5966 81.2646C50.5966 81.2646 62.3899 90.6059 64.8999 91.6463C65.9153 92.0641 67.0188 92.2828 68.1363 92.2876Z" fill="white"/>
<path d="M74.083 97.1578L73.6321 96.7991C73.8626 97.1399 73.9929 97.3552 73.9929 97.3552L74.083 97.1578Z" fill="white"/>
</g>
</g>
<path d="M38.9185 74.9729C38.9162 75.0043 38.9162 75.0357 38.9185 75.0671M38.9836 75.3496C39.4718 76.8637 40.1438 78.3255 40.9876 79.7086C40.1415 78.3264 39.4694 76.8645 38.9836 75.3496ZM38.9836 75.3496C38.9698 75.307 38.9597 75.2635 38.9535 75.2196M40.9876 79.7041C42.8612 82.8809 45.1924 85.824 47.9213 88.458C54.5394 94.8754 73.6572 111.661 75.4758 112.814C77.2944 113.966 76.7634 117.253 75.4758 120.545C74.1883 123.837 69.4088 128.617 69.5942 133.873C69.7796 139.129 71.5982 147.201 71.4328 148.847C71.2675 150.493 66.6684 156.09 66.6684 156.09H114.092C114.092 156.09 108.181 149.363 108.181 147.062C108.181 144.762 116.297 115.285 116.662 113.145C117.028 111.006 115.56 109.526 112.619 109.36C109.679 109.195 98.4664 107.055 97.9153 105.41C97.3642 103.764 100.856 97.5123 100.856 97.5123L89.8343 98.0056C89.8343 98.0056 89.2832 102.284 88.5467 103.109C87.8103 103.934 86.7081 102.284 84.133 101.136C81.5579 99.9878 76.6181 98.9967 74.7594 97.6782C72.9007 96.3598 55.2758 81.5338 55.2758 81.5338M38.9285 75.094C38.9285 75.1209 38.9285 75.1523 38.9285 75.1926C38.9385 75.1523 38.9335 75.1209 38.9285 75.094Z" stroke="#263238" stroke-linecap="round" stroke-linejoin="round"/>
<path d="M55.2759 81.5517C55.2759 81.5517 49.4042 81.6503 46.1277 79.2332" stroke="#263238" stroke-linecap="round" stroke-linejoin="round"/>
<path d="M97.9203 105.41C97.3692 103.768 100.861 97.5122 100.861 97.5122L89.8393 98.0055C89.8393 98.0055 89.2882 102.284 88.5518 103.109C87.8153 103.934 86.7131 102.284 84.138 101.136C83.9426 101.046 83.7272 100.961 83.5068 100.876L82.8405 110.253C82.8405 110.253 83.8074 119.334 95.4003 117.608C100.095 116.908 105.105 113.159 109.428 108.943C104.979 108.212 98.3411 106.67 97.9203 105.41Z" fill="white"/>
<mask id="mask3_276_4952" style="mask-type:luminance" maskUnits="userSpaceOnUse" x="82" y="97" width="28" height="21">
<path d="M97.9203 105.41C97.3692 103.768 100.861 97.5122 100.861 97.5122L89.8393 98.0055C89.8393 98.0055 89.2882 102.284 88.5518 103.109C87.8153 103.934 86.7131 102.284 84.138 101.136C83.9426 101.046 83.7272 100.961 83.5068 100.876L82.8405 110.253C82.8405 110.253 83.8074 119.334 95.4003 117.608C100.095 116.908 105.105 113.159 109.428 108.943C104.979 108.212 98.3411 106.67 97.9203 105.41Z" fill="white"/>
</mask>
<g mask="url(#mask3_276_4952)">
<path d="M97.6097 98.7544C97.6097 98.7544 96.9434 102.1 96.4073 105.8C95.8712 109.499 95.4755 112.253 95.4755 112.253L97.9203 105.409L100.676 98.158C100.676 98.158 98.0105 98.158 97.6097 98.7544Z" fill="#355B5E"/>
<path opacity="0.5" d="M97.6097 98.7544C97.6097 98.7544 96.9434 102.1 96.4073 105.8C95.8712 109.499 95.4755 112.253 95.4755 112.253L97.9203 105.409L100.676 98.158C100.676 98.158 98.0105 98.158 97.6097 98.7544Z" fill="white"/>
</g>
<path d="M97.9203 105.41C97.3692 103.768 100.861 97.5122 100.861 97.5122L89.8393 98.0055C89.8393 98.0055 89.2882 102.284 88.5518 103.109C87.8153 103.934 86.7131 102.284 84.138 101.136C83.9426 101.046 83.7272 100.961 83.5068 100.876L82.8405 110.253C82.8405 110.253 83.8074 119.334 95.4003 117.608C100.095 116.908 105.105 113.159 109.428 108.943C104.979 108.212 98.3411 106.67 97.9203 105.41Z" stroke="#263238" stroke-linecap="round" stroke-linejoin="round"/>
<path d="M88.5467 103.109C87.8102 103.93 86.708 102.284 84.1329 101.136C82.5097 100.405 79.9246 99.7412 77.7854 99.0236C77.1792 97.7366 76.3776 96.0593 75.8616 95.0458C74.9448 93.252 73.4718 94.3866 73.4718 94.3866C72.7034 93.6043 72.0824 92.7152 71.6332 91.7542C70.7164 89.9603 69.2435 90.1083 67.2245 89.781C65.2055 89.4536 60.9721 85.996 60.9721 85.996C60.9721 85.996 58.9932 84.6506 58.1765 83.9824C57.2247 85.6596 54.9451 88.6105 50.0154 90.4536C57.8759 97.8038 73.8225 111.769 75.4958 112.818C77.3345 113.966 76.7834 117.258 75.4958 120.55C74.2083 123.841 69.4288 128.622 69.6142 133.878C69.7996 139.134 71.6182 147.206 71.4528 148.852C71.2875 150.318 67.6202 154.915 66.8237 155.901L68.6924 156.09H78.4216C78.3665 151.677 78.3715 133.667 81.7432 126.492C85.6059 118.244 88.5467 103.109 88.5467 103.109Z" fill="#355B5E"/>
<mask id="mask4_276_4952" style="mask-type:luminance" maskUnits="userSpaceOnUse" x="50" y="83" width="39" height="74">
<path d="M88.5467 103.109C87.8102 103.93 86.708 102.284 84.1329 101.136C82.5097 100.405 79.9246 99.7412 77.7854 99.0236C77.1792 97.7366 76.3776 96.0593 75.8616 95.0458C74.9448 93.252 73.4718 94.3866 73.4718 94.3866C72.7034 93.6043 72.0824 92.7152 71.6332 91.7542C70.7164 89.9603 69.2435 90.1083 67.2245 89.781C65.2055 89.4536 60.9721 85.996 60.9721 85.996C60.9721 85.996 58.9932 84.6506 58.1765 83.9824C57.2247 85.6596 54.9451 88.6105 50.0154 90.4536C57.8759 97.8038 73.8225 111.769 75.4958 112.818C77.3345 113.966 76.7834 117.258 75.4958 120.55C74.2083 123.841 69.4288 128.622 69.6142 133.878C69.7996 139.134 71.6182 147.206 71.4528 148.852C71.2875 150.318 67.6202 154.915 66.8237 155.901L68.6924 156.09H78.4216C78.3665 151.677 78.3715 133.667 81.7432 126.492C85.6059 118.244 88.5467 103.109 88.5467 103.109Z" fill="white"/>
</mask>
<g mask="url(#mask4_276_4952)">
<path opacity="0.16" d="M84.133 101.136C82.5097 100.405 79.9246 99.7412 77.7854 99.0236C77.1792 97.7366 76.3776 96.0593 75.8616 95.0458C74.9448 93.252 73.4719 94.3866 73.4719 94.3866C72.7034 93.6043 72.0824 92.7152 71.6332 91.7542C70.7164 89.9603 69.2435 90.1083 67.2245 89.781C65.2055 89.4536 60.9721 85.996 60.9721 85.996C60.9721 85.996 58.9932 84.6506 58.1766 83.9824C57.7691 84.6946 57.2841 85.3691 56.7287 85.996C60.0152 88.4849 63.6424 91.1218 64.9099 91.6465C67.4149 92.6825 68.001 91.8169 69.9198 92.8574C71.8386 93.8978 73.9779 97.3419 73.9779 97.3419C73.9779 97.3419 75.1402 94.5705 76.1071 96.4764C77.074 98.3823 79.3936 101.665 79.3936 101.665C79.3936 101.665 82.4847 103.221 83.2562 103.221C83.8624 103.221 86.8333 104.602 88.0958 105.199C88.3764 103.885 88.5317 103.096 88.5317 103.096C87.8102 103.93 86.7081 102.284 84.133 101.136Z" fill="black"/>
</g>
<path d="M88.5467 103.109C87.8102 103.93 86.708 102.284 84.1329 101.136C82.5097 100.405 79.9246 99.7412 77.7854 99.0236C77.1792 97.7366 76.3776 96.0593 75.8616 95.0458C74.9448 93.252 73.4718 94.3866 73.4718 94.3866C72.7034 93.6043 72.0824 92.7152 71.6332 91.7542C70.7164 89.9603 69.2435 90.1083 67.2245 89.781C65.2055 89.4536 60.9721 85.996 60.9721 85.996C60.9721 85.996 58.9932 84.6506 58.1765 83.9824C57.2247 85.6596 54.9451 88.6105 50.0154 90.4536C57.8759 97.8038 73.8225 111.769 75.4958 112.818C77.3345 113.966 76.7834 117.258 75.4958 120.55C74.2083 123.841 69.4288 128.622 69.6142 133.878C69.7996 139.134 71.6182 147.206 71.4528 148.852C71.2875 150.318 67.6202 154.915 66.8237 155.901L68.6924 156.09H78.4216C78.3665 151.677 78.3715 133.667 81.7432 126.492C85.6059 118.244 88.5467 103.109 88.5467 103.109Z" stroke="#263238" stroke-linecap="round" stroke-linejoin="round"/>
<path d="M88.6769 102.535C88.6769 102.535 86.3924 101.907 84.9846 103.01C83.5768 104.114 81.4777 109.773 80.2402 115.913C79.4775 119.486 80.0039 123.185 81.7432 126.474C81.7432 126.474 84.6339 119.689 85.5107 116.383C86.3874 113.078 88.6769 102.535 88.6769 102.535Z" fill="#355B5E"/>
<mask id="mask5_276_4952" style="mask-type:luminance" maskUnits="userSpaceOnUse" x="79" y="102" width="10" height="25">
<path d="M88.6769 102.535C88.6769 102.535 86.3924 101.907 84.9846 103.01C83.5768 104.114 81.4777 109.773 80.2402 115.913C79.4775 119.486 80.0039 123.185 81.7432 126.474C81.7432 126.474 84.6339 119.689 85.5107 116.383C86.3874 113.078 88.6769 102.535 88.6769 102.535Z" fill="white"/>
</mask>
<g mask="url(#mask5_276_4952)">
<path opacity="0.16" d="M84.2933 103.535C84.2933 103.535 85.9465 103.176 86.6279 103.382C87.2016 103.603 87.7379 103.894 88.2211 104.248L88.677 102.535C87.9931 102.222 87.2174 102.108 86.4576 102.207C85.3203 102.414 84.2933 103.535 84.2933 103.535Z" fill="black"/>
</g>
<path d="M88.6769 102.535C88.6769 102.535 86.3924 101.907 84.9846 103.01C83.5768 104.114 81.4777 109.773 80.2402 115.913C79.4775 119.486 80.0039 123.185 81.7432 126.474C81.7432 126.474 84.6339 119.689 85.5107 116.383C86.3874 113.078 88.6769 102.535 88.6769 102.535Z" stroke="#263238" stroke-linecap="round" stroke-linejoin="round"/>
<path d="M73.2915 103.073L76.2324 113.769L69.6143 100.275" stroke="#263238" stroke-linecap="round" stroke-linejoin="round"/>
<path d="M92.6649 156.09H114.097C114.097 156.09 108.186 149.363 108.186 147.062C108.186 144.762 116.302 115.285 116.667 113.146C117.033 111.006 115.565 109.526 112.624 109.361C109.684 109.195 98.4714 107.056 97.9203 105.41C97.9203 105.41 93.6919 118.738 92.224 127.788C90.9615 135.55 92.2691 151.659 92.6649 156.09Z" fill="#355B5E"/>
<mask id="mask6_276_4952" style="mask-type:luminance" maskUnits="userSpaceOnUse" x="91" y="105" width="26" height="52">
<path d="M92.6649 156.09H114.097C114.097 156.09 108.186 149.363 108.186 147.062C108.186 144.762 116.302 115.285 116.667 113.146C117.033 111.006 115.565 109.526 112.624 109.361C109.684 109.195 98.4714 107.056 97.9203 105.41C97.9203 105.41 93.6919 118.738 92.224 127.788C90.9615 135.55 92.2691 151.659 92.6649 156.09Z" fill="white"/>
</mask>
<g mask="url(#mask6_276_4952)">
<path opacity="0.16" d="M112.624 109.36C110.215 109.226 102.254 107.764 99.1528 106.338L100.28 108.67C102.322 109.64 104.519 110.323 106.793 110.697C110.525 111.293 113.997 111.177 116.267 114.163L116.377 114.311C116.517 113.737 116.612 113.334 116.642 113.145C117.038 111.006 115.565 109.526 112.624 109.36Z" fill="black"/>
</g>
<path d="M92.6649 156.09H114.097C114.097 156.09 108.186 149.363 108.186 147.062C108.186 144.762 116.302 115.285 116.667 113.146C117.033 111.006 115.565 109.526 112.624 109.361C109.684 109.195 98.4714 107.056 97.9203 105.41C97.9203 105.41 93.6919 118.738 92.224 127.788C90.9615 135.55 92.2691 151.659 92.6649 156.09Z" stroke="#263238" stroke-linecap="round" stroke-linejoin="round"/>
<path d="M97.9203 105.41C97.9203 105.41 92.249 121.554 92.224 127.788C92.224 127.788 100.28 119.056 101.332 112.921C102.384 106.786 97.9203 105.41 97.9203 105.41Z" fill="#355B5E"/>
<mask id="mask7_276_4952" style="mask-type:luminance" maskUnits="userSpaceOnUse" x="92" y="105" width="10" height="23">
<path d="M97.9203 105.41C97.9203 105.41 92.249 121.554 92.224 127.788C92.224 127.788 100.28 119.056 101.332 112.921C102.384 106.786 97.9203 105.41 97.9203 105.41Z" fill="white"/>
</mask>
<g mask="url(#mask7_276_4952)">
<path opacity="0.16" d="M96.9433 107.473C97.7955 107.447 98.6417 107.608 99.409 107.94C100.176 108.273 100.841 108.768 101.347 109.383C101.347 109.383 100.235 106.455 97.9202 105.41L96.9433 107.473Z" fill="black"/>
</g>
<path d="M97.9203 105.41C97.9203 105.41 92.249 121.554 92.224 127.788C92.224 127.788 100.28 119.056 101.332 112.921C102.384 106.786 97.9203 105.41 97.9203 105.41Z" stroke="#263238" stroke-linecap="round" stroke-linejoin="round"/>
<path d="M158.465 153.053C158.465 153.053 162.618 153.206 165.339 153.556C167.153 153.776 168.979 153.906 170.81 153.946C170.81 153.946 169.307 151.228 167.703 150.461C166.1 149.695 163.194 148.322 160.76 148.627C158.325 148.932 154.843 151.13 155.134 151.829C155.424 152.529 156.722 152.843 158.465 153.053Z" fill="white"/>
<mask id="mask8_276_4952" style="mask-type:luminance" maskUnits="userSpaceOnUse" x="155" y="148" width="16" height="6">
<path d="M158.465 153.053C158.465 153.053 162.618 153.206 165.339 153.556C167.153 153.776 168.979 153.906 170.81 153.946C170.81 153.946 169.307 151.228 167.703 150.461C166.1 149.695 163.194 148.322 160.76 148.627C158.325 148.932 154.843 151.13 155.134 151.829C155.424 152.529 156.722 152.843 158.465 153.053Z" fill="white"/>
</mask>
<g mask="url(#mask8_276_4952)">
<path d="M158.465 153.053C158.465 153.053 162.618 153.206 165.339 153.556C167.153 153.776 168.979 153.906 170.81 153.946C170.81 153.946 169.307 151.228 167.703 150.461C166.1 149.695 163.194 148.322 160.76 148.627C158.325 148.932 154.843 151.13 155.134 151.829C155.424 152.529 156.722 152.843 158.465 153.053Z" fill="#355B5E"/>
<path opacity="0.5" d="M158.465 153.053C158.465 153.053 162.618 153.206 165.339 153.556C167.153 153.776 168.979 153.906 170.81 153.946C170.81 153.946 169.307 151.228 167.703 150.461C166.1 149.695 163.194 148.322 160.76 148.627C158.325 148.932 154.843 151.13 155.134 151.829C155.424 152.529 156.722 152.843 158.465 153.053Z" fill="white"/>
</g>
<path d="M158.465 153.053C158.465 153.053 162.618 153.206 165.339 153.556C167.153 153.776 168.979 153.906 170.81 153.946C170.81 153.946 169.307 151.228 167.703 150.461C166.1 149.695 163.194 148.322 160.76 148.627C158.325 148.932 154.843 151.13 155.134 151.829C155.424 152.529 156.722 152.843 158.465 153.053Z" stroke="#263238" stroke-linecap="round" stroke-linejoin="round"/>
<path d="M165.364 151.941C165.364 151.941 168.655 150.412 169.477 150.435C170.299 150.457 175.759 153.762 175.489 154.291C175.305 154.537 175.04 154.724 174.731 154.827C174.421 154.93 174.084 154.944 173.766 154.865C173.159 154.61 169.482 153.211 169.482 153.211L167.077 153.717L165.364 151.941Z" fill="white"/>
<mask id="mask9_276_4952" style="mask-type:luminance" maskUnits="userSpaceOnUse" x="165" y="150" width="11" height="5">
<path d="M165.364 151.941C165.364 151.941 168.655 150.412 169.477 150.435C170.299 150.457 175.759 153.762 175.489 154.291C175.305 154.537 175.04 154.724 174.731 154.827C174.421 154.93 174.084 154.944 173.766 154.865C173.159 154.61 169.482 153.211 169.482 153.211L167.077 153.717L165.364 151.941Z" fill="white"/>
</mask>
<g mask="url(#mask9_276_4952)">
<path d="M165.364 151.941C165.364 151.941 168.655 150.412 169.477 150.435C170.299 150.457 175.759 153.762 175.489 154.291C175.218 154.82 173.926 155.251 173.766 154.865C173.605 154.48 169.482 153.211 169.482 153.211L167.077 153.717L165.364 151.941Z" fill="#355B5E"/>
<path opacity="0.5" d="M165.364 151.941C165.364 151.941 168.655 150.412 169.477 150.435C170.299 150.457 175.759 153.762 175.489 154.291C175.218 154.82 173.926 155.251 173.766 154.865C173.605 154.48 169.482 153.211 169.482 153.211L167.077 153.717L165.364 151.941Z" fill="white"/>
</g>
<path d="M165.364 151.941C165.364 151.941 168.655 150.412 169.477 150.435C170.299 150.457 175.759 153.762 175.489 154.291C175.305 154.537 175.04 154.724 174.731 154.827C174.421 154.93 174.084 154.944 173.766 154.865C173.159 154.61 169.482 153.211 169.482 153.211L167.077 153.717L165.364 151.941Z" stroke="#263238" stroke-linecap="round" stroke-linejoin="round"/>
<path d="M163.014 149.425C163.014 149.425 167.403 149.3 168.275 149.695C169.146 150.089 173.084 156.134 172.493 156.574C171.902 157.013 170.269 156.883 170.319 156.394C170.369 155.906 166.691 152.668 166.691 152.668L163.831 152.107L163.014 149.425Z" fill="white"/>
<mask id="mask10_276_4952" style="mask-type:luminance" maskUnits="userSpaceOnUse" x="163" y="149" width="10" height="8">
<path d="M163.014 149.425C163.014 149.425 167.403 149.3 168.275 149.695C169.146 150.089 173.084 156.134 172.493 156.574C171.902 157.013 170.269 156.883 170.319 156.394C170.369 155.906 166.691 152.668 166.691 152.668L163.831 152.107L163.014 149.425Z" fill="white"/>
</mask>
<g mask="url(#mask10_276_4952)">
<path d="M163.014 149.425C163.014 149.425 167.403 149.3 168.275 149.695C169.146 150.089 173.084 156.134 172.493 156.574C171.902 157.013 170.269 156.883 170.319 156.394C170.369 155.906 166.691 152.668 166.691 152.668L163.831 152.107L163.014 149.425Z" fill="#355B5E"/>
<path opacity="0.5" d="M163.014 149.425C163.014 149.425 167.403 149.3 168.275 149.695C169.146 150.089 173.084 156.134 172.493 156.574C171.902 157.013 170.269 156.883 170.319 156.394C170.369 155.906 166.691 152.668 166.691 152.668L163.831 152.107L163.014 149.425Z" fill="white"/>
</g>
<path d="M163.014 149.425C163.014 149.425 167.403 149.3 168.275 149.695C169.146 150.089 173.084 156.134 172.493 156.574C171.902 157.013 170.269 156.883 170.319 156.394C170.369 155.906 166.691 152.668 166.691 152.668L163.831 152.107L163.014 149.425Z" stroke="#263238" stroke-linecap="round" stroke-linejoin="round"/>
<path d="M160.414 148.614C160.414 148.614 164.858 148.484 165.74 148.887C166.621 149.291 170.609 155.403 170.008 155.852C169.407 156.3 167.764 156.161 167.814 155.668C167.864 155.175 164.141 151.896 164.141 151.896L161.246 151.327L160.414 148.614Z" fill="white"/>
<mask id="mask11_276_4952" style="mask-type:luminance" maskUnits="userSpaceOnUse" x="160" y="148" width="11" height="9">
<path d="M160.414 148.614C160.414 148.614 164.858 148.484 165.74 148.887C166.621 149.291 170.609 155.403 170.008 155.852C169.407 156.3 167.764 156.161 167.814 155.668C167.864 155.175 164.141 151.896 164.141 151.896L161.246 151.327L160.414 148.614Z" fill="white"/>
</mask>
<g mask="url(#mask11_276_4952)">
<path d="M160.414 148.614C160.414 148.614 164.858 148.484 165.74 148.887C166.621 149.291 170.609 155.403 170.008 155.852C169.407 156.3 167.764 156.161 167.814 155.668C167.864 155.175 164.141 151.896 164.141 151.896L161.246 151.327L160.414 148.614Z" fill="#355B5E"/>
<path opacity="0.5" d="M160.414 148.614C160.414 148.614 164.858 148.484 165.74 148.887C166.621 149.291 170.609 155.403 170.008 155.852C169.407 156.3 167.764 156.161 167.814 155.668C167.864 155.175 164.141 151.896 164.141 151.896L161.246 151.327L160.414 148.614Z" fill="white"/>
</g>
<path d="M160.414 148.614C160.414 148.614 164.858 148.484 165.74 148.887C166.621 149.291 170.609 155.403 170.008 155.852C169.407 156.3 167.764 156.161 167.814 155.668C167.864 155.175 164.141 151.896 164.141 151.896L161.246 151.327L160.414 148.614Z" stroke="#263238" stroke-linecap="round" stroke-linejoin="round"/>
<path d="M109.889 125.823C113.105 130.259 119.563 141.497 121.447 142.761C124.388 144.735 144.047 149.524 145.94 150.834C147.834 152.143 147.704 153.457 149.497 153.937C151.291 154.417 158.014 155.794 160.579 156.009C163.144 156.224 161.997 154.802 161.997 154.802L157.623 152.112L161.436 151.269C161.436 151.269 165.259 155.385 165.975 155.61C166.691 155.834 167.954 155.61 167.874 155.103C167.733 154.291 163.655 147.65 162.208 147.367C160.76 147.085 151.972 148.174 151.972 148.174C151.972 148.174 133.541 137.048 133.21 136.653C133.21 136.653 132.108 133.855 131.206 132.703C130.304 131.55 129.733 131.882 129.733 131.882C129.733 131.882 130.104 130.398 129.553 129.904L126.612 127.272L126.507 127.397C126.006 126.5 125.505 125.478 124.954 124.312C123.416 121.07 117.97 111.97 117.053 110.656C116.367 109.674 110.615 108.97 107.7 108.674" fill="#355B5E"/>
<mask id="mask12_276_4952" style="mask-type:luminance" maskUnits="userSpaceOnUse" x="107" y="108" width="61" height="49">
<path d="M109.889 125.823C113.105 130.259 119.563 141.497 121.447 142.761C124.388 144.735 144.047 149.524 145.94 150.834C147.834 152.143 147.704 153.457 149.497 153.937C151.291 154.417 158.014 155.794 160.579 156.009C163.144 156.224 161.997 154.802 161.997 154.802L157.623 152.112L161.436 151.269C161.436 151.269 165.259 155.385 165.975 155.61C166.691 155.834 167.954 155.61 167.874 155.103C167.733 154.291 163.655 147.65 162.208 147.367C160.76 147.085 151.972 148.174 151.972 148.174C151.972 148.174 133.541 137.048 133.21 136.653C133.21 136.653 132.108 133.855 131.206 132.703C130.304 131.55 129.733 131.882 129.733 131.882C129.733 131.882 130.104 130.398 129.553 129.904L126.612 127.272L126.507 127.397C126.006 126.5 125.505 125.478 124.954 124.312C123.416 121.07 117.97 111.97 117.053 110.656C116.367 109.674 110.615 108.97 107.7 108.674" fill="white"/>
</mask>
<g mask="url(#mask12_276_4952)">
<path opacity="0.16" d="M122.694 126.106C125.099 128.016 124.298 128.016 123.761 129.693C123.225 131.371 124.162 129.097 126.432 129.218C128.701 129.339 128.035 131.963 127.764 132.442C127.494 132.922 130.57 133.519 130.034 134.591C129.498 135.662 126.432 137.218 124.698 138.775C122.965 140.331 129.232 136.263 131.367 136.147C132.018 136.106 132.554 136.183 133.005 136.174C132.532 134.974 131.924 133.82 131.191 132.729C130.269 131.577 129.718 131.909 129.718 131.909C129.718 131.909 130.089 130.424 129.538 129.931L126.597 127.299L126.492 127.424C125.991 126.527 125.49 125.505 124.939 124.339C123.401 121.096 117.955 111.997 117.038 110.683C116.352 109.701 110.6 108.997 107.685 108.701L107.95 110.778L108.015 110.822C108.015 110.822 111.617 111.419 112.82 111.54C114.022 111.661 115.49 112.612 115.355 113.334C115.22 114.056 111.753 117.276 112.82 117.518C113.887 117.76 115.089 115.128 116.292 115.486C117.494 115.845 120.275 124.195 122.694 126.106Z" fill="black"/>
</g>
<path d="M109.889 125.823C113.105 130.259 119.563 141.497 121.447 142.761C124.388 144.735 144.047 149.524 145.94 150.834C147.834 152.143 147.704 153.457 149.497 153.937C151.291 154.417 158.014 155.794 160.579 156.009C163.144 156.224 161.997 154.802 161.997 154.802L157.623 152.112L161.436 151.269C161.436 151.269 165.259 155.385 165.975 155.61C166.691 155.834 167.954 155.61 167.874 155.103C167.733 154.291 163.655 147.65 162.208 147.367C160.76 147.085 151.972 148.174 151.972 148.174C151.972 148.174 133.541 137.048 133.21 136.653C133.21 136.653 132.108 133.855 131.206 132.703C130.304 131.55 129.733 131.882 129.733 131.882C129.733 131.882 130.104 130.398 129.553 129.904L126.612 127.272L126.507 127.397C126.006 126.5 125.505 125.478 124.954 124.312C123.416 121.07 117.97 111.97 117.053 110.656C116.367 109.674 110.615 108.97 107.7 108.674" stroke="#263238" stroke-linecap="round" stroke-linejoin="round"/>
<path d="M109.939 119.738C109.804 120.141 109.689 120.545 109.598 120.958" stroke="#263238" stroke-linecap="round" stroke-linejoin="round"/>
<path d="M114.809 112.316C113.234 113.922 111.907 115.709 110.861 117.63" stroke="#263238" stroke-linecap="round" stroke-linejoin="round"/>
<path d="M122.168 137.779C123.521 135.985 125.675 133.712 128.05 133.061" stroke="#263238" stroke-linecap="round" stroke-linejoin="round"/>
<path d="M120.67 139.986C120.67 139.986 120.911 139.564 121.342 138.927" stroke="#263238" stroke-linecap="round" stroke-linejoin="round"/>
<path d="M120.67 137.151C120.67 137.151 123.13 131.644 125.59 130.227C128.05 128.81 126.642 131.644 126.642 131.644" stroke="#263238" stroke-linecap="round" stroke-linejoin="round"/>
<path d="M145.94 150.838C147.839 152.152 147.704 153.462 149.497 153.941C151.291 154.421 158.014 155.798 160.579 156.013C163.144 156.228 161.997 154.807 161.997 154.807L157.623 152.116L161.436 151.273C161.436 151.273 165.259 155.39 165.975 155.614C166.691 155.838 168.054 155.919 167.874 155.107C167.523 153.538 163.655 147.654 162.208 147.371C160.76 147.089 151.972 148.179 151.972 148.179C151.972 148.179 135.184 137.864 133.345 136.748C126.216 137.362 122.825 140.703 121.397 142.708L121.447 142.743C124.388 144.735 144.047 149.524 145.94 150.838Z" fill="white"/>
<mask id="mask13_276_4952" style="mask-type:luminance" maskUnits="userSpaceOnUse" x="121" y="136" width="47" height="21">
<path d="M145.94 150.838C147.839 152.152 147.704 153.462 149.497 153.941C151.291 154.421 158.014 155.798 160.579 156.013C163.144 156.228 161.997 154.807 161.997 154.807L157.623 152.116L161.436 151.273C161.436 151.273 165.259 155.39 165.975 155.614C166.691 155.838 168.054 155.919 167.874 155.107C167.523 153.538 163.655 147.654 162.208 147.371C160.76 147.089 151.972 148.179 151.972 148.179C151.972 148.179 135.184 137.864 133.345 136.748C126.216 137.362 122.825 140.703 121.397 142.708L121.447 142.743C124.388 144.735 144.047 149.524 145.94 150.838Z" fill="white"/>
</mask>
<g mask="url(#mask13_276_4952)">
<path d="M167.869 155.125C166.957 153.13 163.65 147.672 162.203 147.39C160.755 147.107 151.967 148.197 151.967 148.197C151.967 148.197 135.179 137.882 133.34 136.766C131.469 136.911 129.633 137.309 127.895 137.945C130.545 139.29 148.21 148.26 150.439 148.659C152.804 149.107 160.695 147.946 162.082 148.78C162.964 149.309 165.589 153.036 167.363 155.681C167.869 155.614 168.054 155.529 167.869 155.125Z" fill="#355B5E"/>
<path opacity="0.5" d="M167.869 155.125C166.446 152.269 163.65 147.672 162.203 147.39C160.755 147.107 151.967 148.197 151.967 148.197C151.967 148.197 135.179 137.882 133.34 136.766C131.469 136.911 129.633 137.309 127.895 137.945C130.545 139.29 148.21 148.26 150.439 148.659C152.804 149.107 160.695 147.946 162.082 148.78C162.964 149.309 165.589 153.036 167.363 155.681C167.869 155.614 168.069 155.525 167.869 155.125Z" fill="white"/>
</g>
<path d="M145.94 150.838C147.839 152.152 147.704 153.462 149.497 153.941C151.291 154.421 158.014 155.798 160.579 156.013C163.144 156.228 161.997 154.807 161.997 154.807L157.623 152.116L161.436 151.273C161.436 151.273 165.259 155.39 165.975 155.614C166.691 155.838 168.054 155.919 167.874 155.107C167.523 153.538 163.655 147.654 162.208 147.371C160.76 147.089 151.972 148.179 151.972 148.179C151.972 148.179 135.184 137.864 133.345 136.748C126.216 137.362 122.825 140.703 121.397 142.708L121.447 142.743C124.388 144.735 144.047 149.524 145.94 150.838Z" stroke="#263238" stroke-linecap="round" stroke-linejoin="round"/>
<path d="M101.663 72.5288L86.5728 78.1659C86.39 80.5398 85.7333 82.8652 84.634 85.0318C82.8505 88.4086 83.8925 94.7991 85.6059 98.2477C87.3193 101.696 94.8693 100.347 97.6297 99.916C99.502 99.5972 101.336 99.1181 103.106 98.4854C103.911 98.7634 104.783 98.8533 105.639 98.7466C106.494 98.6399 107.305 98.3402 107.995 97.8755C107.995 97.8755 99.9193 77.5829 101.663 72.5288Z" fill="white"/>
<mask id="mask14_276_4952" style="mask-type:luminance" maskUnits="userSpaceOnUse" x="83" y="72" width="25" height="29">
<path d="M101.663 72.5288L86.5728 78.1659C86.39 80.5398 85.7333 82.8652 84.634 85.0318C82.8505 88.4086 83.8925 94.7991 85.6059 98.2477C87.3193 101.696 94.8693 100.347 97.6297 99.916C99.502 99.5972 101.336 99.1181 103.106 98.4854C103.911 98.7634 104.783 98.8533 105.639 98.7466C106.494 98.6399 107.305 98.3402 107.995 97.8755C107.995 97.8755 99.9193 77.5829 101.663 72.5288Z" fill="white"/>
</mask>
<g mask="url(#mask14_276_4952)">
<path d="M101.663 72.5288L86.5728 78.1659C86.39 80.5398 85.7333 82.8652 84.634 85.0318C82.8505 88.4086 83.8925 94.7991 85.6059 98.2477C85.8927 98.8023 86.3541 99.2699 86.9335 99.5931V99.333C86.9335 99.333 84.133 93.1219 84.6641 89.5387C85.1951 85.9556 87.4696 84.1573 87.7351 81.8926C88.0007 79.6279 87.8654 78.5516 92.9404 76.8788C98.0155 75.2061 100.145 73.6544 100.676 75.3227C101.207 76.9909 103.346 87.9871 104.814 90.615C106.282 93.243 106.147 95.9965 103.882 97.1849C101.593 98.4147 99.141 99.382 96.5827 100.064L97.6498 99.8981C99.522 99.5793 101.356 99.1002 103.126 98.4675C103.931 98.7455 104.803 98.8354 105.659 98.7287C106.514 98.622 107.325 98.3222 108.015 97.8576C108.015 97.8576 99.9193 77.5829 101.663 72.5288Z" fill="#355B5E"/>
<path opacity="0.5" d="M101.663 72.5288L86.5728 78.1659C86.39 80.5398 85.7333 82.8652 84.634 85.0318C82.8505 88.4086 83.8925 94.7991 85.6059 98.2477C85.8927 98.8023 86.3541 99.2699 86.9335 99.5931V99.333C86.9335 99.333 84.133 93.1219 84.6641 89.5387C85.1951 85.9556 87.4696 84.1573 87.7351 81.8926C88.0007 79.6279 87.8654 78.5516 92.9404 76.8788C98.0155 75.2061 100.145 73.6544 100.676 75.3227C101.207 76.9909 103.346 87.9871 104.814 90.615C106.282 93.243 106.147 95.9965 103.882 97.1849C101.593 98.4147 99.141 99.382 96.5827 100.064L97.6498 99.8981C99.522 99.5793 101.356 99.1002 103.126 98.4675C103.931 98.7455 104.803 98.8354 105.659 98.7287C106.514 98.622 107.325 98.3222 108.015 97.8576C108.015 97.8576 99.9193 77.5829 101.663 72.5288Z" fill="white"/>
</g>
<path d="M101.663 72.5288L86.5728 78.1659C86.39 80.5398 85.7333 82.8652 84.634 85.0318C82.8505 88.4086 83.8925 94.7991 85.6059 98.2477C87.3193 101.696 94.8693 100.347 97.6297 99.916C99.502 99.5972 101.336 99.1181 103.106 98.4854C103.911 98.7634 104.783 98.8533 105.639 98.7466C106.494 98.6399 107.305 98.3402 107.995 97.8755C107.995 97.8755 99.9193 77.5829 101.663 72.5288Z" stroke="#263238" stroke-linecap="round" stroke-linejoin="round"/>
<path d="M94.0376 81.3677C94.0786 82.1618 93.9684 82.9564 93.712 83.7176C93.3112 84.6145 89.5287 88.1394 89.6439 88.5206C89.7592 88.9017 90.0998 90.126 90.7712 90.2426" stroke="#263238" stroke-linecap="round" stroke-linejoin="round"/>
<path d="M98.231 84.5205C98.757 83.5787 100.485 84.4981 100.46 86.6193" stroke="#263238" stroke-linecap="round" stroke-linejoin="round"/>
<path d="M89.6639 81.749C89.6639 81.749 91.1369 81.1705 92.4545 83.3051" stroke="#263238" stroke-linecap="round" stroke-linejoin="round"/>
<path d="M96.1367 87.6282C97.8387 87.7048 99.457 88.3125 100.711 89.3458" stroke="#263238" stroke-width="0.5" stroke-linecap="round" stroke-linejoin="round"/>
<path d="M87.8854 84.8254C88.7654 84.9306 89.6251 85.1434 90.4404 85.4578" stroke="#263238" stroke-width="0.5" stroke-linecap="round" stroke-linejoin="round"/>
<path d="M93.8723 79.3767C93.4833 79.1926 93.0518 79.0919 92.6119 79.0826C92.172 79.0732 91.7356 79.1555 91.3373 79.3229C89.9896 79.9014 89.163 80.5382 89.2532 79.7983C89.3433 79.0583 90.9265 78.2421 91.4024 78.1345C91.8784 78.0269 94.0076 77.7309 93.8723 79.3767Z" fill="#263238"/>
<path d="M97.6498 77.704C99.0542 78.7212 100.17 80.0212 100.906 81.4979C101.908 83.7402 102.7 81.2916 101.908 79.8252C101.117 78.3587 98.8271 76.7981 97.6498 77.704Z" fill="#263238"/>
<path d="M108.216 101.71C108.216 102.755 107.554 103.602 106.743 103.602C105.931 103.602 105.275 102.755 105.275 101.71C105.275 100.665 105.931 98.0056 106.743 98.0056C107.554 98.0056 108.216 100.665 108.216 101.71Z" fill="#355B5E" stroke="#263238" stroke-linecap="round" stroke-linejoin="round"/>
<path d="M98.3611 84.1123C98.3035 84.2494 98.2583 84.3903 98.2259 84.5339C98.0806 85.1976 97.9353 86.5833 98.2259 86.6416C98.5164 86.6999 99.2279 85.4039 99.3531 84.7401C99.3813 84.61 99.3981 84.478 99.4032 84.3455C99.0613 84.2495 98.7133 84.1717 98.3611 84.1123Z" fill="#263238"/>
<path d="M89.8142 81.6189C89.7697 81.7361 89.7346 81.856 89.709 81.9776C89.5587 82.6413 89.5637 84.0988 89.8794 84.1526C90.195 84.2065 90.711 82.8432 90.8563 82.1794C90.8926 82.0184 90.9127 81.8548 90.9164 81.6906C90.5578 81.6024 90.1833 81.578 89.8142 81.6189Z" fill="#263238"/>
<path d="M98.231 84.5429L98.7319 83.7087C99.5262 83.8472 100.246 84.2198 100.776 84.7671" stroke="#263238" stroke-width="0.75" stroke-linecap="round" stroke-linejoin="round"/>
<path d="M89.8142 81.6188L90.3152 81.0942C90.3152 81.0942 90.5306 81 91.713 81.4798" stroke="#263238" stroke-width="0.75" stroke-linecap="round" stroke-linejoin="round"/>
<path d="M87.9155 93.781C87.9155 93.781 88.7572 92.3953 89.8844 92.3953C91.0117 92.3953 91.8533 94.66 91.8533 94.66" stroke="#263238" stroke-linecap="round" stroke-linejoin="round"/>
<path d="M51.6386 153.542C50.5493 153.494 49.4793 153.266 48.4824 152.87C48.3434 152.824 48.2163 152.753 48.1089 152.661C48.0014 152.57 47.9159 152.46 47.8575 152.338C47.7991 152.216 47.769 152.085 47.769 151.952C47.7691 151.82 47.7993 151.688 47.8578 151.567C47.9164 151.445 48.002 151.335 48.1095 151.243C48.2171 151.152 48.3442 151.081 48.4833 151.035C48.6223 150.99 48.7703 150.969 48.9183 150.976C49.0663 150.983 49.2112 151.017 49.3441 151.076C50.3461 151.457 51.6437 151.695 51.9893 151.56C52.6256 150.923 53.6025 147.076 52.34 145.219C52.0545 144.806 51.7889 144.73 51.6136 144.712C50.8972 144.623 49.8351 145.282 49.4593 145.609C49.3547 145.698 49.2317 145.767 49.0973 145.812C48.9629 145.858 48.8197 145.88 48.676 145.876C48.5322 145.872 48.3907 145.843 48.2595 145.79C48.1283 145.738 48.01 145.662 47.9113 145.569C47.8126 145.475 47.7355 145.365 47.6843 145.245C47.6332 145.124 47.609 144.996 47.6132 144.868C47.6174 144.739 47.6498 144.612 47.7087 144.495C47.7676 144.377 47.8517 144.271 47.9564 144.183C48.1517 144.013 49.9603 142.555 51.8891 142.788C52.3675 142.851 52.8234 143.011 53.2213 143.257C53.6193 143.503 53.9486 143.827 54.1837 144.206C56.0424 146.919 54.7698 152.08 53.342 153.103C52.8458 153.417 52.2456 153.572 51.6386 153.542Z" fill="white"/>
<mask id="mask15_276_4952" style="mask-type:luminance" maskUnits="userSpaceOnUse" x="47" y="142" width="9" height="12">
<path d="M51.6386 153.542C50.5493 153.494 49.4793 153.266 48.4824 152.87C48.3434 152.824 48.2163 152.753 48.1089 152.661C48.0014 152.57 47.9159 152.46 47.8575 152.338C47.7991 152.216 47.769 152.085 47.769 151.952C47.7691 151.82 47.7993 151.688 47.8578 151.567C47.9164 151.445 48.002 151.335 48.1095 151.243C48.2171 151.152 48.3442 151.081 48.4833 151.035C48.6223 150.99 48.7703 150.969 48.9183 150.976C49.0663 150.983 49.2112 151.017 49.3441 151.076C50.3461 151.457 51.6437 151.695 51.9893 151.56C52.6256 150.923 53.6025 147.076 52.34 145.219C52.0545 144.806 51.7889 144.73 51.6136 144.712C50.8972 144.623 49.8351 145.282 49.4593 145.609C49.3547 145.698 49.2317 145.767 49.0973 145.812C48.9629 145.858 48.8197 145.88 48.676 145.876C48.5322 145.872 48.3907 145.843 48.2595 145.79C48.1283 145.738 48.01 145.662 47.9113 145.569C47.8126 145.475 47.7355 145.365 47.6843 145.245C47.6332 145.124 47.609 144.996 47.6132 144.868C47.6174 144.739 47.6498 144.612 47.7087 144.495C47.7676 144.377 47.8517 144.271 47.9564 144.183C48.1517 144.013 49.9603 142.555 51.8891 142.788C52.3675 142.851 52.8234 143.011 53.2213 143.257C53.6193 143.503 53.9486 143.827 54.1837 144.206C56.0424 146.919 54.7698 152.08 53.342 153.103C52.8458 153.417 52.2456 153.572 51.6386 153.542Z" fill="white"/>
</mask>
<g mask="url(#mask15_276_4952)">
<path d="M53.1065 144.923C52.9752 144.644 52.7694 144.399 52.5074 144.208C52.2453 144.017 51.935 143.887 51.6036 143.829C50.3511 143.649 49.1738 144.775 49.0435 144.9C48.9237 145.03 48.8498 145.188 48.831 145.355C48.8123 145.522 48.8496 145.69 48.9383 145.838C49.1354 145.802 49.3175 145.718 49.4643 145.596C49.8401 145.282 50.9022 144.622 51.6186 144.699C51.7939 144.699 52.0595 144.793 52.345 145.205C53.6075 147.044 52.6306 150.91 51.9943 151.547C51.6487 151.681 50.3561 151.443 49.3491 151.062C49.2252 151.016 49.0927 150.99 48.9583 150.986C48.9675 151.109 49.0107 151.228 49.0842 151.332C49.1577 151.436 49.2591 151.522 49.3792 151.582C50.0126 151.885 50.7114 152.063 51.4282 152.103C51.8372 152.12 52.2378 151.995 52.5454 151.753C53.4873 150.977 54.3189 147.008 53.1065 144.923Z" fill="#355B5E"/>
<path opacity="0.5" d="M53.1065 144.923C52.9752 144.644 52.7694 144.399 52.5074 144.208C52.2453 144.017 51.935 143.887 51.6036 143.829C50.3511 143.649 49.1738 144.775 49.0435 144.9C48.9237 145.03 48.8498 145.188 48.831 145.355C48.8123 145.522 48.8496 145.69 48.9383 145.838C49.1354 145.802 49.3175 145.718 49.4643 145.596C49.8401 145.282 50.9022 144.622 51.6186 144.699C51.7939 144.699 52.0595 144.793 52.345 145.205C53.6075 147.044 52.6306 150.91 51.9943 151.547C51.6487 151.681 50.3561 151.443 49.3491 151.062C49.2252 151.016 49.0927 150.99 48.9583 150.986C48.9675 151.109 49.0107 151.228 49.0842 151.332C49.1577 151.436 49.2591 151.522 49.3792 151.582C50.0126 151.885 50.7114 152.063 51.4282 152.103C51.8372 152.12 52.2378 151.995 52.5454 151.753C53.4873 150.977 54.3189 147.008 53.1065 144.923Z" fill="white"/>
</g>
<path d="M51.6386 153.542C50.5493 153.494 49.4793 153.266 48.4824 152.87C48.3434 152.824 48.2163 152.753 48.1089 152.661C48.0014 152.57 47.9159 152.46 47.8575 152.338C47.7991 152.216 47.769 152.085 47.769 151.952C47.7691 151.82 47.7993 151.688 47.8578 151.567C47.9164 151.445 48.002 151.335 48.1095 151.243C48.2171 151.152 48.3442 151.081 48.4833 151.035C48.6223 150.99 48.7703 150.969 48.9183 150.976C49.0663 150.983 49.2112 151.017 49.3441 151.076C50.3461 151.457 51.6437 151.695 51.9893 151.56C52.6256 150.923 53.6025 147.076 52.34 145.219C52.0545 144.806 51.7889 144.73 51.6136 144.712C50.8972 144.623 49.8351 145.282 49.4593 145.609C49.3547 145.698 49.2317 145.767 49.0973 145.812C48.9629 145.858 48.8197 145.88 48.676 145.876C48.5322 145.872 48.3907 145.843 48.2595 145.79C48.1283 145.738 48.01 145.662 47.9113 145.569C47.8126 145.475 47.7355 145.365 47.6843 145.245C47.6332 145.124 47.609 144.996 47.6132 144.868C47.6174 144.739 47.6498 144.612 47.7087 144.495C47.7676 144.377 47.8517 144.271 47.9564 144.183C48.1517 144.013 49.9603 142.555 51.8891 142.788C52.3675 142.851 52.8234 143.011 53.2213 143.257C53.6193 143.503 53.9486 143.827 54.1837 144.206C56.0424 146.919 54.7698 152.08 53.342 153.103C52.8458 153.417 52.2456 153.572 51.6386 153.542Z" stroke="#263238" stroke-linecap="round" stroke-linejoin="round"/>
<path d="M49.7249 141.972H37.676V156.287H49.7249V141.972Z" fill="white"/>
<mask id="mask16_276_4952" style="mask-type:luminance" maskUnits="userSpaceOnUse" x="37" y="141" width="13" height="16">
<path d="M49.7249 141.972H37.676V156.287H49.7249V141.972Z" fill="white"/>
</mask>
<g mask="url(#mask16_276_4952)">
<path d="M42.6108 141.972H37.676V156.287H42.6108V141.972Z" fill="#355B5E"/>
<path opacity="0.5" d="M42.6108 141.972H37.676V156.287H42.6108V141.972Z" fill="white"/>
</g>
<path d="M49.7249 141.972H37.676V156.287H49.7249V141.972Z" stroke="#263238" stroke-linecap="round" stroke-linejoin="round"/>
<path d="M115.936 156.09H64.464L62.7857 130.761C62.7393 130.515 62.753 130.264 62.8258 130.023C62.8986 129.783 63.0288 129.559 63.2074 129.368C63.386 129.177 63.6087 129.023 63.8603 128.917C64.1118 128.81 64.3862 128.754 64.6644 128.752H115.716C115.995 128.751 116.272 128.806 116.526 128.911C116.78 129.017 117.005 129.17 117.186 129.362C117.367 129.553 117.499 129.777 117.573 130.019C117.647 130.261 117.661 130.514 117.614 130.761L115.936 156.09Z" fill="#263238" stroke="#263238" stroke-linecap="round" stroke-linejoin="round"/>
<path d="M66.9991 129.357H115.345C115.618 129.355 115.888 129.405 116.137 129.506C116.386 129.607 116.607 129.756 116.785 129.941C116.963 130.126 117.094 130.344 117.168 130.58C117.242 130.815 117.257 131.062 117.214 131.303" stroke="white" stroke-linecap="round" stroke-linejoin="round"/>
<path d="M63.1614 130.904C63.2018 130.48 63.4191 130.086 63.7701 129.799C64.1211 129.512 64.58 129.354 65.0552 129.357" stroke="white" stroke-linecap="round" stroke-linejoin="round"/>
<path d="M116.151 153.623H64.2487V156.09H116.151V153.623Z" fill="white" stroke="#263238" stroke-linecap="round" stroke-linejoin="round"/>
<path d="M90.0146 144.493C92.0455 144.493 93.6919 143.609 93.6919 142.519C93.6919 141.43 92.0455 140.546 90.0146 140.546C87.9837 140.546 86.3373 141.43 86.3373 142.519C86.3373 143.609 87.9837 144.493 90.0146 144.493Z" fill="white" stroke="#263238" stroke-linecap="round" stroke-linejoin="round"/>
<path d="M194.436 155.798H1.1236V160H194.436V155.798Z" fill="#263238"/>
<path d="M144.312 0H51.313C48.1781 0 45.6367 2.27484 45.6367 5.081V52.846C45.6367 55.6522 48.1781 57.927 51.313 57.927H144.312C147.447 57.927 149.988 55.6522 149.988 52.846V5.081C149.988 2.27484 147.447 0 144.312 0Z" fill="#355B5E"/>
<path d="M100.267 33.289C108.702 32.0754 114.442 24.97 113.086 17.4187C111.731 9.86741 103.793 4.72966 95.3569 5.94324C86.921 7.15682 81.1813 14.2622 82.5371 21.8135C83.8928 29.3648 91.8306 34.5026 100.267 33.289Z" fill="#263238"/>
<path d="M97.6948 22.176L92.5396 28.1001C92.3643 28.3467 92.1233 28.5504 91.8382 28.6929C91.553 28.8354 91.2328 28.9121 90.9063 28.9163C90.4585 28.9217 90.0263 28.7686 89.704 28.4902C89.5401 28.3557 89.4105 28.1911 89.324 28.0077C89.2376 27.8243 89.1963 27.6264 89.203 27.4274C89.2191 26.9818 89.3948 26.5526 89.704 26.2031L95.5806 19.696L90.0697 13.1844C89.8136 12.8789 89.6732 12.5081 89.6689 12.1261C89.6676 11.8983 89.719 11.6727 89.8199 11.4635C89.9208 11.2544 90.0689 11.0662 90.2551 10.9108C90.4299 10.7474 90.6399 10.6175 90.8724 10.5288C91.1049 10.4402 91.355 10.3947 91.6077 10.395C91.9314 10.3997 92.2485 10.4769 92.5303 10.6195C92.8121 10.762 93.0495 10.9655 93.2209 11.2112L98.2008 17.0815L103.211 11.3099C103.39 11.0406 103.64 10.8151 103.94 10.6531C104.24 10.4912 104.579 10.3979 104.929 10.3816C105.146 10.3811 105.361 10.4207 105.56 10.4979C105.759 10.575 105.938 10.6881 106.086 10.8301C106.244 10.9631 106.37 11.1236 106.456 11.3018C106.542 11.4799 106.587 11.6719 106.587 11.866C106.582 12.2133 106.448 12.5493 106.207 12.8212L100.31 19.5749L106.006 26.3018C106.276 26.6025 106.425 26.9748 106.432 27.3601C106.434 27.5829 106.381 27.8034 106.278 28.0063C106.175 28.2091 106.024 28.3896 105.836 28.5351C105.468 28.8515 104.978 29.0283 104.468 29.0284C104.143 29.0248 103.824 28.9482 103.54 28.8056C103.257 28.663 103.018 28.4589 102.845 28.2122L97.6948 22.176Z" fill="white"/>
<path d="M127.288 47.8952H68.3167C67.1208 47.8952 65.974 47.47 65.1284 46.7131C64.2828 45.9561 63.8077 44.9295 63.8077 43.8591C63.8077 42.7887 64.2828 41.7621 65.1284 41.0051C65.974 40.2482 67.1208 39.823 68.3167 39.823H127.288C128.484 39.823 129.631 40.2482 130.477 41.0051C131.322 41.7621 131.797 42.7887 131.797 43.8591C131.797 44.9295 131.322 45.9561 130.477 46.7131C129.631 47.47 128.484 47.8952 127.288 47.8952Z" fill="white"/>
<path d="M76.3977 45.1595C76.3583 45.1595 76.3194 45.1523 76.2832 45.1385C76.247 45.1246 76.2144 45.1043 76.1872 45.0788C76.1576 45.0524 76.1343 45.0209 76.1188 44.9862C76.1033 44.9515 76.0959 44.9143 76.0971 44.877C76.097 44.8138 76.116 44.7518 76.1522 44.6976L76.6031 44.0697H75.6812C75.6386 44.0717 75.596 44.0655 75.5563 44.0516C75.5166 44.0377 75.4806 44.0163 75.4508 43.989C75.3993 43.9353 75.371 43.8669 75.371 43.7962C75.371 43.7254 75.3993 43.657 75.4508 43.6033C75.4806 43.576 75.5166 43.5547 75.5563 43.5408C75.596 43.5269 75.6386 43.5207 75.6812 43.5226L76.588 43.5451L76.1872 42.9621C76.1471 42.9023 76.1246 42.8344 76.1221 42.7647C76.1209 42.7274 76.1283 42.6902 76.1438 42.6555C76.1594 42.6208 76.1827 42.5893 76.2123 42.5629C76.2404 42.5373 76.2739 42.5169 76.3109 42.5031C76.3479 42.4892 76.3876 42.4821 76.4277 42.4822C76.4838 42.4815 76.5389 42.4955 76.5861 42.5226C76.6334 42.5498 76.6706 42.5887 76.6932 42.6347L77.1341 43.3388L77.5549 42.6661C77.5814 42.6137 77.6235 42.5689 77.6765 42.5365C77.7295 42.5041 77.7914 42.4853 77.8555 42.4822C77.8949 42.4822 77.9338 42.4894 77.97 42.5032C78.0062 42.5171 78.0388 42.5374 78.066 42.5629C78.0953 42.5876 78.1185 42.6175 78.1341 42.6507C78.1496 42.684 78.1571 42.7197 78.1561 42.7558C78.1555 42.8194 78.1346 42.8817 78.096 42.9352L77.6551 43.5675L78.572 43.5451C78.6146 43.5428 78.6573 43.5488 78.6971 43.5628C78.7369 43.5767 78.7728 43.5982 78.8024 43.6258C78.8539 43.6794 78.8822 43.7479 78.8822 43.8186C78.8822 43.8894 78.8539 43.9578 78.8024 44.0114C78.7728 44.039 78.7369 44.0605 78.6971 44.0744C78.6573 44.0884 78.6146 44.0944 78.572 44.0922H77.6451L78.0559 44.6662C78.1023 44.7355 78.1282 44.8142 78.1311 44.8949C78.1325 44.9312 78.1257 44.9675 78.1111 45.0014C78.0964 45.0353 78.0743 45.0662 78.0459 45.0922C78.0195 45.1174 77.9877 45.1375 77.9524 45.1514C77.9171 45.1653 77.8791 45.1726 77.8405 45.1729C77.7785 45.1716 77.7182 45.1544 77.6667 45.1234C77.6153 45.0924 77.5747 45.0489 77.5499 44.998L77.1341 44.3388L76.7183 44.998C76.6882 45.05 76.6418 45.0929 76.5849 45.1216C76.5279 45.1503 76.4629 45.1634 76.3977 45.1595Z" fill="black"/>
<path d="M80.9968 45.1595C80.9574 45.1595 80.9185 45.1523 80.8823 45.1384C80.8461 45.1245 80.8135 45.1042 80.7864 45.0787C80.7567 45.0524 80.7334 45.0209 80.7179 44.9862C80.7024 44.9515 80.695 44.9143 80.6962 44.8769C80.6961 44.8138 80.7152 44.7518 80.7513 44.6975L81.2022 44.0697H80.2804C80.2377 44.0717 80.1952 44.0655 80.1554 44.0516C80.1157 44.0376 80.0797 44.0163 80.0499 43.989C79.9984 43.9353 79.9701 43.8669 79.9701 43.7961C79.9701 43.7254 79.9984 43.657 80.0499 43.6033C80.0797 43.576 80.1157 43.5547 80.1554 43.5407C80.1952 43.5268 80.2377 43.5206 80.2804 43.5226L81.1871 43.545L80.7613 42.9396C80.7211 42.8799 80.6987 42.8119 80.6962 42.7423C80.695 42.7049 80.7024 42.6677 80.7179 42.633C80.7334 42.5983 80.7567 42.5668 80.7864 42.5405C80.8144 42.5148 80.848 42.4945 80.885 42.4806C80.9219 42.4668 80.9617 42.4597 81.0018 42.4597C81.0579 42.459 81.113 42.4731 81.1602 42.5002C81.2074 42.5273 81.2447 42.5663 81.2673 42.6122L81.7082 43.3163L82.129 42.6436C82.1555 42.5913 82.1976 42.5465 82.2506 42.514C82.3036 42.4816 82.3655 42.4628 82.4296 42.4597C82.469 42.4597 82.5079 42.4669 82.5441 42.4808C82.5802 42.4947 82.6129 42.515 82.64 42.5405C82.6694 42.5651 82.6926 42.595 82.7081 42.6283C82.7237 42.6615 82.7312 42.6973 82.7302 42.7333C82.7295 42.797 82.7087 42.8592 82.6701 42.9127L82.2292 43.545L83.146 43.5226C83.1887 43.5203 83.2314 43.5264 83.2711 43.5403C83.3109 43.5543 83.3469 43.5757 83.3765 43.6033C83.428 43.657 83.4563 43.7254 83.4563 43.7961C83.4563 43.8669 83.428 43.9353 83.3765 43.989C83.3469 44.0165 83.3109 44.038 83.2711 44.052C83.2314 44.0659 83.1887 44.072 83.146 44.0697H82.2192L82.63 44.6437C82.6764 44.713 82.7022 44.7917 82.7052 44.8724C82.7066 44.9088 82.6998 44.945 82.6851 44.9789C82.6705 45.0128 82.6483 45.0437 82.62 45.0698C82.5936 45.0949 82.5618 45.1151 82.5265 45.1289C82.4912 45.1428 82.4531 45.1501 82.4146 45.1505C82.3524 45.1497 82.2919 45.1327 82.2403 45.1017C82.1887 45.0706 82.1483 45.0268 82.124 44.9756L81.7082 44.3164L81.2924 44.9756C81.2677 45.0282 81.2268 45.0734 81.1744 45.106C81.1221 45.1385 81.0605 45.1571 80.9968 45.1595Z" fill="black"/>
<path d="M85.5959 45.1595C85.5565 45.1595 85.5176 45.1523 85.4814 45.1384C85.4453 45.1245 85.4126 45.1042 85.3855 45.0787C85.3558 45.0524 85.3326 45.0209 85.317 44.9862C85.3015 44.9515 85.2941 44.9143 85.2953 44.8769C85.2952 44.8138 85.3143 44.7518 85.3504 44.6975L85.8013 44.0697H84.8795C84.8369 44.0717 84.7943 44.0655 84.7545 44.0516C84.7148 44.0376 84.6788 44.0163 84.649 43.989C84.5975 43.9353 84.5692 43.8669 84.5692 43.7961C84.5692 43.7254 84.5975 43.657 84.649 43.6033C84.6788 43.576 84.7148 43.5547 84.7545 43.5407C84.7943 43.5268 84.8369 43.5206 84.8795 43.5226L85.7863 43.545L85.3604 42.9396C85.3202 42.8799 85.2978 42.8119 85.2953 42.7423C85.2941 42.7049 85.3015 42.6677 85.317 42.633C85.3326 42.5983 85.3558 42.5668 85.3855 42.5405C85.4136 42.5148 85.4471 42.4945 85.4841 42.4806C85.5211 42.4668 85.5608 42.4597 85.6009 42.4597C85.657 42.459 85.7121 42.4731 85.7593 42.5002C85.8066 42.5273 85.8438 42.5663 85.8664 42.6122L86.3073 43.3163L86.7281 42.6436C86.7546 42.5913 86.7967 42.5465 86.8497 42.514C86.9027 42.4816 86.9646 42.4628 87.0287 42.4597C87.0681 42.4597 87.107 42.4669 87.1432 42.4808C87.1794 42.4947 87.212 42.515 87.2392 42.5405C87.2685 42.5651 87.2917 42.595 87.3073 42.6283C87.3228 42.6615 87.3303 42.6973 87.3293 42.7333C87.3287 42.797 87.3078 42.8592 87.2692 42.9127L86.8283 43.545L87.7452 43.5226C87.7878 43.5203 87.8305 43.5264 87.8703 43.5403C87.9101 43.5543 87.946 43.5757 87.9756 43.6033C88.0271 43.657 88.0554 43.7254 88.0554 43.7961C88.0554 43.8669 88.0271 43.9353 87.9756 43.989C87.946 44.0165 87.9101 44.038 87.8703 44.052C87.8305 44.0659 87.7878 44.072 87.7452 44.0697H86.8183L87.2291 44.6437C87.2755 44.713 87.3013 44.7917 87.3043 44.8724C87.3057 44.9088 87.2989 44.945 87.2843 44.9789C87.2696 45.0128 87.2475 45.0437 87.2191 45.0698C87.1927 45.0949 87.1609 45.1151 87.1256 45.1289C87.0903 45.1428 87.0523 45.1501 87.0137 45.1505C86.9515 45.1497 86.891 45.1327 86.8394 45.1017C86.7878 45.0706 86.7474 45.0268 86.7231 44.9756L86.3073 44.3164L85.8915 44.9756C85.8668 45.0282 85.8259 45.0734 85.7735 45.106C85.7212 45.1385 85.6596 45.1571 85.5959 45.1595Z" fill="black"/>
<path d="M90.215 45.1595C90.1757 45.1595 90.1367 45.1523 90.1006 45.1384C90.0644 45.1245 90.0318 45.1042 90.0046 45.0787C89.975 45.0524 89.9517 45.0209 89.9362 44.9862C89.9207 44.9515 89.9133 44.9143 89.9144 44.8769C89.9144 44.8138 89.9334 44.7518 89.9695 44.6975L90.4204 44.0697H89.4986C89.456 44.0717 89.4134 44.0655 89.3737 44.0516C89.3339 44.0376 89.298 44.0163 89.2682 43.989C89.2167 43.9353 89.1884 43.8669 89.1884 43.7961C89.1884 43.7254 89.2167 43.657 89.2682 43.6033C89.298 43.576 89.3339 43.5547 89.3737 43.5407C89.4134 43.5268 89.456 43.5206 89.4986 43.5226L90.4054 43.545L89.9796 42.9396C89.9394 42.8799 89.917 42.8119 89.9144 42.7423C89.9133 42.7049 89.9207 42.6677 89.9362 42.633C89.9517 42.5983 89.975 42.5668 90.0046 42.5405C90.0327 42.5148 90.0662 42.4945 90.1032 42.4806C90.1402 42.4668 90.1799 42.4597 90.22 42.4597C90.2761 42.459 90.3312 42.4731 90.3785 42.5002C90.4257 42.5273 90.4629 42.5663 90.4856 42.6122L90.9264 43.3163L91.3473 42.6436C91.3738 42.5913 91.4158 42.5465 91.4688 42.514C91.5218 42.4816 91.5838 42.4628 91.6479 42.4597C91.6872 42.4597 91.7262 42.4669 91.7623 42.4808C91.7985 42.4947 91.8312 42.515 91.8583 42.5405C91.8877 42.5651 91.9109 42.595 91.9264 42.6283C91.942 42.6615 91.9495 42.6973 91.9485 42.7333C91.9478 42.797 91.927 42.8592 91.8883 42.9127L91.4475 43.545L92.3643 43.5226C92.4069 43.5203 92.4496 43.5264 92.4894 43.5403C92.5292 43.5543 92.5651 43.5757 92.5948 43.6033C92.6462 43.657 92.6746 43.7254 92.6746 43.7961C92.6746 43.8669 92.6462 43.9353 92.5948 43.989C92.5651 44.0165 92.5292 44.038 92.4894 44.052C92.4496 44.0659 92.4069 44.072 92.3643 44.0697H91.4375L91.8483 44.6437C91.8946 44.713 91.9205 44.7917 91.9234 44.8724C91.9249 44.9088 91.918 44.945 91.9034 44.9789C91.8888 45.0128 91.8666 45.0437 91.8383 45.0698C91.8119 45.0949 91.7801 45.1151 91.7448 45.1289C91.7095 45.1428 91.6714 45.1501 91.6328 45.1505C91.5708 45.1491 91.5105 45.132 91.4591 45.101C91.4076 45.07 91.3671 45.0265 91.3423 44.9756L90.9264 44.3164L90.5106 44.9756C90.4859 45.0282 90.445 45.0734 90.3927 45.106C90.3403 45.1385 90.2787 45.1571 90.215 45.1595Z" fill="black"/>
<path d="M94.794 45.1595C94.7547 45.1595 94.7157 45.1523 94.6796 45.1384C94.6434 45.1245 94.6107 45.1042 94.5836 45.0787C94.554 45.0524 94.5307 45.0209 94.5152 44.9862C94.4997 44.9515 94.4922 44.9143 94.4934 44.8769C94.4957 44.8141 94.5146 44.7526 94.5485 44.6975L94.9994 44.0697H94.0776C94.035 44.0717 93.9924 44.0655 93.9527 44.0516C93.9129 44.0376 93.877 44.0163 93.8471 43.989C93.7956 43.9353 93.7673 43.8669 93.7673 43.7961C93.7673 43.7254 93.7956 43.657 93.8471 43.6033C93.877 43.576 93.9129 43.5547 93.9527 43.5407C93.9924 43.5268 94.035 43.5206 94.0776 43.5226L94.9844 43.545L94.5586 42.9396C94.5184 42.8799 94.4959 42.8119 94.4934 42.7423C94.4922 42.7049 94.4997 42.6677 94.5152 42.633C94.5307 42.5983 94.554 42.5668 94.5836 42.5405C94.6117 42.5148 94.6452 42.4945 94.6822 42.4806C94.7192 42.4668 94.7589 42.4597 94.799 42.4597C94.8551 42.459 94.9102 42.4731 94.9575 42.5002C95.0047 42.5273 95.0419 42.5663 95.0645 42.6122L95.5054 43.3163L95.9263 42.6436C95.9528 42.5913 95.9948 42.5465 96.0478 42.514C96.1008 42.4816 96.1627 42.4628 96.2269 42.4597C96.2663 42.4592 96.3054 42.4661 96.3417 42.48C96.3779 42.4939 96.4105 42.5145 96.4373 42.5405C96.4666 42.5651 96.4899 42.595 96.5054 42.6283C96.5209 42.6615 96.5285 42.6973 96.5275 42.7333C96.5268 42.797 96.5059 42.8592 96.4673 42.9127L96.0265 43.545L96.9433 43.5226C96.9859 43.5203 97.0286 43.5264 97.0684 43.5403C97.1082 43.5543 97.1441 43.5757 97.1737 43.6033C97.2252 43.657 97.2535 43.7254 97.2535 43.7961C97.2535 43.8669 97.2252 43.9353 97.1737 43.989C97.1441 44.0165 97.1082 44.038 97.0684 44.052C97.0286 44.0659 96.9859 44.072 96.9433 44.0697H96.0164L96.4272 44.6437C96.4736 44.713 96.4995 44.7917 96.5024 44.8724C96.5038 44.9088 96.497 44.945 96.4824 44.9789C96.4678 45.0128 96.4456 45.0437 96.4172 45.0698C96.3909 45.0949 96.3591 45.1151 96.3238 45.1289C96.2885 45.1428 96.2504 45.1501 96.2118 45.1505C96.1498 45.1491 96.0895 45.132 96.038 45.101C95.9866 45.07 95.946 45.0265 95.9212 44.9756L95.5054 44.3164L95.0896 44.9756C95.0649 45.0282 95.024 45.0734 94.9717 45.106C94.9193 45.1385 94.8577 45.1571 94.794 45.1595Z" fill="black"/>
<path d="M99.3931 45.1595C99.3538 45.1595 99.3148 45.1523 99.2787 45.1384C99.2425 45.1245 99.2099 45.1042 99.1827 45.0787C99.1531 45.0524 99.1298 45.0209 99.1143 44.9862C99.0988 44.9515 99.0914 44.9143 99.0925 44.8769C99.0949 44.8141 99.1138 44.7526 99.1476 44.6975L99.5985 44.0697H98.6817C98.6383 44.072 98.5949 44.066 98.5543 44.0521C98.5137 44.0382 98.4768 44.0167 98.4463 43.989C98.3948 43.9353 98.3665 43.8669 98.3665 43.7961C98.3665 43.7254 98.3948 43.657 98.4463 43.6033C98.4768 43.5756 98.5137 43.5541 98.5543 43.5402C98.5949 43.5263 98.6383 43.5203 98.6817 43.5226L99.5835 43.545L99.1577 42.9396C99.1175 42.8799 99.0951 42.8119 99.0925 42.7423C99.0914 42.7049 99.0988 42.6677 99.1143 42.633C99.1298 42.5983 99.1531 42.5668 99.1827 42.5405C99.2108 42.5148 99.2443 42.4945 99.2813 42.4806C99.3183 42.4668 99.358 42.4597 99.3981 42.4597C99.4542 42.459 99.5093 42.4731 99.5566 42.5002C99.6038 42.5273 99.641 42.5663 99.6637 42.6122L100.105 43.3163L100.525 42.6436C100.552 42.5913 100.594 42.5465 100.647 42.514C100.7 42.4816 100.762 42.4628 100.826 42.4597C100.865 42.4592 100.905 42.4661 100.941 42.48C100.977 42.4939 101.01 42.5145 101.036 42.5405C101.066 42.5651 101.089 42.595 101.105 42.6283C101.12 42.6615 101.128 42.6973 101.127 42.7333C101.126 42.797 101.105 42.8592 101.066 42.9127L100.626 43.545L101.542 43.5226C101.585 43.5203 101.628 43.5264 101.668 43.5403C101.707 43.5543 101.743 43.5757 101.773 43.6033C101.824 43.657 101.853 43.7254 101.853 43.7961C101.853 43.8669 101.824 43.9353 101.773 43.989C101.743 44.0165 101.707 44.038 101.668 44.052C101.628 44.0659 101.585 44.072 101.542 44.0697H100.616L101.026 44.6437C101.073 44.713 101.099 44.7917 101.102 44.8724C101.103 44.9088 101.096 44.945 101.082 44.9789C101.067 45.0128 101.045 45.0437 101.016 45.0698C100.99 45.0949 100.958 45.1151 100.923 45.1289C100.888 45.1428 100.849 45.1501 100.811 45.1505C100.749 45.1491 100.689 45.132 100.637 45.101C100.586 45.07 100.545 45.0265 100.52 44.9756L100.105 44.3164L99.6887 44.9756C99.664 45.0282 99.6231 45.0734 99.5708 45.106C99.5184 45.1385 99.4568 45.1571 99.3931 45.1595Z" fill="black"/>
<path d="M103.992 45.1595C103.953 45.1595 103.914 45.1523 103.878 45.1385C103.842 45.1246 103.809 45.1043 103.782 45.0788C103.752 45.0524 103.729 45.0209 103.713 44.9862C103.698 44.9515 103.69 44.9143 103.692 44.877C103.692 44.8138 103.711 44.7518 103.747 44.6976L104.198 44.0697H103.276C103.233 44.0717 103.191 44.0655 103.151 44.0516C103.111 44.0377 103.075 44.0163 103.045 43.989C102.994 43.9353 102.966 43.8669 102.966 43.7962C102.966 43.7254 102.994 43.657 103.045 43.6033C103.075 43.576 103.111 43.5547 103.151 43.5408C103.191 43.5269 103.233 43.5207 103.276 43.5226L104.183 43.5451L103.742 42.9621C103.702 42.9023 103.679 42.8344 103.677 42.7647C103.675 42.7274 103.683 42.6902 103.698 42.6555C103.714 42.6208 103.737 42.5893 103.767 42.5629C103.795 42.5373 103.828 42.5169 103.865 42.5031C103.902 42.4892 103.942 42.4821 103.982 42.4822C104.038 42.4815 104.093 42.4955 104.141 42.5226C104.188 42.5498 104.225 42.5887 104.248 42.6347L104.689 43.3388L105.109 42.6661C105.136 42.6137 105.178 42.5689 105.231 42.5365C105.284 42.5041 105.346 42.4853 105.41 42.4822C105.449 42.4817 105.489 42.4886 105.525 42.5025C105.561 42.5164 105.594 42.537 105.62 42.5629C105.65 42.5876 105.673 42.6175 105.689 42.6507C105.704 42.684 105.712 42.7197 105.711 42.7558C105.71 42.8194 105.689 42.8817 105.651 42.9352L105.21 43.5675L106.126 43.5451C106.169 43.5428 106.212 43.5488 106.252 43.5628C106.291 43.5767 106.327 43.5982 106.357 43.6258C106.408 43.6794 106.437 43.7479 106.437 43.8186C106.437 43.8894 106.408 43.9578 106.357 44.0114C106.327 44.039 106.291 44.0605 106.252 44.0744C106.212 44.0884 106.169 44.0944 106.126 44.0922H105.2L105.61 44.6662C105.657 44.7355 105.683 44.8142 105.686 44.8949C105.687 44.9312 105.68 44.9675 105.666 45.0014C105.651 45.0353 105.629 45.0662 105.6 45.0922C105.574 45.1174 105.542 45.1375 105.507 45.1514C105.472 45.1653 105.434 45.1726 105.395 45.1729C105.333 45.1716 105.273 45.1544 105.221 45.1234C105.17 45.0924 105.129 45.0489 105.104 44.998L104.689 44.3388L104.273 44.998C104.246 45.0445 104.206 45.0839 104.157 45.1122C104.107 45.1405 104.051 45.1568 103.992 45.1595Z" fill="black"/>
<path d="M108.591 45.1595C108.552 45.1595 108.513 45.1524 108.477 45.1385C108.441 45.1246 108.408 45.1043 108.381 45.0788C108.351 45.0525 108.328 45.021 108.313 44.9863C108.297 44.9516 108.29 44.9144 108.291 44.877C108.293 44.8142 108.312 44.7527 108.346 44.6976L108.797 44.0698H107.88C107.837 44.0727 107.794 44.0669 107.754 44.0529C107.715 44.039 107.679 44.0171 107.65 43.9891C107.595 43.9368 107.565 43.8678 107.565 43.7962C107.565 43.7247 107.595 43.6557 107.65 43.6034C107.679 43.5753 107.715 43.5535 107.754 43.5395C107.794 43.5256 107.837 43.5198 107.88 43.5227L108.782 43.5451L108.356 42.9397C108.316 42.88 108.293 42.812 108.291 42.7424C108.289 42.7057 108.296 42.6692 108.311 42.6349C108.326 42.6007 108.348 42.5695 108.377 42.5431C108.405 42.5168 108.439 42.4958 108.477 42.4815C108.515 42.4672 108.555 42.4598 108.596 42.4598C108.653 42.4591 108.708 42.4732 108.755 42.5003C108.802 42.5274 108.839 42.5664 108.862 42.6123L109.303 43.3164L109.724 42.6437C109.75 42.5914 109.792 42.5465 109.845 42.5141C109.898 42.4817 109.96 42.4629 110.024 42.4598C110.064 42.4587 110.103 42.4654 110.139 42.4793C110.176 42.4932 110.208 42.5142 110.235 42.5406C110.264 42.5652 110.287 42.5951 110.303 42.6284C110.318 42.6616 110.326 42.6974 110.325 42.7334C110.324 42.7971 110.303 42.8593 110.265 42.9128L109.824 43.5451L110.741 43.5227C110.783 43.5204 110.826 43.5265 110.866 43.5404C110.906 43.5544 110.941 43.5758 110.971 43.6034C111.023 43.6571 111.051 43.7255 111.051 43.7962C111.051 43.867 111.023 43.9354 110.971 43.9891C110.941 44.0166 110.906 44.0381 110.866 44.0521C110.826 44.066 110.783 44.0721 110.741 44.0698H109.814L110.225 44.6438C110.271 44.7131 110.297 44.7918 110.3 44.8725C110.301 44.9079 110.295 44.9431 110.281 44.9762C110.267 45.0093 110.246 45.0396 110.219 45.0655C110.192 45.0913 110.159 45.1121 110.123 45.1267C110.088 45.1413 110.049 45.1494 110.009 45.1506C109.947 45.1492 109.887 45.1321 109.835 45.1011C109.784 45.0701 109.743 45.0266 109.719 44.9757L109.303 44.3165L108.887 44.9757C108.862 45.0283 108.821 45.0735 108.769 45.1061C108.717 45.1386 108.655 45.1572 108.591 45.1595Z" fill="black"/>
<path d="M113.191 45.1595C113.151 45.1595 113.112 45.1524 113.076 45.1385C113.04 45.1246 113.007 45.1043 112.98 45.0788C112.95 45.0525 112.927 45.021 112.912 44.9863C112.896 44.9516 112.889 44.9144 112.89 44.877C112.892 44.8142 112.911 44.7527 112.945 44.6976L113.396 44.0698H112.474C112.432 44.072 112.39 44.0659 112.351 44.052C112.312 44.038 112.277 44.0165 112.249 43.9891C112.194 43.9368 112.164 43.8678 112.164 43.7962C112.164 43.7247 112.194 43.6557 112.249 43.6034C112.277 43.5759 112.312 43.5545 112.351 43.5405C112.39 43.5266 112.432 43.5205 112.474 43.5227L113.381 43.5451L112.955 42.9397C112.915 42.88 112.892 42.812 112.89 42.7424C112.889 42.7057 112.895 42.6692 112.91 42.6349C112.925 42.6007 112.947 42.5695 112.976 42.5431C113.004 42.5168 113.038 42.4958 113.076 42.4815C113.114 42.4672 113.155 42.4598 113.196 42.4598C113.252 42.4591 113.307 42.4732 113.354 42.5003C113.401 42.5274 113.438 42.5664 113.461 42.6123L113.902 43.3164L114.323 42.6437C114.349 42.5914 114.391 42.5465 114.444 42.5141C114.497 42.4817 114.559 42.4629 114.623 42.4598C114.663 42.4587 114.702 42.4654 114.739 42.4793C114.775 42.4932 114.807 42.5142 114.834 42.5406C114.863 42.5652 114.886 42.5951 114.902 42.6284C114.917 42.6616 114.925 42.6974 114.924 42.7334C114.923 42.7971 114.902 42.8593 114.864 42.9128L114.423 43.5451L115.34 43.5227C115.382 43.5204 115.425 43.5265 115.465 43.5404C115.505 43.5544 115.541 43.5758 115.57 43.6034C115.622 43.6571 115.65 43.7255 115.65 43.7962C115.65 43.867 115.622 43.9354 115.57 43.9891C115.541 44.0166 115.505 44.0381 115.465 44.0521C115.425 44.066 115.382 44.0721 115.34 44.0698H114.413L114.824 44.6438C114.87 44.7131 114.896 44.7918 114.899 44.8725C114.9 44.9079 114.894 44.9431 114.88 44.9762C114.866 45.0093 114.845 45.0396 114.818 45.0655C114.791 45.0913 114.759 45.1121 114.723 45.1267C114.687 45.1413 114.648 45.1494 114.608 45.1506C114.546 45.1492 114.486 45.1321 114.435 45.1011C114.383 45.0701 114.343 45.0266 114.318 44.9757L113.902 44.3165L113.486 44.9757C113.461 45.0283 113.421 45.0735 113.368 45.1061C113.316 45.1386 113.254 45.1572 113.191 45.1595Z" fill="black"/>
<path d="M117.769 45.1595C117.73 45.1595 117.691 45.1524 117.655 45.1385C117.619 45.1246 117.586 45.1043 117.559 45.0788C117.529 45.0525 117.506 45.021 117.491 44.9863C117.475 44.9516 117.468 44.9144 117.469 44.877C117.471 44.8142 117.49 44.7527 117.524 44.6976L117.975 44.0698H117.053C117.011 44.072 116.969 44.0659 116.93 44.052C116.891 44.038 116.856 44.0165 116.828 43.9891C116.773 43.9368 116.743 43.8678 116.743 43.7962C116.743 43.7247 116.773 43.6557 116.828 43.6034C116.856 43.5759 116.891 43.5545 116.93 43.5405C116.969 43.5266 117.011 43.5205 117.053 43.5227L117.96 43.5451L117.534 42.9397C117.494 42.88 117.471 42.812 117.469 42.7424C117.468 42.705 117.475 42.6678 117.491 42.6331C117.506 42.5984 117.529 42.5669 117.559 42.5406C117.587 42.5149 117.621 42.4946 117.658 42.4807C117.695 42.4668 117.734 42.4597 117.775 42.4598C117.831 42.4591 117.886 42.4732 117.933 42.5003C117.98 42.5274 118.017 42.5664 118.04 42.6123L118.481 43.3164L118.902 42.6437C118.928 42.5914 118.97 42.5465 119.023 42.5141C119.076 42.4817 119.138 42.4629 119.202 42.4598C119.242 42.4587 119.281 42.4654 119.318 42.4793C119.354 42.4932 119.386 42.5142 119.413 42.5406C119.442 42.5652 119.465 42.5951 119.481 42.6284C119.496 42.6616 119.504 42.6974 119.503 42.7334C119.502 42.7971 119.481 42.8593 119.443 42.9128L119.002 43.5451L119.919 43.5227C119.961 43.5204 120.004 43.5265 120.044 43.5404C120.084 43.5544 120.12 43.5758 120.149 43.6034C120.201 43.6571 120.229 43.7255 120.229 43.7962C120.229 43.867 120.201 43.9354 120.149 43.9891C120.12 44.0166 120.084 44.0381 120.044 44.0521C120.004 44.066 119.961 44.0721 119.919 44.0698H118.992L119.403 44.6438C119.449 44.7131 119.475 44.7918 119.478 44.8725C119.479 44.9089 119.472 44.9451 119.458 44.979C119.443 45.0129 119.421 45.0438 119.393 45.0699C119.366 45.095 119.335 45.1152 119.299 45.129C119.264 45.1429 119.226 45.1502 119.187 45.1506C119.125 45.1492 119.065 45.1321 119.014 45.1011C118.962 45.0701 118.922 45.0266 118.897 44.9757L118.481 44.3165L118.065 44.9757C118.04 45.0283 117.999 45.0735 117.947 45.1061C117.895 45.1386 117.833 45.1572 117.769 45.1595Z" fill="black"/>
<path d="M133.531 55.0793H139.658" stroke="white" stroke-width="3" stroke-linecap="round" stroke-linejoin="round"/>
<path d="M48.5475 14.6958V51.1239C48.5475 52.1788 49.0157 53.1906 49.849 53.9366C50.6824 54.6826 51.8127 55.1017 52.9913 55.1017H127.714" stroke="white" stroke-width="3" stroke-linecap="round" stroke-linejoin="round"/>
<path d="M48.5475 5.03613V10.4983" stroke="white" stroke-width="3" stroke-linecap="round" stroke-linejoin="round"/>
</svg>
