<svg width="200" height="160" viewBox="0 0 200 160" fill="none" xmlns="http://www.w3.org/2000/svg">
<path d="M194.274 98.5409C195.276 86.6254 192.18 74.1852 188.032 63.1129C181.895 46.6276 169.911 29.7343 149.771 25.8327C138.158 23.5905 126.34 25.9942 116.38 31.6268C106.806 37.0441 99.3461 44.0445 87.5678 45.3989C75.6592 46.7711 63.44 46.2195 51.4713 46.2195C20.6954 46.2195 -4.27906 75.1584 1.9633 105.304C8.20566 135.449 37.644 156.351 62.6184 156.351C85.0629 156.351 103.529 144.301 124.847 141.063C135.418 139.458 146.034 141.359 156.494 138.956C168.653 136.157 180.086 129.489 186.824 119.834C191.413 113.25 193.648 105.999 194.274 98.5409Z" fill="#355B5E"/>
<path opacity="0.7" d="M194.274 98.5409C195.276 86.6254 192.18 74.1852 188.032 63.1129C181.895 46.6276 169.911 29.7343 149.771 25.8327C138.158 23.5905 126.34 25.9942 116.38 31.6268C106.806 37.0441 99.3461 44.0445 87.5678 45.3989C75.6592 46.7711 63.44 46.2195 51.4713 46.2195C20.6954 46.2195 -4.27906 75.1584 1.9633 105.304C8.20566 135.449 37.644 156.351 62.6184 156.351C85.0629 156.351 103.529 144.301 124.847 141.063C135.418 139.458 146.034 141.359 156.494 138.956C168.653 136.157 180.086 129.489 186.824 119.834C191.413 113.25 193.648 105.999 194.274 98.5409Z" fill="white"/>
<path d="M179.96 147.734H166.712V147.841H179.96V147.734Z" fill="#EBEBEB"/>
<path d="M132.488 148.904H129.012V149.011H132.488V148.904Z" fill="#EBEBEB"/>
<path d="M166.312 143.742H158.636V143.85H166.312V143.742Z" fill="#EBEBEB"/>
<path d="M38.26 144.465H20.984V144.572H38.26V144.465Z" fill="#EBEBEB"/>
<path d="M44.356 144.465H41.824V144.572H44.356V144.465Z" fill="#EBEBEB"/>
<path d="M90.06 146.28H52.588V146.387H90.06V146.28Z" fill="#EBEBEB"/>
<path d="M95.36 121.631H18.12C17.5143 121.631 16.9333 121.372 16.505 120.912C16.0767 120.451 15.836 119.827 15.836 119.175V2.43434C15.8413 1.78674 16.0843 1.1676 16.512 0.711682C16.9398 0.255762 17.5177 -2.48277e-05 18.12 1.8075e-09H95.36C95.66 1.8075e-09 95.957 0.0635218 96.2341 0.18694C96.5112 0.310358 96.763 0.491255 96.9751 0.719301C97.1871 0.947348 97.3554 1.21808 97.4702 1.51604C97.5849 1.81399 97.644 2.13334 97.644 2.45585V119.175C97.644 119.498 97.5849 119.817 97.4702 120.115C97.3554 120.413 97.1871 120.684 96.9751 120.912C96.763 121.14 96.5112 121.321 96.2341 121.444C95.957 121.568 95.66 121.631 95.36 121.631ZM18.12 0.0860195C17.5411 0.0871564 16.9862 0.334933 16.5769 0.775083C16.1675 1.21523 15.9371 1.81188 15.936 2.43434V119.175C15.9371 119.798 16.1675 120.394 16.5769 120.834C16.9862 121.275 17.5411 121.522 18.12 121.524H95.36C95.9389 121.522 96.4938 121.275 96.9032 120.834C97.3125 120.394 97.543 119.798 97.544 119.175V2.43434C97.543 1.81188 97.3125 1.21523 96.9032 0.775083C96.4938 0.334933 95.9389 0.0871564 95.36 0.0860195H18.12Z" fill="#EBEBEB"/>
<path d="M181.88 121.631H104.64C104.034 121.631 103.453 121.372 103.025 120.912C102.597 120.451 102.356 119.827 102.356 119.175V2.43434C102.361 1.78674 102.604 1.1676 103.032 0.711682C103.46 0.255762 104.038 -2.48277e-05 104.64 1.8075e-09H181.88C182.486 1.8075e-09 183.067 0.25874 183.495 0.719301C183.923 1.17986 184.164 1.80452 184.164 2.45585V119.175C184.164 119.827 183.923 120.451 183.495 120.912C183.067 121.372 182.486 121.631 181.88 121.631ZM104.64 0.0860195C104.061 0.0871564 103.506 0.334933 103.097 0.775083C102.688 1.21523 102.457 1.81188 102.456 2.43434V119.175C102.457 119.798 102.688 120.394 103.097 120.834C103.506 121.275 104.061 121.522 104.64 121.524H181.88C182.459 121.522 183.014 121.275 183.423 120.834C183.833 120.394 184.063 119.798 184.064 119.175V2.43434C184.063 1.81188 183.833 1.21523 183.423 0.775083C183.014 0.334933 182.459 0.0871564 181.88 0.0860195H104.64Z" fill="#EBEBEB"/>
<path d="M200 140.813H0V140.921H200V140.813Z" fill="#EBEBEB"/>
<path d="M47.732 111.717C47.396 107.563 43.452 106.01 38.776 106.449C34.1 106.887 30.472 109.154 30.8 113.309L47.732 111.717Z" fill="#F0F0F0"/>
<path d="M38.6239 104.552C40.7919 104.345 41.4839 102.376 41.2959 100.044C41.1079 97.7133 40.0959 95.9026 37.9359 96.1048C35.7759 96.3069 35.0759 98.2811 35.2639 100.612C35.4519 102.943 36.4559 104.754 38.6239 104.552Z" fill="#F0F0F0"/>
<path d="M136.04 23.2253C136.078 23.6864 135.988 24.1492 135.781 24.5552C135.574 24.9613 135.26 25.2922 134.878 25.5062C134.497 25.7202 134.064 25.8076 133.636 25.7574C133.209 25.7072 132.804 25.5217 132.474 25.2242C132.144 24.9267 131.904 24.5307 131.783 24.0863C131.663 23.6419 131.668 23.1691 131.797 22.7276C131.927 22.2861 132.175 21.8959 132.511 21.6063C132.847 21.3167 133.255 21.1407 133.684 21.1006C134.258 21.0469 134.829 21.2405 135.271 21.6389C135.713 22.0372 135.989 22.6078 136.04 23.2253Z" fill="#F5F5F5"/>
<path d="M148.068 22.0811C148.105 22.5413 148.015 23.0029 147.808 23.4077C147.601 23.8125 147.287 24.1423 146.906 24.3553C146.525 24.5683 146.093 24.655 145.666 24.6045C145.239 24.5539 144.836 24.3683 144.507 24.0712C144.178 23.7741 143.938 23.3788 143.819 22.9353C143.699 22.4918 143.704 22.02 143.833 21.5795C143.962 21.1391 144.21 20.7498 144.546 20.4609C144.881 20.172 145.288 19.9964 145.716 19.9564C146.29 19.9039 146.859 20.0981 147.3 20.4963C147.741 20.8945 148.017 21.4644 148.068 22.0811Z" fill="#F5F5F5"/>
<path d="M160.1 20.9499C160.138 21.411 160.048 21.8738 159.841 22.2799C159.634 22.6859 159.32 23.0168 158.938 23.2308C158.557 23.4448 158.124 23.5323 157.696 23.4821C157.269 23.4319 156.864 23.2463 156.534 22.9488C156.204 22.6513 155.964 22.2553 155.843 21.8109C155.723 21.3665 155.728 20.8937 155.857 20.4522C155.987 20.0108 156.235 19.6205 156.571 19.3309C156.907 19.0413 157.315 18.8653 157.744 18.8252C158.318 18.7715 158.889 18.9651 159.331 19.3635C159.773 19.7618 160.049 20.3324 160.1 20.9499Z" fill="#F5F5F5"/>
<path d="M137.112 36.3947C137.15 36.8558 137.06 37.3187 136.853 37.7247C136.646 38.1307 136.332 38.4617 135.95 38.6757C135.569 38.8897 135.136 38.9771 134.708 38.9269C134.28 38.8767 133.876 38.6911 133.546 38.3936C133.216 38.0962 132.976 37.7002 132.855 37.2558C132.735 36.8114 132.74 36.3385 132.869 35.897C132.999 35.4556 133.247 35.0654 133.583 34.7757C133.919 34.4861 134.327 34.3101 134.756 34.27C135.33 34.2163 135.901 34.4099 136.343 34.8083C136.784 35.2066 137.061 35.7772 137.112 36.3947Z" fill="#F5F5F5"/>
<path d="M149.14 35.2677C149.177 35.7279 149.087 36.1896 148.88 36.5944C148.673 36.9992 148.359 37.3289 147.978 37.5419C147.597 37.7549 147.165 37.8416 146.738 37.7911C146.311 37.7405 145.908 37.5549 145.579 37.2578C145.25 36.9607 145.011 36.5654 144.891 36.1219C144.771 35.6784 144.776 35.2066 144.905 34.7661C145.034 34.3257 145.282 33.9364 145.618 33.6475C145.953 33.3586 146.36 33.1831 146.788 33.1431C147.072 33.1165 147.358 33.1504 147.63 33.2428C147.902 33.3352 148.155 33.4843 148.373 33.6816C148.592 33.8789 148.772 34.1205 148.903 34.3927C149.035 34.6648 149.115 34.9622 149.14 35.2677Z" fill="#F5F5F5"/>
<path d="M161.172 34.1323C161.21 34.5934 161.12 35.0562 160.913 35.4622C160.706 35.8682 160.392 36.1992 160.01 36.4132C159.629 36.6272 159.196 36.7146 158.769 36.6644C158.341 36.6142 157.936 36.4287 157.606 36.1312C157.276 35.8337 157.036 35.4377 156.915 34.9933C156.795 34.5489 156.8 34.076 156.929 33.6346C157.059 33.1931 157.307 32.8029 157.643 32.5133C157.979 32.2237 158.387 32.0477 158.816 32.0076C159.39 31.9539 159.961 32.1475 160.403 32.5458C160.845 32.9442 161.121 33.5148 161.172 34.1323Z" fill="#F5F5F5"/>
<path d="M138.184 49.5816C138.221 50.0417 138.131 50.5034 137.924 50.9082C137.717 51.313 137.403 51.6428 137.022 51.8558C136.641 52.0688 136.209 52.1555 135.782 52.1049C135.355 52.0543 134.952 51.8688 134.623 51.5717C134.294 51.2745 134.055 50.8792 133.935 50.4357C133.815 49.9922 133.82 49.5204 133.949 49.08C134.078 48.6396 134.326 48.2503 134.662 47.9614C134.997 47.6725 135.404 47.4969 135.832 47.4569C136.116 47.4297 136.403 47.4632 136.675 47.5554C136.947 47.6476 137.2 47.7966 137.418 47.994C137.637 48.1914 137.817 48.4333 137.948 48.7057C138.08 48.9781 138.16 49.2758 138.184 49.5816Z" fill="#F5F5F5"/>
<path d="M150.216 48.446C150.254 48.9071 150.164 49.3699 149.957 49.776C149.75 50.182 149.436 50.5129 149.054 50.7269C148.673 50.9409 148.24 51.0283 147.812 50.9781C147.384 50.9279 146.98 50.7424 146.65 50.4449C146.32 50.1474 146.08 49.7514 145.959 49.307C145.839 48.8626 145.844 48.3898 145.973 47.9483C146.103 47.5068 146.351 47.1166 146.687 46.827C147.023 46.5374 147.431 46.3614 147.86 46.3213C148.434 46.2676 149.005 46.4612 149.447 46.8596C149.888 47.2579 150.165 47.8285 150.216 48.446Z" fill="#F5F5F5"/>
<path d="M162.244 47.3107C162.282 47.7718 162.192 48.2347 161.985 48.6407C161.778 49.0467 161.464 49.3777 161.082 49.5917C160.701 49.8057 160.269 49.8931 159.841 49.8429C159.413 49.7927 159.008 49.6071 158.678 49.3097C158.348 49.0122 158.108 48.6162 157.987 48.1718C157.867 47.7274 157.872 47.2545 158.001 46.8131C158.131 46.3716 158.379 45.9814 158.715 45.6918C159.051 45.4021 159.459 45.2261 159.888 45.186C160.462 45.1324 161.033 45.3259 161.475 45.7243C161.917 46.1227 162.193 46.6932 162.244 47.3107Z" fill="#F5F5F5"/>
<path d="M159.644 48.0761L134.932 50.3987L156.844 21.7715L134.4 23.8833C134.337 23.8897 134.274 23.8827 134.214 23.8625C134.154 23.8423 134.098 23.8094 134.05 23.7657C134.002 23.722 133.963 23.6685 133.934 23.6081C133.906 23.5478 133.888 23.482 133.884 23.4145C133.873 23.2793 133.912 23.1449 133.993 23.0409C134.074 22.9368 134.19 22.8716 134.316 22.8596L159.032 20.5371L137.116 49.1643L159.568 47.0525C159.695 47.0417 159.82 47.0848 159.917 47.1725C160.014 47.2602 160.076 47.3855 160.088 47.5213C160.093 47.5891 160.085 47.6573 160.066 47.722C160.046 47.7866 160.015 47.8464 159.973 47.898C159.932 47.9496 159.882 47.9918 159.825 48.0224C159.769 48.053 159.707 48.0712 159.644 48.0761Z" fill="#E6E6E6"/>
<path d="M160.024 99.1844C159.986 99.0591 159.914 98.9487 159.818 98.8668C159.722 98.785 159.606 98.7354 159.484 98.7242C158.409 98.6709 157.392 98.1877 156.632 97.3694C155.644 96.2984 155.064 94.677 154.968 92.7501C154.959 92.5763 154.888 92.4128 154.771 92.2929C154.653 92.173 154.498 92.1058 154.336 92.105C154.248 92.1054 154.162 92.125 154.082 92.1624C154.001 92.1998 153.929 92.2543 153.869 92.3226C153.809 92.391 153.762 92.4717 153.731 92.5599C153.701 92.6482 153.688 92.7422 153.692 92.8361C153.804 95.0985 154.516 97.0339 155.728 98.3371C156.677 99.3593 157.936 99.9805 159.276 100.088H159.368C159.473 100.096 159.579 100.077 159.675 100.031C159.772 99.9851 159.856 99.9143 159.921 99.825C159.986 99.7356 160.029 99.6303 160.047 99.5186C160.065 99.4068 160.057 99.292 160.024 99.1844Z" fill="#F0F0F0"/>
<path d="M158.744 107.438C153.444 106.939 149.62 103.055 148.412 96.991C148.393 96.8999 148.391 96.8056 148.406 96.7137C148.422 96.6218 148.455 96.5343 148.502 96.4564C148.55 96.3784 148.612 96.3117 148.685 96.2602C148.757 96.2086 148.839 96.1734 148.924 96.1566C149.086 96.1257 149.253 96.1629 149.39 96.2606C149.527 96.3583 149.623 96.5089 149.66 96.6813C150.744 102.131 154.144 105.623 158.86 106.066C164.028 106.552 169.576 102.896 170.572 93.6835C170.589 93.5039 170.671 93.3387 170.801 93.2237C170.93 93.1086 171.097 93.0529 171.264 93.0685C171.349 93.076 171.431 93.1017 171.507 93.1441C171.582 93.1864 171.649 93.2446 171.703 93.3152C171.757 93.3858 171.797 93.4673 171.821 93.5549C171.846 93.6426 171.853 93.7346 171.844 93.8255C170.888 102.513 165.576 108.079 158.744 107.438Z" fill="#F0F0F0"/>
<path d="M148.744 90.948C148.659 90.9405 148.577 90.9148 148.501 90.8724C148.426 90.8301 148.359 90.7719 148.305 90.7013C148.251 90.6307 148.211 90.5492 148.187 90.4615C148.162 90.3739 148.155 90.2819 148.164 90.191C149.116 81.5031 154.428 75.9334 161.256 76.5785C167.256 77.1419 171.276 81.959 171.904 89.2147C171.911 89.3058 171.9 89.3974 171.873 89.4841C171.847 89.5709 171.804 89.651 171.748 89.7198C171.692 89.7887 171.624 89.8449 171.548 89.8852C171.472 89.9255 171.389 89.949 171.304 89.9545C171.137 89.9629 170.974 89.9011 170.848 89.7824C170.723 89.6636 170.645 89.4971 170.632 89.3179C170.052 82.7805 166.464 78.4494 161.148 77.9505C156 77.4645 150.428 81.116 149.436 90.3201C149.429 90.4102 149.405 90.4979 149.367 90.5782C149.328 90.6585 149.275 90.7299 149.211 90.7882C149.147 90.8466 149.072 90.8907 148.992 90.9181C148.912 90.9455 148.828 90.9557 148.744 90.948Z" fill="#F0F0F0"/>
<path d="M159.004 103.752C158.054 103.67 157.123 103.42 156.248 103.012C156.166 102.974 156.093 102.917 156.033 102.847C155.973 102.777 155.926 102.694 155.898 102.603C155.869 102.512 155.857 102.416 155.865 102.321C155.872 102.226 155.898 102.133 155.94 102.049C156.015 101.901 156.138 101.788 156.286 101.733C156.434 101.677 156.596 101.682 156.74 101.748C157.574 102.133 158.465 102.354 159.372 102.401C163.288 102.642 167.424 99.6574 167.832 92.449C168.08 88.0061 166.664 84.4191 164.024 82.703C163.887 82.6141 163.787 82.4735 163.741 82.3087C163.696 82.144 163.71 81.9671 163.78 81.8127C163.82 81.7274 163.875 81.6518 163.944 81.5905C164.012 81.5293 164.091 81.4837 164.176 81.4567C164.261 81.4297 164.35 81.4218 164.438 81.4334C164.527 81.4451 164.611 81.4761 164.688 81.5245C167.748 83.5116 169.388 87.5459 169.108 92.5307C168.708 99.481 164.684 104.109 159.296 103.778L159.004 103.752Z" fill="#F0F0F0"/>
<path d="M153.308 99.4639C153.234 99.5175 153.151 99.5542 153.064 99.5717C152.976 99.5893 152.887 99.5873 152.8 99.5659C152.713 99.5446 152.632 99.5042 152.56 99.4474C152.488 99.3907 152.429 99.3187 152.384 99.2359C151.198 96.8656 150.677 94.1764 150.884 91.4942C151.26 84.8406 154.968 80.3117 160.004 80.2343C160.093 80.2323 160.181 80.2501 160.263 80.2865C160.345 80.3229 160.419 80.3772 160.48 80.4458C160.542 80.5145 160.59 80.5961 160.621 80.6855C160.652 80.7749 160.665 80.8702 160.66 80.9654C160.65 81.1375 160.58 81.2992 160.465 81.4187C160.349 81.5381 160.196 81.6066 160.036 81.6106C156.3 81.688 152.548 84.7245 152.164 91.5759C151.97 93.997 152.434 96.4265 153.5 98.5693C153.58 98.718 153.605 98.8939 153.569 99.0615C153.534 99.2291 153.44 99.3759 153.308 99.4725V99.4639Z" fill="#F0F0F0"/>
<path d="M162.052 98.922C161.991 98.7691 161.984 98.5977 162.032 98.4396C162.08 98.2814 162.179 98.1473 162.312 98.0618C163.996 96.9737 165.028 94.6899 165.044 91.933C165.044 89.7266 164.464 87.86 163.368 86.6772C162.942 86.2237 162.435 85.8685 161.877 85.6334C161.319 85.3982 160.723 85.288 160.124 85.3095C158.152 85.3095 156.552 86.4751 155.668 88.5223C155.6 88.6779 155.48 88.8002 155.331 88.8648C155.183 88.9293 155.018 88.9314 154.868 88.8707C154.785 88.8375 154.708 88.786 154.644 88.7195C154.58 88.6531 154.53 88.5731 154.496 88.4846C154.462 88.3961 154.446 88.301 154.448 88.2053C154.45 88.1097 154.47 88.0155 154.508 87.9288C155.604 85.4213 157.656 83.9375 160.108 83.9332C160.876 83.9119 161.64 84.0579 162.354 84.3624C163.069 84.667 163.718 85.1237 164.264 85.7052C165.604 87.1503 166.332 89.3653 166.316 91.9459C166.292 95.1931 165.02 97.9199 162.948 99.2575C162.87 99.3036 162.783 99.3314 162.694 99.3394C162.605 99.3473 162.515 99.335 162.431 99.3034C162.346 99.2718 162.269 99.2215 162.204 99.1559C162.139 99.0902 162.087 99.0105 162.052 98.922Z" fill="#F0F0F0"/>
<path d="M157.444 93.8425C157.359 93.88 157.267 93.8971 157.174 93.8928C157.082 93.8884 156.992 93.8627 156.91 93.8173C156.828 93.772 156.756 93.7081 156.699 93.6301C156.642 93.552 156.601 93.4616 156.58 93.3651C156.536 93.1802 156.504 92.9866 156.476 92.7888C156.112 90.2082 157.4 87.976 159.468 87.576C159.95 87.4634 160.449 87.4737 160.926 87.6058C161.403 87.738 161.845 87.9886 162.216 88.3373C162.286 88.4039 162.34 88.4864 162.376 88.5788C162.412 88.6713 162.428 88.7712 162.423 88.8712C162.418 88.9712 162.392 89.0687 162.347 89.1565C162.303 89.2442 162.24 89.32 162.164 89.3781L162.124 89.4083C162.004 89.4979 161.859 89.5405 161.713 89.5287C161.568 89.517 161.43 89.4517 161.324 89.3437C161.1 89.1401 160.834 88.9952 160.549 88.9206C160.264 88.8459 159.966 88.8436 159.68 88.9136C158.104 89.219 157.504 90.9824 157.728 92.5652C157.752 92.72 157.776 92.8705 157.812 92.9953C157.851 93.1572 157.833 93.3288 157.764 93.4782C157.694 93.6276 157.576 93.7448 157.432 93.8081L157.444 93.8425Z" fill="#F0F0F0"/>
<path d="M159.56 96.4919C159.459 96.4813 159.362 96.4432 159.279 96.3812C159.196 96.3192 159.128 96.2354 159.084 96.1377C159.039 96.0399 159.018 95.9315 159.023 95.8227C159.028 95.7138 159.058 95.6081 159.112 95.5156L159.168 95.4209C159.225 95.3224 159.307 95.2426 159.403 95.1903C159.5 95.138 159.608 95.1151 159.716 95.1242C159.917 95.1366 160.118 95.1235 160.316 95.0855C161.692 94.8188 162.316 93.4425 162.316 92.0404C162.312 91.872 162.365 91.7077 162.465 91.578C162.565 91.4484 162.705 91.362 162.86 91.335C162.949 91.3205 163.039 91.3261 163.126 91.3517C163.213 91.3772 163.293 91.4221 163.363 91.4834C163.432 91.5446 163.489 91.6209 163.529 91.7072C163.569 91.7936 163.592 91.888 163.596 91.9845C163.632 94.2296 162.396 96.0833 160.544 96.4403C160.22 96.5048 159.889 96.5221 159.56 96.4919Z" fill="#F0F0F0"/>
<path d="M159.844 93.9501C159.521 93.9209 159.215 93.7837 158.968 93.5577C158.721 93.3316 158.546 93.0282 158.468 92.69C158.446 92.5945 158.444 92.4947 158.465 92.3987C158.485 92.3027 158.527 92.2134 158.586 92.1381C158.645 92.0629 158.72 92.0038 158.805 91.9659C158.889 91.928 158.981 91.9123 159.072 91.9201H159.22C159.332 91.9327 159.438 91.9801 159.526 92.0565C159.613 92.1328 159.678 92.2349 159.712 92.3502C159.726 92.4101 159.757 92.4639 159.801 92.504C159.844 92.5441 159.899 92.5685 159.956 92.5738C160.264 92.6039 160.316 92.1437 160.324 92.0319C160.343 91.8645 160.313 91.695 160.24 91.5459C160.13 91.4025 160.073 91.2201 160.08 91.0341C160.09 90.8974 160.138 90.7671 160.218 90.6599C160.297 90.5527 160.404 90.4735 160.526 90.4323C160.648 90.3912 160.778 90.3901 160.9 90.4291C161.022 90.4681 161.131 90.5455 161.212 90.6513C161.524 91.0754 161.668 91.6149 161.612 92.1523C161.508 93.2835 160.768 94.0362 159.844 93.9501Z" fill="#F0F0F0"/>
<path d="M147.812 78.5569C147.728 78.5493 147.647 78.524 147.572 78.4825C147.498 78.4409 147.432 78.3839 147.378 78.3147C147.324 78.2456 147.283 78.1656 147.258 78.0795C147.233 77.9933 147.224 77.9027 147.232 77.8128L147.716 71.8474L153.264 72.3721C153.348 72.3797 153.429 72.405 153.504 72.4466C153.578 72.4881 153.644 72.5451 153.698 72.6143C153.752 72.6835 153.793 72.7634 153.818 72.8496C153.843 72.9357 153.852 73.0263 153.844 73.1162C153.837 73.2063 153.813 73.294 153.775 73.3744C153.736 73.4547 153.683 73.526 153.619 73.5844C153.555 73.6427 153.48 73.6868 153.4 73.7142C153.32 73.7416 153.236 73.7518 153.152 73.7441L148.88 73.3398L148.508 77.9333C148.5 78.0234 148.476 78.111 148.437 78.1912C148.398 78.2713 148.345 78.3424 148.28 78.4003C148.216 78.4582 148.141 78.5019 148.061 78.5287C147.98 78.5556 147.896 78.5652 147.812 78.5569Z" fill="#F0F0F0"/>
<path d="M174.184 81.0386C174.1 81.0311 174.019 81.0058 173.944 80.9642C173.87 80.9226 173.804 80.8656 173.75 80.7965C173.696 80.7273 173.655 80.6473 173.63 80.5612C173.605 80.4751 173.596 80.3844 173.604 80.2946L173.976 75.7011L169.704 75.3011C169.62 75.293 169.539 75.2673 169.464 75.2252C169.39 75.1832 169.323 75.1258 169.27 75.0563C169.216 74.9868 169.175 74.9065 169.15 74.8201C169.125 74.7337 169.116 74.6429 169.124 74.5528C169.131 74.4628 169.155 74.3753 169.193 74.2952C169.232 74.2151 169.285 74.144 169.349 74.086C169.414 74.028 169.488 73.9843 169.568 73.9574C169.648 73.9305 169.732 73.9209 169.816 73.9291L175.364 74.4496L174.88 80.4279C174.862 80.6076 174.779 80.7724 174.648 80.8866C174.518 81.0009 174.351 81.0555 174.184 81.0386Z" fill="#F0F0F0"/>
<path d="M172.22 113.115L166.672 112.595C166.588 112.587 166.507 112.561 166.432 112.519C166.358 112.477 166.291 112.419 166.238 112.35C166.184 112.28 166.143 112.2 166.118 112.114C166.093 112.027 166.084 111.936 166.092 111.846C166.099 111.756 166.123 111.669 166.161 111.589C166.2 111.509 166.253 111.438 166.317 111.38C166.382 111.322 166.456 111.278 166.536 111.251C166.616 111.224 166.7 111.214 166.784 111.223L171.056 111.623L171.428 107.034C171.435 106.943 171.459 106.855 171.497 106.774C171.536 106.694 171.59 106.622 171.654 106.564C171.719 106.505 171.794 106.461 171.874 106.434C171.955 106.407 172.04 106.397 172.124 106.406C172.208 106.413 172.289 106.439 172.364 106.48C172.438 106.522 172.504 106.579 172.558 106.648C172.612 106.717 172.653 106.797 172.678 106.883C172.703 106.969 172.712 107.06 172.704 107.15L172.22 113.115Z" fill="#F0F0F0"/>
<path d="M150.12 111.025L144.572 110.5L145.056 104.539C145.072 104.357 145.154 104.189 145.284 104.072C145.415 103.954 145.583 103.897 145.752 103.911C145.836 103.919 145.917 103.945 145.992 103.987C146.066 104.029 146.132 104.086 146.186 104.156C146.24 104.225 146.281 104.306 146.306 104.392C146.331 104.479 146.34 104.569 146.332 104.659L145.96 109.244L150.228 109.649C150.312 109.656 150.393 109.681 150.468 109.723C150.543 109.764 150.609 109.821 150.663 109.89C150.718 109.96 150.759 110.039 150.784 110.126C150.81 110.212 150.819 110.303 150.812 110.393C150.798 110.575 150.717 110.744 150.587 110.862C150.458 110.981 150.29 111.039 150.12 111.025Z" fill="#F0F0F0"/>
<path d="M29.892 98.118C29.7877 98.1264 29.6846 98.0905 29.6046 98.0182C29.5246 97.9459 29.4741 97.8427 29.464 97.7309L29.168 94.0665L32.576 93.7439C32.6802 93.7355 32.7834 93.7713 32.8633 93.8436C32.9433 93.916 32.9938 94.0191 33.004 94.131C33.0107 94.2423 32.9769 94.3521 32.9097 94.4372C32.8426 94.5223 32.7473 94.576 32.644 94.5869L30.02 94.8363L30.248 97.6578C30.2558 97.7692 30.2231 97.8795 30.1566 97.9654C30.0902 98.0513 29.9953 98.106 29.892 98.118Z" fill="#E0E0E0"/>
<path d="M46.108 96.5909C46.0044 96.5994 45.9018 96.5642 45.8219 96.4927C45.742 96.4213 45.6911 96.3192 45.68 96.2081L45.452 93.3824L42.824 93.6319C42.7198 93.6403 42.6166 93.6045 42.5366 93.5321C42.4567 93.4598 42.4062 93.3566 42.396 93.2448C42.3882 93.1327 42.4215 93.0218 42.4888 92.9358C42.5561 92.8498 42.652 92.7955 42.756 92.7846L46.164 92.4663L46.464 96.1307C46.4719 96.2421 46.4391 96.3524 46.3727 96.4383C46.3062 96.5242 46.2113 96.579 46.108 96.5909Z" fill="#E0E0E0"/>
<path d="M47.788 112.38L44.376 112.702C44.2718 112.711 44.1686 112.675 44.0886 112.602C44.0087 112.53 43.9582 112.427 43.948 112.315C43.9402 112.203 43.9735 112.092 44.0408 112.006C44.1081 111.92 44.204 111.866 44.308 111.855L46.932 111.61L46.704 108.788C46.6961 108.677 46.7289 108.567 46.7953 108.481C46.8618 108.395 46.9567 108.34 47.06 108.328C47.1636 108.32 47.2662 108.355 47.3461 108.426C47.426 108.498 47.4769 108.6 47.488 108.711L47.788 112.38Z" fill="#E0E0E0"/>
<path d="M34.196 113.657L30.8 113.975L30.5 110.307C30.4933 110.195 30.5271 110.086 30.5942 110C30.6614 109.915 30.7567 109.862 30.86 109.851C30.9629 109.843 31.0645 109.879 31.1435 109.951C31.2225 110.022 31.2729 110.123 31.284 110.234L31.516 113.059L34.14 112.81C34.2442 112.801 34.3474 112.837 34.4274 112.91C34.5073 112.982 34.5578 113.085 34.568 113.197C34.5718 113.253 34.5652 113.31 34.5485 113.364C34.5319 113.418 34.5055 113.467 34.4709 113.51C34.4364 113.553 34.3943 113.588 34.3471 113.613C34.2999 113.638 34.2486 113.653 34.196 113.657Z" fill="#E0E0E0"/>
<path d="M45.832 36.9883L32.8 38.1926L32.532 34.911C32.5124 33.3448 33.0443 31.8285 34.021 30.6664C34.9977 29.5043 36.3469 28.7822 37.7981 28.6451C39.2492 28.5079 40.6949 28.9658 41.8452 29.927C42.9954 30.8881 43.7652 32.2813 44 33.8271L44.152 35.7368L46.036 35.5604L45.88 33.6508C45.7923 32.5737 45.5081 31.5257 45.0437 30.5667C44.5793 29.6077 43.9438 28.7565 43.1735 28.0615C42.4031 27.3666 41.513 26.8416 40.554 26.5166C39.5949 26.1916 38.5857 26.0728 37.584 26.1671C35.5609 26.3576 33.6911 27.4044 32.3858 29.0773C31.7395 29.9056 31.2513 30.8627 30.949 31.8939C30.6467 32.9251 30.5363 34.0102 30.624 35.0873L30.892 38.3905C30.1499 38.5466 29.4878 38.9923 29.0329 39.6418C28.578 40.2913 28.3626 41.0986 28.428 41.9086L29.36 53.3664C29.3932 53.7988 29.5056 54.22 29.6906 54.6056C29.8757 54.9912 30.1297 55.3337 30.4382 55.6135C30.7467 55.8932 31.1035 56.1047 31.4883 56.2357C31.873 56.3668 32.278 56.4148 32.68 56.3771L47.292 55.0051C47.6942 54.9693 48.0858 54.8485 48.4445 54.6495C48.8031 54.4506 49.1217 54.1774 49.3818 53.8457C49.642 53.514 49.8387 53.1303 49.9605 52.7167C50.0824 52.303 50.1271 51.8675 50.092 51.4353L49.16 39.9775C49.1243 39.5462 49.0099 39.1266 48.8232 38.7429C48.6366 38.3591 48.3815 38.0187 48.0724 37.741C47.7633 37.4634 47.4063 37.254 47.0219 37.1249C46.6374 36.9957 46.2331 36.9493 45.832 36.9883ZM40.288 45.8182L40.608 49.7622C40.6295 49.9209 40.6207 50.0827 40.582 50.2376C40.5434 50.3926 40.4757 50.5374 40.3832 50.6632C40.2907 50.7891 40.1752 50.8932 40.0439 50.9694C39.9126 51.0456 39.7682 51.0921 39.6196 51.1062C39.471 51.1203 39.3213 51.1016 39.1796 51.0513C39.038 51.0009 38.9074 50.9201 38.7958 50.8136C38.6842 50.707 38.5941 50.5772 38.5308 50.4319C38.4676 50.2866 38.4326 50.129 38.428 49.9686L38.108 46.0204C37.778 45.8025 37.5204 45.4782 37.3718 45.0937C37.2232 44.7092 37.1912 44.2841 37.2803 43.8789C37.3695 43.4737 37.5753 43.1091 37.8684 42.837C38.1615 42.5648 38.527 42.3991 38.9128 42.3633C39.2986 42.3275 39.6851 42.4236 40.0172 42.6377C40.3493 42.8518 40.6101 43.1732 40.7625 43.556C40.9148 43.9388 40.951 44.3635 40.8658 44.7697C40.7806 45.1759 40.5784 45.5428 40.288 45.8182Z" fill="#EBEBEB"/>
<path d="M68.176 43.6073L66.86 41.2891C66.1967 41.3907 65.5233 41.3907 64.86 41.2891L63.54 43.5987L63.288 43.5256C62.4326 43.2833 61.6118 42.9173 60.848 42.4375L60.624 42.2999L61.18 39.7881C61.1908 39.7394 61.2105 39.6934 61.2379 39.6529C61.2653 39.6124 61.2999 39.5782 61.3397 39.5522C61.3795 39.5262 61.4237 39.5089 61.4698 39.5014C61.5159 39.4939 61.5628 39.4964 61.608 39.5085C61.6987 39.532 61.777 39.5932 61.8257 39.6786C61.8745 39.7641 61.8897 39.8669 61.868 39.9644L61.428 41.9214C61.9965 42.2543 62.5957 42.5225 63.216 42.7213L64.504 40.459L64.74 40.5021C65.4872 40.6311 66.2488 40.6311 66.996 40.5021L67.228 40.459L68.516 42.7213C69.1369 42.524 69.7363 42.2558 70.304 41.9214L69.732 39.3408L69.924 39.1903C70.4451 38.7862 70.9121 38.3072 71.312 37.7666C71.3676 37.6888 71.4492 37.6372 71.5395 37.6227C71.6298 37.6083 71.7218 37.6321 71.796 37.6892C71.8349 37.7182 71.8679 37.7555 71.893 37.7987C71.918 37.8419 71.9346 37.8901 71.9417 37.9404C71.9488 37.9908 71.9463 38.0421 71.9343 38.0914C71.9223 38.1406 71.9011 38.1867 71.872 38.2268C71.479 38.7606 71.0262 39.2402 70.524 39.6548L71.112 42.2913L70.884 42.4289C70.1213 42.9079 69.3019 43.2739 68.448 43.517L68.176 43.6073ZM60.088 38.558C59.98 38.4247 59.872 38.2828 59.768 38.1279L57.316 38.7602L57.184 38.5193C56.7411 37.6963 56.4009 36.8142 56.172 35.8957L56.108 35.6248L58.256 34.2054C58.1616 33.4922 58.1616 32.7682 58.256 32.055L56.108 30.64L56.172 30.3647C56.4009 29.4476 56.7412 28.5669 57.184 27.7454L57.316 27.5003L59.768 28.1325C60.1774 27.5565 60.6563 27.0416 61.192 26.6014L60.748 24.6057C60.7264 24.5082 60.7416 24.4054 60.7903 24.3199C60.8391 24.2345 60.9174 24.1733 61.008 24.1498C61.0527 24.1383 61.099 24.1365 61.1443 24.1443C61.1897 24.1522 61.2331 24.1696 61.2722 24.1956C61.3112 24.2216 61.3451 24.2556 61.3718 24.2957C61.3986 24.3359 61.4177 24.3813 61.428 24.4294L61.984 26.9153L61.792 27.0616C61.1758 27.5383 60.6354 28.1193 60.192 28.7819L60.052 28.9884L57.652 28.3734C57.341 28.9838 57.0916 29.6283 56.908 30.2959L59.008 31.6808L58.972 31.9302C58.8384 32.7324 58.8384 33.5538 58.972 34.356L59.008 34.6097L56.908 35.9946C57.0923 36.6605 57.3417 37.3035 57.652 37.9129L60.052 37.2978L60.192 37.5043C60.3164 37.6993 60.4499 37.8873 60.592 38.0677C60.6537 38.1373 60.688 38.2297 60.688 38.3258C60.688 38.4218 60.6537 38.5143 60.592 38.5838C60.5579 38.6189 60.5175 38.6462 60.4733 38.664C60.4291 38.6817 60.382 38.6897 60.3349 38.6872C60.2877 38.6848 60.2415 38.6721 60.1991 38.6499C60.1567 38.6277 60.1189 38.5964 60.088 38.558ZM74.384 38.7688L73.48 38.5365C73.3894 38.5131 73.3111 38.4519 73.2623 38.3664C73.2136 38.2809 73.1984 38.1781 73.22 38.0806C73.2419 37.9831 73.2988 37.8989 73.3782 37.8465C73.4577 37.7941 73.5533 37.7778 73.644 37.8011L74.044 37.9C74.3531 37.2905 74.6011 36.6475 74.784 35.9817L72.684 34.5968L72.724 34.3431C72.8576 33.5409 72.8576 32.7195 72.724 31.9173L72.684 31.6679L74.784 30.283C74.6019 29.6156 74.3538 28.971 74.044 28.3604L71.644 28.9755L71.508 28.769C71.0636 28.1074 70.5234 27.5266 69.908 27.0487L69.716 26.9024L70.288 24.3218C69.7202 23.9888 69.1207 23.722 68.5 23.5262L67.2 25.8057L66.968 25.7627C66.2208 25.6336 65.4592 25.6336 64.712 25.7627L64.476 25.8057L63.2 23.5348L62.96 23.6122C62.8746 23.6425 62.7815 23.6356 62.7008 23.593C62.62 23.5503 62.558 23.4754 62.528 23.3842C62.5115 23.3371 62.5039 23.2869 62.5057 23.2366C62.5074 23.1863 62.5185 23.1369 62.5382 23.0912C62.558 23.0455 62.586 23.0046 62.6206 22.9707C62.6553 22.9368 62.6959 22.9107 62.74 22.8939C62.916 22.8337 63.096 22.7778 63.272 22.7262L63.524 22.6531L64.844 24.967C65.5071 24.861 66.181 24.861 66.844 24.967L68.16 22.6531L68.416 22.7262C69.2693 22.9712 70.0885 23.3371 70.852 23.8143L71.08 23.9563L70.492 26.5928C71.0286 27.032 71.5075 27.547 71.916 28.1239L74.368 27.4917L74.5 27.7368C74.9446 28.5574 75.2849 29.4384 75.512 30.3561L75.58 30.6314L73.428 32.0464C73.5277 32.7592 73.5277 33.484 73.428 34.1968L75.58 35.6162L75.512 35.8871C75.2849 36.8062 74.9446 37.6886 74.5 38.5107L74.384 38.7688ZM65.752 36.8161C64.8804 36.779 64.0539 36.3901 63.4371 35.7269C62.8203 35.0637 62.4586 34.1749 62.424 33.2377C62.4002 32.316 62.6983 31.418 63.2594 30.7207C63.8206 30.0234 64.6042 29.5772 65.456 29.4701C65.506 29.4634 65.5567 29.4682 65.6049 29.4841C65.653 29.5001 65.6974 29.5268 65.7352 29.5626C65.773 29.5984 65.8033 29.6423 65.8242 29.6916C65.845 29.7409 65.8559 29.7944 65.856 29.8486C65.8556 29.9401 65.824 30.0282 65.7673 30.0964C65.7105 30.1645 65.6325 30.2079 65.548 30.2185C64.9553 30.2911 64.4011 30.5711 63.9707 31.0152C63.5402 31.4593 63.2573 32.0431 63.1653 32.6769C63.0733 33.3107 63.1773 33.9595 63.4615 34.5235C63.7456 35.0876 64.1941 35.5357 64.738 35.7991C65.282 36.0626 65.8913 36.1267 66.4725 35.9817C67.0536 35.8367 67.5744 35.4905 67.9549 34.9964C68.3353 34.5023 68.5544 33.8876 68.5785 33.2467C68.6025 32.6057 68.4302 31.974 68.088 31.4485C68.0386 31.3741 68.017 31.2824 68.0274 31.1917C68.0377 31.1009 68.0794 31.0176 68.144 30.9582C68.1814 30.9226 68.2253 30.8959 68.273 30.8799C68.3206 30.8639 68.3709 30.859 68.4205 30.8655C68.47 30.872 68.5177 30.8898 68.5604 30.9176C68.6031 30.9455 68.6398 30.9828 68.668 31.027C69.0319 31.5868 69.2438 32.2443 69.2801 32.9261C69.3163 33.6079 69.1755 34.2871 68.8734 34.8877C68.5712 35.4884 68.1196 35.9869 67.5691 36.3274C67.0186 36.668 66.3908 36.8372 65.756 36.8161H65.752Z" fill="#F0F0F0"/>
<path d="M43.324 75.0904L42.472 73.598C42.041 73.6668 41.603 73.6668 41.172 73.598L40.32 75.0904L40.156 75.0431C39.6038 74.8865 39.0737 74.6507 38.58 74.3421L38.436 74.2518L38.796 72.626C38.8103 72.5635 38.8468 72.5096 38.8976 72.4758C38.9485 72.442 39.0097 72.4311 39.068 72.4454C39.0972 72.4529 39.1247 72.4666 39.149 72.4856C39.1732 72.5047 39.1937 72.5286 39.2093 72.5562C39.225 72.5838 39.2353 72.6144 39.2399 72.6463C39.2445 72.6782 39.2432 72.7108 39.236 72.7421L38.956 74.0066C39.323 74.2228 39.7106 74.3958 40.112 74.5227L40.944 73.0647L41.092 73.0905C41.5754 73.1765 42.0686 73.1765 42.552 73.0905L42.7 73.0647L43.536 74.5227C43.9353 74.3931 44.3213 74.2202 44.688 74.0066L44.32 72.3464L44.444 72.2475C44.7803 71.9877 45.0818 71.6795 45.34 71.3314C45.3752 71.2803 45.4277 71.2461 45.4861 71.2365C45.5446 71.2268 45.6042 71.2424 45.652 71.2798C45.6766 71.2986 45.6974 71.3225 45.7133 71.35C45.7293 71.3775 45.74 71.4082 45.7448 71.4402C45.7496 71.4722 45.7485 71.5049 45.7415 71.5364C45.7345 71.5679 45.7218 71.5977 45.704 71.6239C45.4492 71.9689 45.1564 72.2794 44.832 72.5486L45.232 74.269L45.084 74.3593C44.5906 74.6686 44.0604 74.9044 43.508 75.0603L43.324 75.0904ZM38.1 71.826L37.892 71.5551L36.292 71.9593L36.208 71.8045C35.9262 71.2714 35.7123 70.7 35.572 70.1056L35.528 69.9293L36.916 69.0132C36.852 68.5498 36.852 68.0788 36.916 67.6154L35.528 66.6993L35.572 66.5229C35.717 65.9289 35.9363 65.3589 36.224 64.8284L36.308 64.6692L37.908 65.0993C38.1653 64.7227 38.4649 64.3818 38.8 64.0843L38.516 62.794C38.5089 62.7629 38.5076 62.7306 38.5122 62.699C38.5169 62.6674 38.5273 62.6371 38.5429 62.6099C38.5586 62.5826 38.5791 62.559 38.6033 62.5404C38.6276 62.5218 38.655 62.5086 38.684 62.5015C38.7423 62.4873 38.8035 62.4982 38.8544 62.532C38.9053 62.5658 38.9418 62.6197 38.956 62.6822L39.316 64.2864L39.188 64.3854C38.7916 64.6911 38.4444 65.0645 38.16 65.4907L38.068 65.624L36.524 65.2283C36.3254 65.6227 36.1646 66.0377 36.044 66.467L37.4 67.3616L37.376 67.5251C37.3348 67.7837 37.3134 68.0455 37.312 68.3078C37.3133 68.5716 37.3347 68.8349 37.376 69.0949L37.4 69.254L36.044 70.1486C36.1638 70.5796 36.3246 70.9962 36.524 71.3916L38.068 70.9916L38.16 71.125C38.2427 71.2523 38.3321 71.3744 38.428 71.4905C38.4674 71.5353 38.4893 71.5945 38.4893 71.6561C38.4893 71.7177 38.4674 71.777 38.428 71.8217C38.4073 71.8462 38.3822 71.8659 38.3541 71.8795C38.326 71.893 38.2957 71.9003 38.2649 71.9007C38.2341 71.9011 38.2036 71.8946 38.1752 71.8818C38.1469 71.869 38.1213 71.85 38.1 71.826ZM47.336 71.9593L46.752 71.8131C46.7228 71.8055 46.6953 71.7919 46.6711 71.7728C46.6468 71.7538 46.6263 71.7298 46.6107 71.7022C46.5951 71.6747 46.5847 71.6441 46.5801 71.6122C46.5755 71.5803 46.5769 71.5477 46.584 71.5163C46.5906 71.4851 46.6029 71.4556 46.6202 71.4296C46.6375 71.4036 46.6594 71.3815 46.6848 71.3647C46.7101 71.3478 46.7383 71.3366 46.7677 71.3316C46.7971 71.3267 46.8271 71.3281 46.856 71.3357L47.108 71.4002C47.309 71.0056 47.47 70.5889 47.588 70.1572L46.232 69.2626L46.256 69.1035C46.2973 68.8435 46.3187 68.5802 46.32 68.3164C46.3187 68.0541 46.2973 67.7923 46.256 67.5337L46.232 67.3702L47.588 66.4756C47.4692 66.0456 47.3083 65.6304 47.108 65.2369L45.564 65.6326L45.472 65.4993C45.1877 65.0731 44.8404 64.6997 44.444 64.394L44.32 64.295L44.688 62.6349C44.3221 62.4195 43.9359 62.2465 43.536 62.1187L42.7 63.5768L42.552 63.551C42.0686 63.465 41.5754 63.465 41.092 63.551L40.944 63.5768L40.112 62.1187L39.956 62.1704C39.9003 62.1896 39.8398 62.1845 39.7875 62.1564C39.7352 62.1283 39.6952 62.0793 39.676 62.0198C39.6652 61.9897 39.6602 61.9575 39.6613 61.9252C39.6623 61.8929 39.6694 61.8611 39.6821 61.8318C39.6948 61.8025 39.7128 61.7763 39.7351 61.7546C39.7575 61.733 39.7836 61.7164 39.812 61.7059L40.156 61.594L40.32 61.551L41.172 63.0435C41.603 62.9746 42.041 62.9746 42.472 63.0435L43.324 61.551L43.488 61.594C44.04 61.7533 44.57 61.9905 45.064 62.2994L45.212 62.3897L44.812 64.1101C45.1564 64.3966 45.4656 64.729 45.732 65.0993L47.332 64.6692L47.416 64.8284C47.7037 65.3589 47.923 65.9289 48.068 66.5229L48.112 66.6993L46.724 67.6154C46.788 68.0788 46.788 68.5498 46.724 69.0132L48.112 69.9293L48.068 70.1056C47.9223 70.6994 47.703 71.2693 47.416 71.8002L47.336 71.9593ZM41.76 70.6992C41.2165 70.6591 40.7057 70.4051 40.3253 69.9858C39.9449 69.5664 39.7215 69.0111 39.6978 68.4259C39.674 67.8407 39.8516 67.2665 40.1966 66.8132C40.5416 66.3598 41.0298 66.059 41.568 65.9681C41.6001 65.9645 41.6325 65.9682 41.6632 65.9788C41.6939 65.9895 41.7222 66.0069 41.7463 66.0299C41.7704 66.053 41.7898 66.0812 41.8031 66.1128C41.8165 66.1444 41.8236 66.1786 41.824 66.2133C41.8243 66.2729 41.8041 66.3306 41.7671 66.3751C41.7302 66.4196 41.6792 66.4477 41.624 66.4541C41.2866 66.4956 40.9676 66.6412 40.7054 66.8732C40.4432 67.1053 40.2491 67.414 40.1464 67.762C40.0437 68.1101 40.0369 68.4826 40.1267 68.8348C40.2165 69.1869 40.3991 69.5036 40.6526 69.7466C40.906 69.9897 41.2194 70.1487 41.555 70.2045C41.8906 70.2603 42.2341 70.2105 42.544 70.0611C42.8538 69.9118 43.1169 69.6692 43.3015 69.3627C43.486 69.0562 43.5841 68.6988 43.584 68.3336C43.5848 67.9454 43.4729 67.5665 43.264 67.2498C43.2335 67.2009 43.2203 67.1419 43.2269 67.0835C43.2335 67.025 43.2595 66.9711 43.3 66.9315C43.3241 66.9082 43.3525 66.8907 43.3834 66.8802C43.4143 66.8697 43.4469 66.8663 43.4791 66.8704C43.5112 66.8745 43.5422 66.8858 43.57 66.9038C43.5977 66.9218 43.6216 66.9459 43.64 66.9745C43.874 67.3364 44.01 67.761 44.033 68.201C44.0559 68.641 43.9649 69.0793 43.7701 69.4671C43.5753 69.8548 43.2843 70.1769 42.9294 70.3974C42.5745 70.618 42.1697 70.7284 41.76 70.7164V70.6992Z" fill="#E6E6E6"/>
<path d="M100 160C142.833 160 177.556 157.82 177.556 155.131C177.556 152.442 142.833 150.263 100 150.263C57.167 150.263 22.444 152.442 22.444 155.131C22.444 157.82 57.167 160 100 160Z" fill="#F5F5F5"/>
<path d="M145.38 39.0656H132.356L123.156 152.288H136.18C138.008 152.25 139.76 151.495 141.105 150.164C142.451 148.833 143.297 147.018 143.484 145.063L151.52 46.2869C151.613 45.3666 151.523 44.4355 151.256 43.5555C150.988 42.6756 150.549 41.867 149.968 41.1838C149.387 40.5005 148.678 39.9582 147.886 39.593C147.095 39.2277 146.241 39.048 145.38 39.0656Z" fill="#355B5E"/>
<path d="M142.724 39.0656H98.644C96.816 39.1024 95.0636 39.8571 93.7174 41.1874C92.3712 42.5176 91.5242 44.3315 91.336 46.2869L83.3 145.063C83.2074 145.982 83.2978 146.913 83.5651 147.792C83.8324 148.671 84.2705 149.479 84.8504 150.163C85.4303 150.846 86.1387 151.389 86.9286 151.755C87.7185 152.122 88.5718 152.303 89.432 152.288H133.508C135.334 152.246 137.082 151.489 138.425 150.158C139.768 148.828 140.612 147.016 140.8 145.063L148.836 46.2869C148.929 45.3692 148.84 44.4406 148.574 43.5628C148.308 42.685 147.871 41.878 147.294 41.1952C146.716 40.5124 146.009 39.9695 145.222 39.6024C144.434 39.2352 143.582 39.0523 142.724 39.0656Z" fill="#355B5E"/>
<path opacity="0.3" d="M142.724 39.0656H98.644C96.816 39.1024 95.0636 39.8571 93.7174 41.1874C92.3712 42.5176 91.5242 44.3315 91.336 46.2869L83.3 145.063C83.2074 145.982 83.2978 146.913 83.5651 147.792C83.8324 148.671 84.2705 149.479 84.8504 150.163C85.4303 150.846 86.1387 151.389 86.9286 151.755C87.7185 152.122 88.5718 152.303 89.432 152.288H133.508C135.334 152.246 137.082 151.489 138.425 150.158C139.768 148.828 140.612 147.016 140.8 145.063L148.836 46.2869C148.929 45.3692 148.84 44.4406 148.574 43.5628C148.308 42.685 147.871 41.878 147.294 41.1952C146.716 40.5124 146.009 39.9695 145.222 39.6024C144.434 39.2352 143.582 39.0523 142.724 39.0656Z" fill="white"/>
<path opacity="0.4" d="M142.536 41.3794H130.912C130.565 41.3824 130.228 41.4972 129.943 41.7088C129.657 41.9204 129.438 42.2192 129.312 42.5664C128.854 43.842 128.052 44.9418 127.01 45.7255C125.967 46.5092 124.732 46.9412 123.46 46.9663H116.604C115.406 46.9923 114.238 46.5684 113.3 45.7676C112.361 44.9668 111.712 43.8394 111.464 42.5793C111.398 42.2384 111.223 41.9331 110.969 41.7164C110.716 41.4996 110.4 41.3849 110.076 41.3923H98.456C97.2136 41.4159 96.0223 41.9283 95.1076 42.8327C94.1928 43.737 93.6181 44.9704 93.492 46.2997L85.452 145.075C85.3877 145.701 85.4481 146.334 85.6292 146.932C85.8104 147.531 86.1081 148.08 86.5025 148.545C86.897 149.01 87.3791 149.379 87.9166 149.628C88.4542 149.876 89.0349 149.999 89.62 149.987H133.7C134.943 149.963 136.134 149.449 137.049 148.544C137.963 147.639 138.538 146.405 138.664 145.075L146.7 46.2997C146.766 45.6739 146.706 45.0404 146.526 44.4413C146.345 43.8423 146.048 43.2915 145.654 42.8257C145.26 42.36 144.778 41.9901 144.24 41.7407C143.703 41.4913 143.122 41.3681 142.536 41.3794Z" fill="#355B5E"/>
<path d="M131.552 95.0511H100.704C100.492 95.0548 100.282 95.01 100.087 94.9198C99.8922 94.8295 99.7176 94.6957 99.5746 94.5273C99.4317 94.359 99.3236 94.1598 99.2576 93.9431C99.1917 93.7264 99.1693 93.4971 99.192 93.2705L99.348 91.3694C99.3939 90.8874 99.6023 90.4401 99.9339 90.1121C100.266 89.784 100.697 89.5979 101.148 89.5888H132C132.212 89.5851 132.422 89.6299 132.617 89.7201C132.812 89.8104 132.986 89.9442 133.129 90.1126C133.272 90.281 133.38 90.4801 133.446 90.6968C133.512 90.9135 133.535 91.1428 133.512 91.3694L133.36 93.2705C133.313 93.7536 133.103 94.2015 132.77 94.5296C132.437 94.8577 132.004 95.0432 131.552 95.0511Z" fill="white"/>
<path d="M130.888 103.223H100.036C99.8241 103.227 99.6139 103.182 99.4194 103.092C99.2249 103.001 99.0504 102.868 98.9078 102.699C98.7651 102.531 98.6574 102.331 98.592 102.115C98.5265 101.898 98.5047 101.669 98.528 101.442L98.68 99.5413C98.7267 99.0597 98.9354 98.6129 99.2668 98.285C99.5983 97.9571 100.03 97.7707 100.48 97.7607H131.332C131.544 97.757 131.754 97.8017 131.949 97.892C132.144 97.9823 132.318 98.1161 132.461 98.2845C132.604 98.4528 132.712 98.652 132.778 98.8687C132.844 99.0853 132.867 99.3146 132.844 99.5413L132.688 101.442C132.641 101.924 132.433 102.371 132.101 102.699C131.77 103.027 131.338 103.213 130.888 103.223Z" fill="white"/>
<path opacity="0.1" d="M122.18 43.2288C122.129 43.7641 121.898 44.2607 121.529 44.6245C121.16 44.9883 120.68 45.1942 120.18 45.203C119.945 45.2075 119.712 45.1582 119.495 45.0582C119.279 44.9582 119.086 44.8099 118.927 44.6231C118.769 44.4364 118.649 44.2154 118.576 43.975C118.503 43.7346 118.478 43.4802 118.504 43.2288C118.555 42.6936 118.787 42.197 119.155 41.8331C119.524 41.4693 120.004 41.2635 120.504 41.2547C120.739 41.2501 120.973 41.2995 121.189 41.3995C121.405 41.4994 121.598 41.6478 121.757 41.8345C121.915 42.0213 122.035 42.2422 122.108 42.4827C122.181 42.7231 122.206 42.9774 122.18 43.2288Z" fill="black"/>
<path opacity="0.1" d="M121.348 43.2288C121.32 43.521 121.193 43.792 120.992 43.9908C120.791 44.1897 120.529 44.3026 120.256 44.3084C120.127 44.311 120 44.2842 119.882 44.2296C119.763 44.1749 119.657 44.0938 119.571 43.9916C119.484 43.8895 119.419 43.7686 119.379 43.637C119.339 43.5054 119.326 43.3663 119.34 43.2288C119.367 42.9363 119.494 42.6647 119.695 42.4657C119.896 42.2667 120.159 42.1541 120.432 42.1493C120.56 42.1473 120.688 42.1746 120.806 42.2295C120.924 42.2843 121.029 42.3654 121.116 42.4675C121.202 42.5695 121.268 42.6901 121.308 42.8214C121.348 42.9526 121.362 43.0915 121.348 43.2288Z" fill="black"/>
<g opacity="0.8">
<path d="M137.108 46.5234C137.039 46.5244 136.971 46.5097 136.907 46.4802C136.844 46.4506 136.787 46.407 136.74 46.3521C136.694 46.2972 136.659 46.2324 136.637 46.1618C136.616 46.0912 136.609 46.0166 136.616 45.9428L136.704 44.8847C136.719 44.7284 136.786 44.5833 136.894 44.477C137.002 44.3708 137.142 44.3108 137.288 44.3084C137.357 44.3074 137.425 44.3221 137.488 44.3513C137.551 44.3806 137.607 44.4238 137.654 44.4782C137.7 44.5326 137.736 44.597 137.757 44.667C137.779 44.7371 137.787 44.8112 137.78 44.8847L137.692 45.9428C137.677 46.0995 137.61 46.2451 137.502 46.3521C137.395 46.459 137.254 46.52 137.108 46.5234Z" fill="white"/>
<path d="M141.412 46.5234C141.343 46.5244 141.275 46.5097 141.211 46.4802C141.148 46.4507 141.091 46.407 141.045 46.3521C140.998 46.2973 140.963 46.2324 140.941 46.1618C140.92 46.0913 140.913 46.0166 140.92 45.9428L141.124 43.4611C141.139 43.3048 141.206 43.1597 141.314 43.0534C141.422 42.9472 141.562 42.8872 141.708 42.8848C141.777 42.8838 141.845 42.8985 141.908 42.9277C141.971 42.957 142.027 43.0003 142.074 43.0547C142.12 43.1091 142.156 43.1734 142.177 43.2434C142.199 43.3135 142.207 43.3877 142.2 43.4611L141.996 45.9428C141.981 46.0996 141.914 46.2451 141.806 46.3521C141.699 46.4591 141.559 46.52 141.412 46.5234Z" fill="white"/>
<path d="M139.26 46.5232C139.191 46.5243 139.123 46.5096 139.059 46.48C138.996 46.4505 138.939 46.4069 138.893 46.352C138.846 46.2971 138.811 46.2322 138.789 46.1617C138.768 46.0911 138.761 46.0164 138.768 45.9426L138.912 44.1749C138.927 44.0174 138.995 43.8713 139.103 43.7642C139.212 43.6571 139.353 43.5967 139.5 43.5943C139.569 43.5932 139.637 43.6079 139.7 43.6375C139.764 43.667 139.82 43.7108 139.866 43.7657C139.913 43.8207 139.947 43.8856 139.968 43.9562C139.989 44.0268 139.996 44.1013 139.988 44.1749L139.844 45.9426C139.829 46.0994 139.762 46.245 139.654 46.3519C139.547 46.4589 139.407 46.5198 139.26 46.5232Z" fill="white"/>
</g>
<g opacity="0.8">
<path d="M100.256 46.5234H97.552C97.5131 46.5243 97.4744 46.5162 97.4387 46.4997C97.4029 46.4832 97.3709 46.4586 97.3447 46.4276C97.3186 46.3966 97.2989 46.36 97.287 46.3201C97.2752 46.2802 97.2714 46.2381 97.276 46.1965L97.4 44.6353C97.4088 44.5467 97.4473 44.4645 97.5085 44.4043C97.5696 44.3441 97.6491 44.31 97.732 44.3084H100.436C100.475 44.3075 100.514 44.3156 100.549 44.3321C100.585 44.3487 100.617 44.3732 100.643 44.4042C100.669 44.4352 100.689 44.4719 100.701 44.5117C100.713 44.5516 100.717 44.5937 100.712 44.6353L100.584 46.1965C100.577 46.2852 100.54 46.3678 100.479 46.4283C100.418 46.4887 100.339 46.5227 100.256 46.5234Z" fill="white"/>
<path d="M101.508 46.0978C101.469 46.0986 101.43 46.0905 101.394 46.074C101.358 46.0575 101.326 46.033 101.3 46.0021C101.273 45.9712 101.253 45.9346 101.241 45.8948C101.228 45.8549 101.224 45.8127 101.228 45.7709L101.288 45.0569C101.296 44.9679 101.334 44.8852 101.396 44.8249C101.457 44.7645 101.537 44.7307 101.62 44.73C101.659 44.7291 101.698 44.7372 101.733 44.7538C101.769 44.7703 101.801 44.7949 101.827 44.8259C101.853 44.8568 101.873 44.8935 101.885 44.9334C101.897 44.9732 101.901 45.0154 101.896 45.0569L101.84 45.7709C101.831 45.8595 101.793 45.9417 101.732 46.0019C101.67 46.0621 101.591 46.0962 101.508 46.0978Z" fill="white"/>
</g>
<path d="M126.469 82.5486C131.852 77.0082 132.388 68.2186 127.668 62.9166C122.948 57.6145 114.757 57.8078 109.375 63.3483C103.992 68.8887 103.455 77.6783 108.176 82.9803C112.896 88.2824 121.086 88.0891 126.469 82.5486Z" fill="white"/>
<path d="M117.968 72.4194C114.576 72.4194 111.708 73.8086 111.464 76.8236L111.192 80.1741H123.484L123.756 76.8236C124 73.8086 121.364 72.4194 117.968 72.4194Z" fill="#355B5E"/>
<path d="M118.08 71.0389C119.656 71.0389 120.384 69.6669 120.52 67.9723C120.656 66.2778 120.156 64.9058 118.58 64.9058C117.004 64.9058 116.28 66.2821 116.14 67.9723C116 69.6626 116.504 71.0389 118.08 71.0389Z" fill="#355B5E"/>
<path d="M130.144 92.2039C129.308 92.2039 128.6 92.5479 128.544 93.292L128.476 94.1221H131.512L131.58 93.292C131.636 92.5479 130.984 92.2039 130.144 92.2039Z" fill="#355B5E"/>
<path d="M130.172 91.864C130.572 91.864 130.74 91.5243 130.776 91.1071C130.812 90.6899 130.684 90.3501 130.296 90.3501C129.908 90.3501 129.728 90.6899 129.692 91.1071C129.656 91.5243 129.784 91.864 130.172 91.864Z" fill="#355B5E"/>
<path d="M120.8 111.395H108.8C108.475 111.401 108.152 111.333 107.853 111.194C107.554 111.056 107.286 110.851 107.066 110.593C106.847 110.334 106.681 110.029 106.58 109.696C106.479 109.363 106.445 109.011 106.48 108.664C106.551 107.924 106.872 107.238 107.381 106.735C107.89 106.232 108.553 105.946 109.244 105.932H121.244C121.569 105.927 121.892 105.996 122.19 106.134C122.489 106.273 122.757 106.478 122.976 106.736C123.196 106.994 123.361 107.3 123.463 107.632C123.564 107.964 123.599 108.316 123.564 108.664C123.494 109.403 123.174 110.09 122.664 110.593C122.155 111.097 121.492 111.382 120.8 111.395Z" fill="#355B5E"/>
<path d="M119.348 141.854H106.504C106.159 141.864 105.817 141.794 105.5 141.649C105.183 141.504 104.898 141.287 104.666 141.014C104.434 140.74 104.259 140.415 104.154 140.062C104.048 139.709 104.015 139.336 104.056 138.968L104.876 128.895C104.949 128.114 105.287 127.389 105.824 126.857C106.362 126.325 107.062 126.023 107.792 126.009H120.64C120.984 126.003 121.325 126.075 121.64 126.221C121.956 126.368 122.239 126.585 122.471 126.858C122.702 127.131 122.877 127.454 122.983 127.805C123.09 128.156 123.126 128.528 123.088 128.895L122.268 138.968C122.193 139.75 121.855 140.475 121.317 141.006C120.779 141.538 120.079 141.839 119.348 141.854Z" fill="#355B5E"/>
<g opacity="0.6">
<path d="M115.388 131.437C115.409 131.217 115.386 130.995 115.322 130.786C115.257 130.576 115.151 130.383 115.012 130.221C114.873 130.058 114.703 129.929 114.514 129.842C114.325 129.755 114.122 129.713 113.916 129.717C113.478 129.724 113.058 129.902 112.735 130.219C112.411 130.536 112.207 130.969 112.16 131.437C112.135 131.699 112.171 131.963 112.265 132.206C112.359 132.449 112.509 132.662 112.7 132.826L112.42 136.297C112.406 136.429 112.419 136.562 112.457 136.688C112.495 136.814 112.557 136.929 112.64 137.027C112.723 137.125 112.825 137.202 112.938 137.254C113.051 137.307 113.173 137.332 113.296 137.33C113.557 137.324 113.806 137.215 113.998 137.025C114.189 136.835 114.31 136.576 114.336 136.297L114.62 132.826C114.834 132.669 115.014 132.463 115.147 132.223C115.279 131.983 115.362 131.715 115.388 131.437Z" fill="white"/>
</g>
<path d="M120.752 128.108H119.096L119.496 123.124C119.566 122.432 119.498 121.732 119.297 121.07C119.096 120.409 118.767 119.801 118.331 119.287C117.894 118.773 117.362 118.364 116.767 118.088C116.173 117.812 115.531 117.676 114.884 117.687C113.509 117.716 112.191 118.285 111.178 119.286C110.166 120.287 109.529 121.652 109.388 123.124L108.988 128.108H107.332L107.732 123.124C107.918 121.171 108.763 119.36 110.106 118.031C111.45 116.702 113.199 115.948 115.024 115.911C115.883 115.895 116.735 116.076 117.524 116.442C118.313 116.807 119.021 117.349 119.6 118.031C120.179 118.713 120.617 119.52 120.884 120.398C121.15 121.276 121.241 122.205 121.148 123.124L120.752 128.108Z" fill="#355B5E"/>
<path d="M130.348 99.8381L130.4 99.3521C130.411 99.2395 130.399 99.1257 130.366 99.0181C130.333 98.9106 130.279 98.8118 130.208 98.7282C130.137 98.6445 130.051 98.578 129.954 98.5328C129.858 98.4876 129.753 98.4649 129.648 98.4661C129.424 98.4711 129.209 98.5639 129.044 98.727C128.879 98.8901 128.775 99.1124 128.752 99.3521L128.712 99.8295C128.622 99.8322 128.537 99.8699 128.471 99.9357C128.406 100.001 128.365 100.091 128.356 100.186L128.252 101.477C128.247 101.522 128.251 101.568 128.264 101.611C128.276 101.654 128.298 101.694 128.326 101.728C128.355 101.761 128.39 101.788 128.429 101.805C128.468 101.823 128.51 101.831 128.552 101.829H130.2C130.289 101.828 130.375 101.791 130.44 101.726C130.506 101.661 130.547 101.572 130.556 101.477L130.66 100.186C130.663 100.141 130.658 100.095 130.644 100.052C130.629 100.009 130.607 99.9696 130.577 99.9366C130.548 99.9037 130.512 99.8779 130.472 99.8609C130.433 99.8439 130.391 99.8361 130.348 99.8381ZM129.6 98.6941C129.679 98.693 129.758 98.71 129.831 98.7439C129.904 98.7778 129.969 98.8279 130.023 98.8908C130.076 98.9537 130.117 99.0281 130.142 99.1091C130.167 99.19 130.176 99.2758 130.168 99.3607L130.128 99.8381H128.888L128.928 99.3607C128.945 99.1807 129.023 99.0138 129.147 98.891C129.271 98.7683 129.432 98.6983 129.6 98.6941Z" fill="#355B5E"/>
<path d="M105.54 100.35L104.964 100.221C104.948 100.217 104.933 100.21 104.92 100.199C104.907 100.189 104.896 100.175 104.889 100.159C104.882 100.143 104.878 100.126 104.878 100.108C104.877 100.091 104.881 100.073 104.888 100.057L105.128 99.4467C105.138 99.4204 105.139 99.391 105.131 99.364C105.122 99.3369 105.106 99.3138 105.083 99.2989C105.061 99.2839 105.034 99.278 105.008 99.2823C104.981 99.2865 104.957 99.3006 104.94 99.322L104.504 99.8037C104.494 99.818 104.48 99.8296 104.465 99.8376C104.45 99.8455 104.433 99.8497 104.416 99.8497C104.399 99.8497 104.382 99.8455 104.367 99.8376C104.352 99.8296 104.338 99.818 104.328 99.8037L103.972 99.322C103.896 99.2188 103.732 99.322 103.76 99.4467L103.9 100.057C103.904 100.075 103.905 100.094 103.902 100.112C103.899 100.13 103.893 100.147 103.883 100.163C103.874 100.178 103.862 100.191 103.847 100.201C103.833 100.211 103.817 100.218 103.8 100.221L103.204 100.35C103.076 100.376 103.06 100.569 103.184 100.595L103.76 100.724C103.776 100.727 103.791 100.735 103.804 100.746C103.817 100.756 103.828 100.77 103.835 100.786C103.842 100.802 103.845 100.82 103.845 100.837C103.844 100.855 103.84 100.872 103.832 100.888L103.6 101.503C103.59 101.529 103.589 101.558 103.597 101.585C103.605 101.612 103.622 101.636 103.645 101.65C103.667 101.665 103.694 101.671 103.72 101.667C103.747 101.663 103.771 101.649 103.788 101.627L104.224 101.146C104.235 101.133 104.249 101.122 104.264 101.115C104.279 101.108 104.295 101.104 104.312 101.104C104.329 101.104 104.345 101.108 104.36 101.115C104.375 101.122 104.389 101.133 104.4 101.146L104.756 101.627C104.832 101.731 104.996 101.627 104.964 101.503L104.824 100.892C104.818 100.855 104.826 100.818 104.845 100.787C104.865 100.757 104.894 100.736 104.928 100.728L105.524 100.599C105.648 100.569 105.664 100.376 105.54 100.35Z" fill="#263238"/>
<path d="M109.324 100.35L108.748 100.221C108.732 100.217 108.717 100.21 108.704 100.199C108.691 100.189 108.68 100.175 108.673 100.159C108.666 100.143 108.662 100.126 108.662 100.108C108.661 100.091 108.665 100.073 108.672 100.057L108.912 99.4467C108.922 99.4204 108.923 99.391 108.915 99.364C108.906 99.3369 108.89 99.3138 108.867 99.2989C108.845 99.2839 108.818 99.278 108.792 99.2823C108.765 99.2865 108.741 99.3006 108.724 99.322L108.288 99.8037C108.277 99.818 108.264 99.8296 108.249 99.8376C108.234 99.8455 108.217 99.8497 108.2 99.8497C108.183 99.8497 108.166 99.8455 108.151 99.8376C108.136 99.8296 108.122 99.818 108.112 99.8037L107.756 99.322C107.68 99.2188 107.516 99.322 107.548 99.4467L107.688 100.057C107.691 100.076 107.691 100.094 107.688 100.112C107.685 100.13 107.678 100.148 107.668 100.163C107.659 100.178 107.646 100.191 107.632 100.201C107.617 100.211 107.601 100.218 107.584 100.221L106.988 100.35C106.86 100.376 106.844 100.569 106.968 100.595L107.544 100.724C107.56 100.728 107.575 100.735 107.588 100.746C107.601 100.756 107.612 100.77 107.619 100.786C107.626 100.802 107.63 100.819 107.63 100.837C107.631 100.854 107.627 100.872 107.62 100.888L107.38 101.498C107.37 101.525 107.369 101.554 107.377 101.581C107.385 101.608 107.402 101.631 107.425 101.646C107.447 101.661 107.474 101.667 107.5 101.663C107.527 101.659 107.551 101.644 107.568 101.623L108.004 101.141C108.015 101.128 108.029 101.118 108.044 101.111C108.059 101.104 108.075 101.1 108.092 101.1C108.109 101.1 108.125 101.104 108.14 101.111C108.155 101.118 108.169 101.128 108.18 101.141L108.536 101.623C108.612 101.726 108.776 101.623 108.748 101.498L108.608 100.888C108.604 100.87 108.604 100.851 108.607 100.834C108.611 100.816 108.617 100.799 108.626 100.783C108.636 100.768 108.648 100.755 108.662 100.745C108.676 100.735 108.691 100.728 108.708 100.724L109.304 100.595C109.432 100.569 109.448 100.376 109.324 100.35Z" fill="#263238"/>
<path d="M113.108 100.35L112.536 100.221C112.52 100.218 112.504 100.211 112.49 100.201C112.477 100.19 112.466 100.176 112.459 100.16C112.451 100.144 112.447 100.127 112.448 100.109C112.448 100.091 112.452 100.073 112.46 100.057L112.7 99.4466C112.715 99.4193 112.72 99.3864 112.713 99.3554C112.706 99.3243 112.687 99.2976 112.662 99.281C112.637 99.2645 112.606 99.2595 112.577 99.2672C112.548 99.2748 112.523 99.2945 112.508 99.3219L112.076 99.8036C112.065 99.818 112.051 99.8296 112.036 99.8376C112.02 99.8455 112.003 99.8497 111.986 99.8497C111.969 99.8497 111.952 99.8455 111.936 99.8376C111.921 99.8296 111.907 99.818 111.896 99.8036L111.54 99.3219C111.464 99.2187 111.3 99.3219 111.332 99.4466L111.472 100.057C111.475 100.075 111.476 100.094 111.473 100.111C111.469 100.129 111.463 100.146 111.454 100.162C111.444 100.177 111.432 100.19 111.418 100.2C111.404 100.21 111.389 100.217 111.372 100.221L110.776 100.35C110.648 100.376 110.632 100.569 110.756 100.595L111.328 100.724C111.344 100.728 111.359 100.735 111.372 100.746C111.385 100.756 111.396 100.77 111.403 100.786C111.41 100.802 111.414 100.819 111.414 100.837C111.415 100.854 111.411 100.872 111.404 100.887L111.164 101.498C111.149 101.526 111.144 101.558 111.151 101.589C111.158 101.621 111.177 101.647 111.202 101.664C111.227 101.68 111.258 101.685 111.287 101.678C111.316 101.67 111.341 101.65 111.356 101.623L111.788 101.141C111.799 101.128 111.813 101.118 111.828 101.111C111.843 101.104 111.859 101.1 111.876 101.1C111.893 101.1 111.909 101.104 111.924 101.111C111.939 101.118 111.953 101.128 111.964 101.141L112.324 101.623C112.4 101.726 112.564 101.623 112.532 101.498L112.392 100.887C112.386 100.852 112.393 100.815 112.412 100.784C112.43 100.754 112.459 100.732 112.492 100.724L113.088 100.595C113.2 100.569 113.232 100.376 113.108 100.35Z" fill="#263238"/>
<path d="M116.896 100.35L116.32 100.221C116.304 100.217 116.289 100.21 116.276 100.199C116.263 100.189 116.252 100.175 116.245 100.159C116.238 100.143 116.234 100.126 116.234 100.108C116.233 100.091 116.237 100.073 116.244 100.057L116.484 99.4467C116.494 99.4204 116.495 99.391 116.487 99.364C116.478 99.3369 116.462 99.3138 116.439 99.2989C116.417 99.2839 116.39 99.278 116.364 99.2823C116.337 99.2865 116.313 99.3006 116.296 99.322L115.86 99.8037C115.849 99.818 115.836 99.8296 115.821 99.8376C115.806 99.8455 115.789 99.8497 115.772 99.8497C115.755 99.8497 115.738 99.8455 115.723 99.8376C115.708 99.8296 115.694 99.818 115.684 99.8037L115.328 99.322C115.252 99.2188 115.088 99.322 115.116 99.4467L115.256 100.057C115.26 100.075 115.261 100.094 115.258 100.112C115.255 100.13 115.249 100.147 115.239 100.163C115.23 100.178 115.218 100.191 115.203 100.201C115.189 100.211 115.173 100.218 115.156 100.221L114.56 100.35C114.432 100.376 114.416 100.569 114.56 100.595L115.136 100.724C115.152 100.727 115.167 100.735 115.18 100.746C115.193 100.756 115.204 100.77 115.211 100.786C115.218 100.802 115.221 100.82 115.221 100.837C115.22 100.855 115.216 100.872 115.208 100.888L114.972 101.498C114.962 101.525 114.961 101.554 114.969 101.581C114.977 101.608 114.994 101.631 115.017 101.646C115.039 101.661 115.066 101.667 115.092 101.663C115.119 101.659 115.143 101.644 115.16 101.623L115.596 101.141C115.607 101.128 115.621 101.118 115.636 101.111C115.651 101.104 115.667 101.1 115.684 101.1C115.7 101.1 115.717 101.104 115.732 101.111C115.747 101.118 115.761 101.128 115.772 101.141L116.128 101.623C116.204 101.726 116.368 101.623 116.336 101.498L116.196 100.888C116.19 100.851 116.198 100.814 116.217 100.783C116.237 100.753 116.266 100.731 116.3 100.724L116.896 100.595C117.004 100.569 117.02 100.376 116.896 100.35Z" fill="#263238"/>
<path d="M120.68 100.35L120.104 100.221C120.088 100.217 120.073 100.21 120.06 100.199C120.047 100.189 120.036 100.175 120.029 100.159C120.022 100.143 120.018 100.126 120.018 100.108C120.017 100.091 120.021 100.073 120.028 100.057L120.268 99.4467C120.278 99.4204 120.279 99.391 120.271 99.364C120.262 99.3369 120.246 99.3138 120.223 99.2989C120.201 99.2839 120.174 99.278 120.148 99.2823C120.121 99.2865 120.097 99.3006 120.08 99.322L119.644 99.8037C119.634 99.818 119.62 99.8296 119.605 99.8376C119.59 99.8455 119.573 99.8497 119.556 99.8497C119.539 99.8497 119.522 99.8455 119.507 99.8376C119.492 99.8296 119.478 99.818 119.468 99.8037L119.112 99.322C119.036 99.2188 118.872 99.322 118.904 99.4467L119.044 100.057C119.047 100.076 119.048 100.094 119.044 100.112C119.041 100.13 119.034 100.148 119.024 100.163C119.015 100.178 119.002 100.191 118.988 100.201C118.973 100.211 118.957 100.218 118.94 100.221L118.344 100.35C118.216 100.376 118.2 100.569 118.324 100.595L118.9 100.724C118.916 100.728 118.931 100.735 118.944 100.746C118.957 100.756 118.968 100.77 118.975 100.786C118.982 100.802 118.986 100.819 118.986 100.837C118.987 100.854 118.983 100.872 118.976 100.888L118.736 101.498C118.726 101.525 118.725 101.554 118.733 101.581C118.741 101.608 118.758 101.631 118.781 101.646C118.803 101.661 118.83 101.667 118.856 101.663C118.883 101.659 118.907 101.644 118.924 101.623L119.36 101.141C119.371 101.128 119.385 101.118 119.4 101.111C119.415 101.104 119.431 101.1 119.448 101.1C119.465 101.1 119.481 101.104 119.496 101.111C119.511 101.118 119.525 101.128 119.536 101.141L119.892 101.623C119.968 101.726 120.132 101.623 120.104 101.498L119.964 100.888C119.96 100.87 119.96 100.851 119.963 100.834C119.967 100.816 119.973 100.799 119.982 100.783C119.992 100.768 120.004 100.755 120.018 100.745C120.032 100.735 120.047 100.728 120.064 100.724L120.66 100.595C120.8 100.569 120.8 100.376 120.68 100.35Z" fill="#263238"/>
<path d="M124.464 100.35L123.888 100.221C123.872 100.218 123.857 100.21 123.844 100.199C123.831 100.189 123.82 100.175 123.813 100.159C123.806 100.143 123.803 100.125 123.803 100.108C123.804 100.09 123.808 100.073 123.816 100.057L124.056 99.4466C124.064 99.4331 124.069 99.418 124.071 99.4024C124.073 99.3867 124.072 99.3707 124.069 99.3554C124.065 99.34 124.059 99.3255 124.05 99.3128C124.042 99.3 124.031 99.2892 124.018 99.281C124.005 99.2729 123.991 99.2674 123.977 99.265C123.962 99.2627 123.947 99.2634 123.933 99.2672C123.919 99.271 123.905 99.2778 123.894 99.2871C123.882 99.2965 123.872 99.3083 123.864 99.3219L123.432 99.8036C123.421 99.818 123.407 99.8296 123.392 99.8375C123.376 99.8455 123.359 99.8497 123.342 99.8497C123.325 99.8497 123.308 99.8455 123.292 99.8375C123.277 99.8296 123.263 99.818 123.252 99.8036L122.896 99.3219C122.82 99.2187 122.656 99.3219 122.688 99.4466L122.828 100.057C122.832 100.075 122.832 100.094 122.829 100.111C122.825 100.129 122.819 100.146 122.81 100.162C122.8 100.177 122.788 100.19 122.774 100.2C122.76 100.21 122.745 100.217 122.728 100.221L122.132 100.35C122.004 100.376 121.988 100.569 122.112 100.595L122.684 100.724C122.7 100.728 122.715 100.735 122.728 100.746C122.741 100.756 122.752 100.77 122.759 100.786C122.766 100.802 122.77 100.819 122.77 100.837C122.771 100.854 122.767 100.872 122.76 100.887L122.52 101.498C122.505 101.526 122.5 101.558 122.507 101.589C122.514 101.62 122.533 101.647 122.558 101.664C122.583 101.68 122.614 101.685 122.643 101.678C122.672 101.67 122.697 101.65 122.712 101.623L123.144 101.141C123.155 101.128 123.169 101.118 123.184 101.111C123.199 101.104 123.215 101.1 123.232 101.1C123.249 101.1 123.265 101.104 123.28 101.111C123.295 101.118 123.309 101.128 123.32 101.141L123.676 101.623C123.695 101.645 123.72 101.661 123.747 101.666C123.775 101.671 123.804 101.666 123.828 101.651C123.853 101.637 123.872 101.614 123.883 101.586C123.894 101.558 123.896 101.527 123.888 101.498L123.748 100.887C123.742 100.852 123.749 100.815 123.768 100.784C123.786 100.754 123.815 100.732 123.848 100.724L124.444 100.595C124.572 100.569 124.588 100.376 124.464 100.35Z" fill="#263238"/>
<path d="M115.34 91.4427H108.236C108.018 91.4467 107.809 91.5365 107.648 91.695C107.488 91.8535 107.386 92.0697 107.364 92.3029C107.353 92.4127 107.363 92.5238 107.395 92.6288C107.427 92.7338 107.479 92.8303 107.548 92.9118C107.618 92.9932 107.702 93.0578 107.797 93.1012C107.891 93.1445 107.993 93.1656 108.096 93.1631H115.2C115.418 93.1591 115.627 93.0694 115.788 92.9109C115.948 92.7524 116.05 92.5361 116.072 92.3029C116.083 92.1933 116.072 92.0825 116.04 91.9778C116.008 91.8731 115.955 91.7769 115.886 91.6956C115.817 91.6143 115.732 91.5497 115.638 91.5061C115.544 91.4625 115.442 91.4409 115.34 91.4427Z" fill="#263238"/>
<path d="M122.556 91.4426H118.432C118.214 91.4467 118.006 91.5366 117.846 91.6952C117.686 91.8538 117.586 92.07 117.564 92.3028C117.553 92.4122 117.563 92.5229 117.595 92.6276C117.626 92.7323 117.678 92.8286 117.747 92.91C117.816 92.9914 117.9 93.0561 117.994 93.0997C118.088 93.1433 118.19 93.1649 118.292 93.163H122.4C122.618 93.1589 122.826 93.069 122.986 92.9104C123.146 92.7519 123.247 92.5356 123.268 92.3028C123.279 92.1949 123.269 92.0856 123.239 91.9821C123.208 91.8786 123.157 91.7832 123.09 91.7021C123.023 91.621 122.941 91.5559 122.849 91.5112C122.757 91.4665 122.657 91.4432 122.556 91.4426Z" fill="#263238"/>
<path d="M128 130.431C125.489 131.459 123.222 133.075 121.364 135.162C120.236 134.22 118.89 133.625 117.472 133.441L117.284 133.411L117.204 134.426L117.308 134.469C118.863 135.085 120.179 136.249 121.04 137.772L121.176 138.013L121.324 137.755C122.98 134.912 125.318 132.6 128.092 131.063L128.184 131.011L128.236 130.34L128 130.431Z" fill="#263238"/>
<path opacity="0.2" d="M92.256 45.7493C91.7463 46.7063 91.4326 47.7695 91.336 48.8675L85.38 122.078H103.812L107.516 106.814L106.296 91.5459L110 76.2818L108.8 61.0177L112.504 45.7493H92.256Z" fill="black"/>
<path d="M107.18 56.7166L110.884 41.4482H64.272L60.572 56.7166L61.788 71.9807L58.088 87.2448L59.304 102.513L55.604 117.777H102.212L105.916 102.513L104.696 87.2448L108.4 71.9807L107.18 56.7166Z" fill="#355B5E"/>
<path opacity="0.7" d="M107.18 56.7166L110.884 41.4482H64.272L60.572 56.7166L61.788 71.9807L58.088 87.2448L59.304 102.513L55.604 117.777H102.212L105.916 102.513L104.696 87.2448L108.4 71.9807L107.18 56.7166Z" fill="white"/>
<path opacity="0.5" d="M107.18 56.7166H60.572L64.272 41.4482H110.884L107.18 56.7166Z" fill="white"/>
<path opacity="0.5" d="M104.696 87.2451H58.088L61.788 71.981H108.4L104.696 87.2451Z" fill="white"/>
<path opacity="0.5" d="M102.212 117.777H55.6L59.304 102.513H105.916L102.212 117.777Z" fill="white"/>
<path opacity="0.2" d="M100.944 63.095C100.466 63.2436 99.9698 63.3161 99.472 63.3101C98.797 63.3422 98.125 63.1945 97.516 62.88C97.4058 62.8098 97.2801 62.7726 97.152 62.7725C97.0345 62.7742 96.9192 62.8067 96.816 62.8671H96.792C96.6133 62.9749 96.4224 63.0573 96.224 63.1122C95.7763 63.2393 95.3149 63.3015 94.852 63.2972C94.712 63.2972 94.576 63.2972 94.452 63.2972C94.0927 63.2724 93.7372 63.2046 93.392 63.095C93.3412 63.0788 93.2888 63.0687 93.236 63.0649C93.148 63.0572 93.0595 63.0692 92.976 63.1C92.8925 63.1308 92.8159 63.1799 92.7509 63.2441C92.6859 63.3084 92.634 63.3864 92.5983 63.4732C92.5627 63.56 92.5442 63.6539 92.544 63.7488V64.2133H74.4C74.0666 64.2133 73.7365 64.284 73.4286 64.4213C73.1206 64.5586 72.8409 64.7598 72.6053 65.0135C72.3698 65.2671 72.1831 65.5682 72.0559 65.8996C71.9286 66.2309 71.8634 66.5859 71.864 66.9444V69.6927C71.8629 70.0515 71.9277 70.407 72.0547 70.7388C72.1817 71.0707 72.3683 71.3723 72.6039 71.6264C72.8395 71.8805 73.1194 72.0822 73.4276 72.2197C73.7358 72.3573 74.0663 72.4281 74.4 72.4281H95.012H95.148C95.368 72.626 95.6 72.8238 95.848 73.0259C96.096 73.2281 96.448 73.5077 96.772 73.7571C96.8825 73.8432 97.0155 73.8895 97.152 73.8895C97.2884 73.8895 97.4214 73.8432 97.532 73.7571C100.124 71.7357 101.788 70.3421 101.788 66.5143V63.7617C101.789 63.6516 101.766 63.5428 101.72 63.4443C101.675 63.3457 101.608 63.2603 101.525 63.1952C101.443 63.13 101.347 63.0869 101.246 63.0695C101.145 63.0521 101.041 63.0608 100.944 63.095Z" fill="black"/>
<path d="M94.616 62.7036H74.008C72.6052 62.7036 71.468 63.9264 71.468 65.4347V68.183C71.468 69.6914 72.6052 70.9141 74.008 70.9141H94.616C96.0188 70.9141 97.156 69.6914 97.156 68.183V65.4347C97.156 63.9264 96.0188 62.7036 94.616 62.7036Z" fill="#355B5E"/>
<path d="M99.076 61.796C98.4011 61.8271 97.7294 61.6794 97.12 61.3659C97.0117 61.2944 96.8871 61.2566 96.76 61.2566C96.6329 61.2566 96.5083 61.2944 96.4 61.3659C95.7894 61.6799 95.1163 61.8276 94.44 61.796C93.9422 61.8017 93.4463 61.7293 92.968 61.581C92.8717 61.5461 92.769 61.5365 92.6684 61.5528C92.5679 61.5691 92.4724 61.611 92.3899 61.6749C92.3074 61.7388 92.2403 61.8229 92.1941 61.9203C92.1478 62.0176 92.1238 62.1254 92.124 62.2347V64.9874C92.124 68.8195 93.788 70.213 96.38 72.2345C96.4906 72.3205 96.6236 72.3668 96.76 72.3668C96.8965 72.3668 97.0295 72.3205 97.14 72.2345C99.732 70.213 101.396 68.8195 101.396 64.9874V62.2347C101.396 62.1252 101.371 62.0174 101.324 61.9201C101.278 61.8228 101.21 61.7388 101.127 61.675C101.045 61.6112 100.949 61.5694 100.848 61.5531C100.747 61.5367 100.645 61.5463 100.548 61.581C100.07 61.7296 99.5738 61.8021 99.076 61.796Z" fill="#355B5E"/>
<path opacity="0.3" d="M99.076 61.796C98.4011 61.8271 97.7294 61.6794 97.12 61.3659C97.0117 61.2944 96.8871 61.2566 96.76 61.2566C96.6329 61.2566 96.5083 61.2944 96.4 61.3659C95.7894 61.6799 95.1163 61.8276 94.44 61.796C93.9422 61.8017 93.4463 61.7293 92.968 61.581C92.8717 61.5461 92.769 61.5365 92.6684 61.5528C92.5679 61.5691 92.4724 61.611 92.3899 61.6749C92.3074 61.7388 92.2403 61.8229 92.1941 61.9203C92.1478 62.0176 92.1238 62.1254 92.124 62.2347V64.9874C92.124 68.8195 93.788 70.213 96.38 72.2345C96.4906 72.3205 96.6236 72.3668 96.76 72.3668C96.8965 72.3668 97.0295 72.3205 97.14 72.2345C99.732 70.213 101.396 68.8195 101.396 64.9874V62.2347C101.396 62.1252 101.371 62.0174 101.324 61.9201C101.278 61.8228 101.21 61.7388 101.127 61.675C101.045 61.6112 100.949 61.5694 100.848 61.5531C100.747 61.5367 100.645 61.5463 100.548 61.581C100.07 61.7296 99.5738 61.8021 99.076 61.796Z" fill="white"/>
<path opacity="0.2" d="M96.4 61.3576C95.7894 61.6716 95.1163 61.8193 94.44 61.7877C93.9423 61.7931 93.4464 61.7206 92.968 61.5726C92.8717 61.5378 92.769 61.5281 92.6684 61.5445C92.5679 61.5608 92.4724 61.6026 92.3899 61.6665C92.3074 61.7304 92.2403 61.8145 92.1941 61.9119C92.1478 62.0092 92.1238 62.1171 92.124 62.2264V64.979C92.124 68.8111 93.788 70.2046 96.38 72.2261C96.4961 72.3166 96.6367 72.3635 96.78 72.3594V61.2458C96.646 61.2429 96.514 61.2817 96.4 61.3576Z" fill="white"/>
<path d="M100.476 64.2391C98.9167 64.8959 97.5281 65.948 96.428 67.3057C95.6609 66.6976 94.7616 66.3111 93.816 66.1831H93.692V66.8412L93.76 66.867C94.8117 67.2751 95.7181 68.0271 96.352 69.0175L96.452 69.1723L96.536 69.0046C97.4556 67.1671 98.856 65.6598 100.564 64.6692L100.624 64.6391V64.209L100.476 64.2391Z" fill="#263238"/>
<path d="M110.06 45.7451H108.292C108.065 45.7496 107.839 45.702 107.63 45.6053C107.421 45.5086 107.233 45.3651 107.08 45.1844C106.927 45.0037 106.811 44.7899 106.741 44.5572C106.67 44.3246 106.647 44.0786 106.672 43.8354L106.828 41.9344C106.876 41.4174 107.099 40.9373 107.454 40.5853C107.81 40.2333 108.273 40.0338 108.756 40.0248H110.524C110.752 40.0196 110.978 40.0668 111.187 40.1632C111.397 40.2597 111.585 40.4031 111.739 40.5839C111.892 40.7646 112.008 40.9787 112.079 41.2116C112.15 41.4445 112.173 41.6909 112.148 41.9344L111.992 43.8354C111.938 44.3507 111.713 44.8277 111.358 45.1786C111.003 45.5295 110.542 45.7307 110.06 45.7451Z" fill="#355B5E"/>
<path d="M110.796 41.93L110.412 41.4741L109.444 42.4289L108.636 41.4741L108.176 41.93L108.988 42.8848L108.024 43.8396L108.408 44.2912L109.372 43.3364L110.184 44.2912L110.64 43.8396L109.828 42.8848L110.796 41.93Z" fill="white"/>
<path d="M70.548 62.1448C71.572 63.3447 72.548 64.5877 73.52 65.8393C74.492 67.0909 75.432 68.3683 76.368 69.6499C76.408 69.7059 76.392 69.6844 76.4 69.7016C76.408 69.7188 76.4 69.7231 76.4 69.7274C76.407 69.7433 76.4164 69.7579 76.428 69.7704C76.4621 69.8225 76.5054 69.8668 76.5556 69.9007C76.6057 69.9347 76.6616 69.9576 76.72 69.9682C76.7651 69.9748 76.8109 69.9748 76.856 69.9682C76.8799 69.9702 76.904 69.9702 76.928 69.9682H76.964C76.984 69.9682 76.964 69.9682 77.028 69.9424L78.028 69.3575C79.372 68.5919 80.728 67.8435 82.128 67.1726L83.3 68.7338C82.172 69.8478 80.996 71.2456 79.808 72.2692L78.912 73.0262C78.8563 73.0751 78.7975 73.1196 78.736 73.1595C78.6681 73.2115 78.5973 73.2588 78.524 73.3015C78.3792 73.3911 78.2296 73.4716 78.076 73.5423C77.7661 73.6823 77.4408 73.7792 77.108 73.8305C76.435 73.9367 75.7481 73.8628 75.108 73.6154C74.7824 73.4911 74.4731 73.322 74.188 73.1122C74.044 73.009 73.908 72.8886 73.788 72.7724C73.72 72.7122 73.664 72.6434 73.6 72.5789L73.44 72.4069C72.38 71.237 71.336 70.0585 70.312 68.8586C69.288 67.6586 68.276 66.45 67.308 65.1942L70.548 62.1448Z" fill="#B55B52"/>
<path d="M81.6 68.1186L82.532 64.8972L84.988 66.2133C84.988 66.2133 84.628 68.5616 82.844 68.9702L81.6 68.1186Z" fill="#B55B52"/>
<path d="M83.512 64.0068L85.728 64.6606L84.984 66.2132L82.528 64.8971L83.512 64.0068Z" fill="#B55B52"/>
<path d="M57.636 63.0218C57.372 64.3896 57.044 65.7444 56.704 67.0949C56.364 68.4454 55.992 69.783 55.604 71.1206L55.46 71.6238L55.388 71.8732C55.3783 71.9091 55.3649 71.9438 55.348 71.9764C55.3023 72.1148 55.2767 72.2598 55.272 72.4065C55.2635 72.719 55.3445 73.0268 55.504 73.2882C55.5826 73.4029 55.6696 73.5108 55.764 73.6108L56.096 74.0022L56.752 74.7893C57.18 75.3226 57.612 75.8559 58.02 76.415L56.624 78.1354C56.048 77.7827 55.496 77.4 54.944 77.0215L54.124 76.4365L53.724 76.1398C53.588 76.0365 53.476 75.9677 53.256 75.7742C52.4733 75.057 51.9333 74.0817 51.72 73.0001C51.6126 72.4487 51.587 71.8826 51.644 71.3227C51.644 71.1851 51.684 71.0302 51.704 70.8926L51.748 70.6345L51.832 70.1184C52.056 68.7378 52.296 67.3615 52.564 65.9938C52.832 64.6261 53.12 63.2627 53.46 61.9165L57.636 63.0218Z" fill="#B55B52"/>
<path d="M56.652 76.2776L58.3 75.3701L59.028 78.3808C59.028 78.3808 57.704 78.927 56.68 78.226L56.652 76.2776Z" fill="#B55B52"/>
<path d="M60.58 74.4023L60.656 77.1722L58.812 78.4667L58.172 75.426L60.58 74.4023Z" fill="#B55B52"/>
<path d="M65.976 48.803C66.016 49.0138 66.156 49.1643 66.284 49.1385C66.412 49.1127 66.488 48.9149 66.448 48.7084C66.408 48.502 66.268 48.3471 66.14 48.3729C66.012 48.3987 65.936 48.6009 65.976 48.803Z" fill="#263238"/>
<path d="M66.136 49.1685C66.4961 49.7683 66.9308 50.3124 67.428 50.7856C67.3122 50.9197 67.1706 51.0249 67.0131 51.094C66.8556 51.1631 66.6859 51.1944 66.516 51.1856L66.136 49.1685Z" fill="#A02724"/>
<path d="M65.028 47.7793C65.0049 47.779 64.9825 47.7716 64.9632 47.7579C64.944 47.7442 64.9289 47.7249 64.9196 47.7022C64.9103 47.6795 64.9073 47.6545 64.9109 47.63C64.9145 47.6055 64.9246 47.5827 64.94 47.5642C65.0652 47.4119 65.2222 47.2935 65.398 47.2188C65.5739 47.144 65.7637 47.115 65.952 47.1341C65.9675 47.1372 65.9823 47.1436 65.9955 47.1528C66.0087 47.1621 66.0201 47.174 66.029 47.188C66.0379 47.202 66.0442 47.2177 66.0474 47.2343C66.0507 47.2509 66.0509 47.268 66.048 47.2847C66.0456 47.3012 66.0401 47.317 66.0319 47.3311C66.0237 47.3453 66.013 47.3576 66.0003 47.3672C65.9876 47.3768 65.9733 47.3836 65.9581 47.3872C65.9429 47.3907 65.9272 47.391 65.912 47.3879C65.7628 47.3725 65.6123 47.3957 65.4732 47.4556C65.334 47.5154 65.2102 47.6102 65.112 47.732C65.0907 47.7587 65.0606 47.7757 65.028 47.7793Z" fill="#263238"/>
<path d="M60.208 51.8008C60.648 53.7749 61.092 57.392 59.516 58.7038C59.516 58.7038 60.132 60.7081 64.316 60.7081C68.916 60.7081 66.516 59.4178 66.516 59.4178C64.004 58.8931 64.068 56.549 64.516 55.0136L60.208 51.8008Z" fill="#B55B52"/>
<path d="M59.024 59.0693C58.752 58.5231 58.448 57.8952 59.072 57.6973C59.76 57.4823 64.172 57.0823 65.472 57.4866C65.072 58.2478 65.748 59.207 65.748 59.207L59.024 59.0693Z" fill="#263238"/>
<path d="M62.68 151.36H65.564L65.852 145.115H62.964L62.68 151.36Z" fill="#B55B52"/>
<path d="M44.364 150.499L47.288 150.667L49.064 144.512L46.14 144.344L44.364 150.499Z" fill="#B55B52"/>
<path d="M47.2 150.417L44.444 149.777C44.3958 149.765 44.3452 149.771 44.3008 149.795C44.2564 149.818 44.2208 149.857 44.2 149.906L43.244 152.138C43.2205 152.192 43.2088 152.251 43.2099 152.311C43.211 152.371 43.2248 152.43 43.2503 152.483C43.2758 152.536 43.3123 152.582 43.357 152.618C43.4016 152.653 43.4533 152.677 43.508 152.688C44.472 152.895 44.952 152.942 46.164 153.226C46.908 153.398 48.592 153.841 49.62 154.086C50.648 154.331 51.004 153.265 50.604 153.067C48.804 152.185 48.052 151.407 47.564 150.68C47.4764 150.548 47.347 150.454 47.2 150.417Z" fill="#263238"/>
<path d="M65.412 151.045H62.672C62.6225 151.046 62.5746 151.065 62.5361 151.098C62.4976 151.132 62.4708 151.178 62.46 151.23L61.964 153.626C61.9512 153.684 61.9509 153.744 61.9631 153.803C61.9753 153.861 61.9997 153.915 62.0344 153.962C62.0692 154.008 62.1133 154.045 62.1635 154.071C62.2137 154.096 62.2686 154.109 62.324 154.108C63.312 154.108 64.724 154.026 65.984 154.026C67.436 154.026 68.688 154.112 70.384 154.112C71.412 154.112 71.7 152.994 71.268 152.891C69.304 152.43 67.704 152.379 66.008 151.256C65.8307 151.129 65.6247 151.056 65.412 151.045Z" fill="#263238"/>
<path d="M54.288 59.6157C52.112 60.7296 51.52 67.4821 51.52 67.4821L56.908 70.1573C57.8188 68.5056 58.315 66.6279 58.348 64.708C58.456 61.2199 56.516 58.4931 54.288 59.6157Z" fill="#263238"/>
<path opacity="0.4" d="M57.2 63.7788C56.228 65.4046 56.32 67.9163 56.656 70.0367L56.896 70.1571C57.8059 68.505 58.302 66.6275 58.336 64.7078C58.336 64.5014 58.336 64.2777 58.336 64.0928L57.2 63.7788Z" fill="black"/>
<path d="M69.3239 59.4522C69.3239 59.4522 71.9959 62.6951 69.4719 82.7634H56.0599C55.9679 80.5484 57.2599 69.7487 55.2599 59.3146C56.7423 59.008 58.2413 58.804 59.7479 58.7039C61.6477 58.5876 63.5522 58.5876 65.452 58.7039C66.7586 58.8462 68.053 59.0963 69.3239 59.4522Z" fill="#355B5E"/>
<path opacity="0.6" d="M69.3239 59.4522C69.3239 59.4522 71.9959 62.6951 69.4719 82.7634H56.0599C55.9679 80.5484 57.2599 69.7487 55.2599 59.3146C56.7423 59.008 58.2413 58.804 59.7479 58.7039C61.6477 58.5876 63.5522 58.5876 65.452 58.7039C66.7586 58.8462 68.053 59.0963 69.3239 59.4522Z" fill="#5A787B"/>
<path opacity="0.2" d="M70.496 65.5853L70.448 65.538L67.78 64.0068C67.508 68.4239 69.344 71.1937 70.436 72.4023C70.5728 70.1329 70.5929 67.8571 70.496 65.5853Z" fill="black"/>
<path opacity="0.2" d="M65.852 145.115L65.704 148.336H62.816L62.964 145.115H65.852Z" fill="black"/>
<path opacity="0.2" d="M46.14 144.349L49.064 144.512L48.148 147.686L45.224 147.519L46.14 144.349Z" fill="black"/>
<path d="M59.28 49.7966C59.924 52.3772 60.18 53.9299 61.68 55.0051C63.912 56.6223 66.688 54.7642 66.776 52.0245C66.852 49.5601 65.788 45.7451 63.208 45.2247C62.6384 45.1035 62.0494 45.1414 61.4973 45.3347C60.9451 45.5281 60.4484 45.8704 60.0543 46.329C59.6603 46.7876 59.3823 47.3472 59.2467 47.9543C59.1111 48.5613 59.1226 49.1957 59.28 49.7966Z" fill="#B55B52"/>
<path d="M64.716 82.7634C64.716 82.7634 61.868 103.369 60.316 111.094C58.596 119.567 49.42 147.523 49.42 147.523L44.928 146.478C44.928 146.478 50.684 123.683 52.128 111.864C52.688 107.249 53.364 99.821 54.22 93.6147C55.048 87.5934 56.068 82.7677 56.068 82.7677L64.716 82.7634Z" fill="#263238"/>
<path d="M50.496 145.91L49.656 147.656L44.608 146.478L45.032 144.848L50.496 145.91Z" fill="#355B5E"/>
<path opacity="0.6" d="M50.496 145.91L49.656 147.656L44.608 146.478L45.032 144.848L50.496 145.91Z" fill="white"/>
<path opacity="0.6" d="M62.916 90.1052C59.624 90.7976 59.972 103.997 60.368 110.784C61.32 105.984 62.708 96.7544 63.656 90.1998C63.4266 90.0783 63.1655 90.045 62.916 90.1052Z" fill="black"/>
<path d="M69.472 82.7636C69.472 82.7636 70.812 102.926 70.54 111.15C70.256 119.705 66.484 147.708 66.484 147.708H62.236C62.236 147.708 62.08 120.182 61.892 111.799C61.684 102.638 60.656 82.7593 60.656 82.7593L69.472 82.7636Z" fill="#263238"/>
<path d="M67.3 145.893C67.32 145.893 67.06 147.79 67.06 147.79H61.892L61.752 146.095L67.3 145.893Z" fill="#355B5E"/>
<path opacity="0.6" d="M67.3 145.893C67.32 145.893 67.06 147.79 67.06 147.79H61.892L61.752 146.095L67.3 145.893Z" fill="white"/>
<path d="M67.7599 63.2241C67.7599 68.6347 70.4359 70.8626 70.4359 70.8626L74.8 66.295C73.767 64.4388 72.5909 62.6793 71.284 61.0349C68.76 57.9253 67.7599 59.7489 67.7599 63.2241Z" fill="#263238"/>
<path opacity="0.2" d="M66.608 53.0051C66.519 53.2763 66.3697 53.5199 66.1731 53.7148C65.9765 53.9097 65.7386 54.05 65.48 54.1234C65.1956 54.1858 64.9374 54.3449 64.7436 54.5773C64.5499 54.8096 64.4308 55.1029 64.404 55.4137C64.9219 55.2274 65.3916 54.9122 65.7746 54.4936C66.1576 54.075 66.4432 53.565 66.608 53.0051Z" fill="black"/>
<path d="M65.48 44.6567C66.376 43.4396 64.996 43.3665 64.996 43.3665C65.356 41.917 63.74 42.6955 63.74 42.6955C62.772 41.259 62.224 43.0095 62.224 43.0095C61.22 41.7923 61.024 43.7793 61.024 43.7793C60.016 42.2353 59.504 44.4632 59.504 44.4632C58.576 42.8589 58.008 44.9449 58.008 44.9449C56.092 44.2094 57 46.3513 57 46.3513C55.368 46.3986 56.68 47.762 56.68 47.762C54.72 47.762 56.448 48.9706 56.448 48.9706C54.892 50.0674 56.848 50.3641 56.848 50.3641C55.58 52.5146 57.76 51.706 57.76 51.706C56.876 53.8221 58.832 52.8888 58.832 52.8888C58.708 54.9274 59.8 54.3726 60.328 53.9941C60.428 54.4242 60.62 54.8543 60.972 54.8887C61.656 54.9876 61.772 53.5984 61.772 53.5984C61.772 53.5984 62.404 54.1318 62.936 53.8436C63.468 53.5554 63.268 52.8286 63.268 52.8286C63.3835 52.9214 63.5238 52.9716 63.668 52.9716C63.8122 52.9716 63.9525 52.9214 64.068 52.8286C64.296 52.6393 64.296 51.2716 64.008 50.7899L65.048 50.3598C65.048 50.3598 65.82 50.2437 65.476 49.1469C65.2684 48.5166 65.2502 47.8321 65.424 47.19C66.6 46.5965 65.632 45.8997 65.632 45.8997C66.996 44.9578 65.48 44.6567 65.48 44.6567Z" fill="#263238"/>
<path d="M63.372 49.8912C63.5348 50.5329 63.8907 51.0985 64.384 51.4998C65.036 52.0245 65.524 51.4998 65.476 50.7127C65.436 49.9987 65.044 48.8676 64.324 48.6525C63.604 48.4375 63.2 49.1299 63.372 49.8912Z" fill="#B55B52"/>
</svg>
