<svg width="200" height="160" viewBox="0 0 200 160" fill="none" xmlns="http://www.w3.org/2000/svg">
<path opacity="0.7" d="M195.336 98.7304C189.629 112.913 177.332 128.463 159.23 133.523C131.885 141.175 129.432 159.561 79.8146 159.437C72.569 159.445 65.3437 158.809 58.2654 157.539C54.8047 156.908 51.3967 156.097 48.0618 155.111C18.6611 146.416 2.5648 125.736 0.259276 103.638C-2.7654 74.5721 21.3559 59.9106 37.063 51.2636C52.7702 42.6166 70.7067 10.5257 119.499 10.335C126.947 10.2802 134.379 10.9308 141.645 12.2739C158.211 15.3956 175.259 22.9119 185.501 34.3684C186.266 35.2286 187.002 36.1027 187.713 37.0114C201.542 54.6419 203.12 79.3899 195.336 98.7304Z" fill="#C2CECF"/>
<path d="M137.493 112.768C130.224 108.601 128.577 100.865 128.864 93.9094C128.911 92.7508 128.756 91.5226 129.429 90.5069C130.102 89.4912 131.673 88.7922 132.939 89.2788C133.988 89.6843 134.444 90.6884 135.033 91.5188C135.817 92.6247 136.967 93.5258 138.35 94.1179C139.248 94.5041 140.363 94.7359 141.253 94.3342C142.476 93.7819 142.617 92.4032 142.608 91.2446C142.608 89.0896 142.592 86.9371 142.561 84.7873C142.476 83.6328 142.619 82.4748 142.984 81.3578C143.422 80.261 144.396 79.2452 145.727 78.9363C147.059 78.6273 148.719 79.2646 149.021 80.3923C149.072 80.8699 149.087 81.3498 149.063 81.8289C149.101 82.3117 149.373 82.8408 149.924 82.9876C150.474 83.1343 151.048 82.7983 151.472 82.4585C152.921 81.2998 153.909 79.7898 154.827 78.299C155.744 76.8083 156.643 75.2751 157.96 74.0045C159.277 72.7339 161.098 71.7259 163.136 71.6293C165.173 71.5328 167.295 72.5601 167.803 74.1821C168.311 75.8042 167.158 77.461 165.921 78.7779C164.054 80.7328 161.853 82.4563 159.386 83.8951C158.904 84.1109 158.52 84.4481 158.289 84.8568C157.984 85.6292 158.873 86.4016 159.8 86.6449C160.849 86.9307 161.988 86.8419 163.093 86.95C164.199 87.0581 165.375 87.4521 165.794 88.3017C166.368 89.4835 165.163 90.7193 163.983 91.5304C161.611 93.1524 158.919 94.4287 156.022 95.3036C154.987 95.6125 153.9 95.8867 153.062 96.4815C152.225 97.0763 151.726 98.1151 152.229 98.93C152.733 99.7449 154.027 100.004 155.114 99.8376C156.2 99.6715 157.165 99.1927 158.2 98.8721C160.134 98.2735 162.627 98.3816 163.846 99.7526C164.224 100.225 164.463 100.763 164.544 101.324C164.626 101.884 164.548 102.453 164.317 102.985C163.846 104.044 163.121 105.014 162.185 105.839C159.104 108.861 155.1 111.158 150.583 112.493C146.099 113.768 141.944 114.116 137.489 112.775" fill="#355B5E"/>
<path d="M165.733 72.5833C165.733 72.5833 165.691 72.6219 165.597 72.6914L165.178 72.9965C164.811 73.2668 164.27 73.6608 163.588 74.1821C161.653 75.6563 159.857 77.2481 158.214 78.944C157.165 80.0138 156.078 81.2265 154.921 82.5434C153.764 83.8604 152.568 85.2816 151.383 86.7917C150.119 88.3841 148.961 90.0317 147.915 91.7274C147.369 92.6118 146.89 93.5348 146.396 94.4771L144.937 97.3543C143.014 100.978 141.34 104.688 139.921 108.465C138.779 111.556 137.991 114.728 137.569 117.939C137.295 120.106 137.251 122.289 137.437 124.462C137.512 125.234 137.583 125.825 137.649 126.227C137.677 126.42 137.696 126.574 137.715 126.686V126.845C137.695 126.795 137.68 126.743 137.672 126.69C137.649 126.578 137.621 126.428 137.583 126.235C137.498 125.848 137.409 125.238 137.324 124.466C137.097 122.288 137.113 120.099 137.371 117.924C137.767 114.699 138.538 111.512 139.672 108.407C141.079 104.619 142.749 100.901 144.673 97.2694L146.17 94.4037C146.664 93.4653 147.148 92.5345 147.699 91.6462C148.752 89.9455 149.919 88.2939 151.195 86.699C152.399 85.1542 153.613 83.7561 154.756 82.4508C155.9 81.1454 157.005 79.925 158.05 78.8591C159.709 77.1677 161.53 75.587 163.494 74.1319C164.19 73.6183 164.745 73.2321 165.121 72.9733L165.559 72.6837C165.613 72.6453 165.671 72.6117 165.733 72.5833Z" fill="#263238"/>
<path d="M147.76 91.6385C147.693 91.4794 147.648 91.315 147.623 91.148C147.548 90.8275 147.463 90.3756 147.364 89.7886C147.162 88.63 146.955 87.0427 146.734 85.2855C146.513 83.5282 146.263 81.9371 146.056 80.7901C145.948 80.2185 145.854 79.7589 145.788 79.4383C145.737 79.2743 145.71 79.1057 145.708 78.9363C145.789 79.091 145.848 79.253 145.882 79.419C145.986 79.7357 146.103 80.1914 146.235 80.7669C146.503 81.9255 146.767 83.5012 146.988 85.2623C147.209 87.0234 147.397 88.5682 147.543 89.7693C147.614 90.31 147.675 90.7696 147.722 91.1365C147.759 91.302 147.771 91.4705 147.76 91.6385Z" fill="#263238"/>
<path d="M165.864 88.8655C165.635 88.9064 165.402 88.9297 165.168 88.935C164.698 88.9698 164.029 89.0161 163.201 89.0934C161.545 89.2401 159.268 89.5105 156.77 89.8967C154.271 90.2829 152.027 90.7193 150.413 91.0553C149.609 91.2252 148.959 91.3797 148.531 91.484C148.303 91.5506 148.066 91.5972 147.825 91.623C148.043 91.5333 148.27 91.4596 148.503 91.4029C148.945 91.2754 149.585 91.0978 150.385 90.9085C151.989 90.5223 154.234 90.0627 156.741 89.6688C158.866 89.3354 161.009 89.0905 163.164 88.935C163.997 88.8771 164.669 88.8539 165.14 88.8462C165.382 88.8327 165.624 88.8392 165.864 88.8655Z" fill="#263238"/>
<path d="M139.902 108.137C139.852 108.081 139.811 108.02 139.78 107.956L139.469 107.419C139.201 106.952 138.839 106.26 138.406 105.414C137.531 103.715 136.416 101.336 135.23 98.6945C134.045 96.0528 132.953 93.6738 132.125 91.9552C131.72 91.121 131.386 90.4375 131.137 89.9277L130.873 89.3754C130.837 89.3117 130.812 89.2441 130.798 89.1746C130.848 89.2305 130.889 89.2915 130.92 89.3561L131.231 89.8929C131.494 90.3602 131.861 91.0515 132.294 91.8973C133.169 93.5966 134.285 95.9756 135.47 98.6172C136.656 101.259 137.747 103.638 138.575 105.356C138.98 106.191 139.314 106.874 139.559 107.384C139.667 107.604 139.756 107.77 139.827 107.936C139.864 108 139.889 108.068 139.902 108.137Z" fill="#263238"/>
<path d="M163.935 101.776C163.86 101.812 163.779 101.839 163.695 101.857L162.999 102.051L160.425 102.734C158.252 103.313 155.25 104.14 151.956 105.051C148.663 105.963 145.647 106.774 143.459 107.315C142.368 107.589 141.478 107.797 140.862 107.936L140.152 108.087C140.069 108.108 139.984 108.123 139.897 108.129C139.973 108.094 140.053 108.067 140.137 108.048L140.834 107.855L143.407 107.172C145.581 106.592 148.583 105.766 151.876 104.854C155.17 103.943 158.181 103.132 160.369 102.591C161.465 102.317 162.35 102.109 162.971 101.969L163.681 101.819C163.764 101.797 163.849 101.783 163.935 101.776Z" fill="#263238"/>
<path d="M154.13 8.09503L151.707 8.80564L150.667 6.20649C148.757 1.41371 142.669 -1.13137 137.075 0.48682C131.48 2.10501 128.502 7.36124 130.412 12.154L131.452 14.7532L129.02 15.4676C128.092 15.763 127.339 16.3403 126.917 17.0797C126.494 17.8191 126.435 18.6637 126.752 19.4378L133.494 36.3497C133.634 36.7329 133.867 37.0891 134.178 37.3972C134.488 37.7053 134.872 37.9589 135.305 38.143C135.737 38.3271 136.211 38.4379 136.697 38.4688C137.183 38.4998 137.671 38.4503 138.133 38.3232L163.244 30.9505C164.184 30.6557 164.948 30.0733 165.375 29.3256C165.802 28.578 165.86 27.7235 165.535 26.9418L158.788 10.0299C158.645 9.64774 158.409 9.29323 158.095 8.98754C157.781 8.68185 157.395 8.43123 156.96 8.25065C156.525 8.07007 156.051 7.96322 155.564 7.93648C155.078 7.90975 154.591 7.96367 154.13 8.09503ZM134.99 10.7985C134.475 9.55226 134.568 8.1908 135.248 6.99931C135.929 5.80783 137.145 4.87877 138.641 4.40679C139.38 4.19925 140.163 4.11603 140.942 4.16208C141.721 4.20814 142.481 4.38252 143.176 4.67484C143.871 4.96715 144.487 5.3714 144.988 5.86347C145.488 6.35555 145.863 6.92535 146.089 7.53889L147.125 10.138L136.025 13.3976L134.99 10.7985ZM149.105 25.8063L150.827 30.1241C150.859 30.2106 150.849 30.3039 150.799 30.3844C150.749 30.465 150.663 30.5267 150.559 30.5566L148.146 31.2634C148.05 31.2852 147.947 31.2757 147.859 31.2368C147.771 31.198 147.705 31.1327 147.675 31.0548L145.939 26.7564C144.982 26.7136 144.063 26.4317 143.306 25.9486C142.55 25.4654 141.991 24.804 141.704 24.053C141.295 23.06 141.37 21.9756 141.913 21.0268C142.456 20.078 143.425 19.3384 144.617 18.9628C145.205 18.7977 145.829 18.7316 146.449 18.7684C147.07 18.8051 147.675 18.9441 148.228 19.1769C148.782 19.4097 149.273 19.7316 149.672 20.1235C150.07 20.5153 150.369 20.9691 150.55 21.4577C150.853 22.2206 150.878 23.0395 150.622 23.814C150.366 24.5884 149.841 25.2848 149.11 25.8179L149.105 25.8063Z" fill="#355B5E"/>
<path d="M151.599 8.75919C151.599 8.81325 147.106 10.1997 141.516 11.8488C135.927 13.4979 131.368 14.8226 131.344 14.784C131.321 14.7453 135.837 13.3473 141.432 11.6943C147.026 10.0414 151.576 8.70898 151.599 8.75919Z" fill="#263238"/>
<path d="M156.934 9.46997C156.955 9.50349 156.973 9.53836 156.986 9.57424C157.024 9.65149 157.066 9.7519 157.123 9.87548C157.245 10.1574 157.414 10.5475 157.626 11.0341L159.433 15.3518C160.186 17.1825 161.084 19.3529 162.082 21.7628C162.552 22.9716 163.107 24.2307 163.625 25.5553C163.902 26.238 164.022 26.957 163.978 27.6756C163.938 28.0493 163.808 28.4129 163.597 28.7454C163.371 29.0768 163.069 29.3692 162.708 29.6066C161.981 30.0422 161.174 30.3798 160.317 30.6069L157.894 31.3214L153.307 32.6692L145.539 34.9401L140.293 36.454L138.881 36.8402L138.505 36.9406C138.465 36.9553 138.422 36.9644 138.378 36.9677C138.378 36.9677 138.416 36.9677 138.496 36.9213L138.863 36.8016L140.274 36.3652L145.492 34.7895L153.246 32.4722L157.824 31.1128L160.247 30.3945C161.079 30.1766 161.862 29.8493 162.566 29.4251C162.902 29.2048 163.184 28.9334 163.394 28.6257C163.594 28.3182 163.714 27.9803 163.747 27.6331C163.791 26.9407 163.676 26.2478 163.409 25.5901C162.9 24.277 162.364 23.0064 161.879 21.7976C160.901 19.3838 159.997 17.2056 159.282 15.375C158.567 13.5444 157.965 12.073 157.551 11.038C157.353 10.532 157.203 10.1381 157.08 9.85231L156.967 9.54335C156.953 9.51995 156.942 9.49534 156.934 9.46997Z" fill="#263238"/>
<path d="M143.685 4.14415C143.685 4.14415 143.436 4.04374 142.975 3.88926C142.318 3.68197 141.622 3.56708 140.919 3.5494C139.876 3.52004 138.838 3.68096 137.879 4.02057C136.714 4.44345 135.718 5.12745 135.005 5.99407C134.287 6.85821 133.901 7.87941 133.899 8.92535C133.909 9.78262 134.067 10.6344 134.369 11.455C134.614 12.1579 134.868 12.7179 135.037 13.1079C135.137 13.3061 135.219 13.51 135.282 13.7181C135.148 13.5329 135.037 13.3376 134.948 13.135C134.755 12.7488 134.478 12.2004 134.205 11.4936C133.87 10.6644 133.687 9.79876 133.664 8.92535C133.651 7.83989 134.045 6.7775 134.793 5.88207C135.531 4.9838 136.568 4.27864 137.781 3.85064C138.769 3.50917 139.839 3.35854 140.909 3.41036C141.628 3.44044 142.335 3.57786 142.994 3.81588C143.17 3.8826 143.34 3.96006 143.502 4.0476C143.569 4.07174 143.631 4.10431 143.685 4.14415Z" fill="#263238"/>
<path d="M143.902 19.2562C143.977 19.2189 144.056 19.1866 144.137 19.1597C144.373 19.0725 144.617 19.0014 144.866 18.9473C145.263 18.8512 145.672 18.7942 146.085 18.7773C146.647 18.7526 147.209 18.8222 147.736 18.982C148.941 19.3296 150.047 20.3376 150.592 21.6855C150.854 22.4088 150.854 23.1789 150.592 23.9023C150.302 24.6873 149.782 25.4021 149.077 25.9839L149.106 25.8796C149.731 27.2893 150.414 28.8186 151.119 30.4137L151.162 30.5102L151.044 30.545L149.967 30.8385L147.614 31.4834L147.496 31.5143L147.459 31.4178C146.814 29.8189 146.108 28.3282 145.577 26.8644L145.68 26.9301C144.761 26.8674 143.884 26.584 143.158 26.1152C142.502 25.7005 141.965 25.1733 141.582 24.5704C141.237 24.0357 141.066 23.4373 141.084 22.8325C141.105 22.2143 141.293 21.6078 141.634 21.0563C141.975 20.5048 142.46 20.022 143.055 19.6424C143.3 19.4793 143.575 19.349 143.869 19.2562C143.603 19.3857 143.346 19.5262 143.097 19.6772C142.444 20.1309 141.943 20.7147 141.643 21.3726C141.386 21.8688 141.266 22.4055 141.291 22.9444C141.316 23.4832 141.486 24.0108 141.789 24.4893C142.165 25.0693 142.69 25.5753 143.328 25.9723C144.02 26.4179 144.856 26.6865 145.732 26.7447H145.812L145.836 26.8027C146.353 28.2393 147.064 29.7417 147.718 31.3483L147.562 31.2865L149.915 30.6415L150.988 30.3441L150.912 30.4754C150.211 28.8804 149.534 27.3472 148.913 25.9376V25.8796L148.969 25.8333C149.653 25.2756 150.163 24.5906 150.456 23.8366C150.705 23.1447 150.705 22.4083 150.456 21.7164C149.943 20.4187 148.884 19.4339 147.736 19.0863C147.228 18.9255 146.686 18.8506 146.141 18.8662C145.735 18.8738 145.331 18.9192 144.937 19.0013C144.236 19.1442 143.907 19.2756 143.902 19.2562Z" fill="#263238"/>
<path d="M129.359 130.769L82.3603 130.591C79.6461 130.579 77.0489 129.683 75.139 128.1C73.2291 126.517 72.1627 124.377 72.1739 122.149L72.6726 25.4395C72.6782 24.3357 72.9487 23.2437 73.4687 22.2258C73.9887 21.2079 74.748 20.2841 75.7032 19.5073C76.6584 18.7304 77.7907 18.1156 79.0355 17.6982C80.2803 17.2807 81.6131 17.0687 82.9578 17.0743L129.951 17.252C132.666 17.2632 135.263 18.1582 137.174 19.7404C139.085 21.3226 140.152 23.4627 140.142 25.6905L139.644 122.396C139.638 123.5 139.368 124.592 138.848 125.611C138.328 126.629 137.569 127.553 136.614 128.331C135.659 129.108 134.526 129.724 133.282 130.142C132.037 130.56 130.704 130.773 129.359 130.769Z" fill="#455A64"/>
<path d="M129.881 20.5772H120.772C120.475 20.5817 120.182 20.6343 119.909 20.7318C119.637 20.8294 119.39 20.9701 119.184 21.1458C118.978 21.3215 118.816 21.5289 118.707 21.756C118.599 21.9832 118.546 22.2257 118.551 22.4696V23.8252C118.557 24.069 118.504 24.3112 118.395 24.5382C118.287 24.7651 118.124 24.9722 117.918 25.1476C117.712 25.3231 117.465 25.4633 117.193 25.5605C116.921 25.6576 116.627 25.7097 116.33 25.7137L98.5738 25.6481C97.9731 25.6349 97.4033 25.4266 96.9896 25.0689C96.5758 24.7112 96.352 24.2333 96.3671 23.7402V22.3846C96.3823 21.8922 96.1591 21.4149 95.7464 21.0573C95.3336 20.6997 94.7651 20.4909 94.1652 20.4768H90.9611L82.9861 20.4459C81.0892 20.4366 79.2652 21.0447 77.9133 22.137C76.5614 23.2293 75.7919 24.7167 75.7733 26.2737L75.3028 120.67C75.2985 121.442 75.4795 122.208 75.8356 122.923C76.1918 123.638 76.716 124.288 77.3783 124.837C78.0406 125.385 78.8282 125.822 79.6959 126.12C80.5636 126.419 81.4946 126.575 82.4356 126.578L129.335 126.756C130.277 126.76 131.21 126.611 132.082 126.318C132.953 126.026 133.746 125.595 134.415 125.051C135.084 124.507 135.616 123.86 135.98 123.148C136.344 122.435 136.534 121.67 136.538 120.897L137.009 26.5016C137.02 24.9402 136.276 23.4391 134.939 22.3281C133.602 21.2172 131.783 20.5874 129.881 20.5772Z" fill="white"/>
<path d="M123.571 114.162L88.6979 114.038C88.3356 114.038 88.0439 113.714 88.0486 113.32L88.0863 105.832C88.0863 105.445 88.3827 105.113 88.745 105.113L123.619 105.245C123.819 105.273 123.999 105.364 124.12 105.499C124.241 105.633 124.294 105.801 124.268 105.967L124.235 113.448C124.235 113.845 123.934 114.166 123.571 114.162Z" fill="#355B5E"/>
<path d="M96.3811 109.13C96.3555 108.914 96.2518 108.747 96.07 108.627C95.8882 108.508 95.6652 108.448 95.401 108.448C95.2078 108.448 95.0388 108.48 94.8939 108.542C94.7504 108.605 94.6382 108.69 94.5572 108.8C94.4777 108.909 94.4379 109.034 94.4379 109.173C94.4379 109.289 94.4656 109.389 94.521 109.473C94.5778 109.556 94.6503 109.624 94.7383 109.68C94.8264 109.734 94.9187 109.779 95.0153 109.814C95.1119 109.848 95.2007 109.876 95.2816 109.897L95.7248 110.016C95.8385 110.046 95.9649 110.087 96.1041 110.14C96.2447 110.193 96.379 110.264 96.5068 110.355C96.6361 110.445 96.7426 110.56 96.8264 110.7C96.9102 110.841 96.9521 111.014 96.9521 111.218C96.9521 111.454 96.8903 111.667 96.7667 111.857C96.6446 112.048 96.4656 112.199 96.2298 112.311C95.9954 112.423 95.7106 112.48 95.3754 112.48C95.0629 112.48 94.7923 112.429 94.5636 112.328C94.3363 112.227 94.1574 112.087 94.0267 111.906C93.8974 111.726 93.8243 111.516 93.8072 111.278H94.3527C94.3669 111.443 94.4223 111.579 94.5189 111.687C94.6169 111.793 94.7405 111.873 94.8896 111.926C95.0402 111.977 95.2021 112.002 95.3754 112.002C95.5771 112.002 95.7582 111.97 95.9187 111.904C96.0792 111.837 96.2064 111.745 96.3001 111.627C96.3939 111.508 96.4407 111.369 96.4407 111.21C96.4407 111.065 96.4003 110.947 96.3193 110.856C96.2383 110.765 96.1318 110.691 95.9997 110.634C95.8676 110.578 95.7248 110.528 95.5714 110.485L95.0345 110.332C94.6936 110.234 94.4237 110.094 94.2248 109.912C94.026 109.73 93.9265 109.492 93.9265 109.198C93.9265 108.954 93.9926 108.741 94.1247 108.559C94.2582 108.376 94.4372 108.234 94.6616 108.133C94.8875 108.031 95.1396 107.98 95.418 107.98C95.6993 107.98 95.9493 108.03 96.168 108.131C96.3868 108.23 96.5601 108.367 96.6879 108.54C96.8172 108.713 96.8853 108.91 96.8924 109.13H96.3811ZM98.3493 108.039V112.403H97.8209V108.039H98.3493ZM102.869 108.039V112.403H102.358L99.9798 108.977H99.9372V112.403H99.4088V108.039H99.9201L102.307 111.474H102.349V108.039H102.869ZM106.909 109.403C106.862 109.259 106.801 109.131 106.724 109.017C106.649 108.902 106.558 108.804 106.453 108.723C106.35 108.642 106.232 108.58 106.1 108.538C105.968 108.495 105.823 108.474 105.665 108.474C105.406 108.474 105.171 108.541 104.96 108.674C104.748 108.808 104.58 109.004 104.455 109.264C104.33 109.524 104.267 109.843 104.267 110.221C104.267 110.599 104.33 110.918 104.457 111.178C104.583 111.438 104.754 111.634 104.97 111.768C105.186 111.901 105.429 111.968 105.699 111.968C105.949 111.968 106.169 111.915 106.36 111.808C106.551 111.7 106.701 111.548 106.807 111.352C106.915 111.155 106.969 110.923 106.969 110.656L107.131 110.69H105.818V110.221H107.48V110.69C107.48 111.049 107.404 111.362 107.25 111.627C107.098 111.893 106.888 112.099 106.62 112.245C106.352 112.39 106.046 112.462 105.699 112.462C105.313 112.462 104.973 112.372 104.681 112.19C104.389 112.008 104.162 111.749 103.999 111.414C103.837 111.079 103.756 110.681 103.756 110.221C103.756 109.876 103.802 109.565 103.894 109.29C103.988 109.013 104.12 108.777 104.291 108.583C104.461 108.388 104.663 108.239 104.896 108.135C105.129 108.031 105.385 107.98 105.665 107.98C105.895 107.98 106.11 108.014 106.308 108.084C106.509 108.152 106.687 108.249 106.843 108.376C107.001 108.501 107.132 108.651 107.237 108.825C107.343 108.999 107.415 109.191 107.455 109.403H106.909ZM112.936 108.039H113.465V110.928C113.465 111.227 113.395 111.493 113.254 111.727C113.115 111.96 112.918 112.144 112.664 112.279C112.409 112.413 112.111 112.48 111.769 112.48C111.427 112.48 111.128 112.413 110.874 112.279C110.62 112.144 110.422 111.96 110.282 111.727C110.142 111.493 110.073 111.227 110.073 110.928V108.039H110.601V110.886C110.601 111.099 110.648 111.288 110.742 111.455C110.836 111.619 110.969 111.749 111.142 111.845C111.317 111.938 111.526 111.985 111.769 111.985C112.012 111.985 112.221 111.938 112.395 111.845C112.57 111.749 112.704 111.619 112.796 111.455C112.89 111.288 112.936 111.099 112.936 110.886V108.039ZM114.52 112.403V108.039H115.995C116.337 108.039 116.617 108.101 116.834 108.225C117.053 108.347 117.215 108.512 117.32 108.721C117.425 108.93 117.477 109.163 117.477 109.42C117.477 109.677 117.425 109.911 117.32 110.121C117.216 110.331 117.056 110.499 116.838 110.624C116.621 110.747 116.343 110.809 116.003 110.809H114.946V110.34H115.986C116.22 110.34 116.409 110.3 116.551 110.219C116.693 110.138 116.796 110.029 116.86 109.891C116.925 109.752 116.958 109.595 116.958 109.42C116.958 109.245 116.925 109.089 116.86 108.951C116.796 108.813 116.692 108.705 116.549 108.627C116.405 108.548 116.215 108.508 115.977 108.508H115.049V112.403H114.52Z" fill="#E8E8E3"/>
<path d="M95.6539 48.3261L83.5527 48.281L83.5427 50.1039L95.6438 50.1489L95.6539 48.3261Z" fill="#355B5E"/>
<path opacity="0.1" d="M95.6539 48.3261L83.5527 48.281L83.5427 50.1039L95.6438 50.1489L95.6539 48.3261Z" fill="black"/>
<path d="M131.128 59.5181C131.223 59.5102 131.316 59.492 131.405 59.464C131.536 59.4222 131.649 59.3511 131.732 59.2589C131.815 59.1667 131.865 59.0571 131.876 58.9426C131.876 58.3286 131.876 57.4326 131.876 56.2817C131.876 55.7063 131.876 55.0613 131.876 54.3507C131.876 54.1769 131.876 53.9954 131.876 53.8139C131.906 53.6377 131.86 53.4584 131.744 53.3079C131.679 53.2358 131.595 53.177 131.498 53.1361C131.401 53.0952 131.293 53.0734 131.184 53.0724H130.45H123.651L84.2988 52.9526C84.198 52.9512 84.0984 52.9698 84.0083 53.0068C83.9182 53.0438 83.8403 53.0981 83.7812 53.165C83.6676 53.3161 83.6242 53.4957 83.6589 53.671C83.6589 54.0572 83.6589 54.4434 83.6589 54.8296C83.6589 55.602 83.6589 56.3744 83.6589 57.1468C83.6589 57.533 83.6589 57.9192 83.6589 58.3054C83.6394 58.4853 83.6394 58.6662 83.6589 58.8461C83.6836 58.9232 83.7295 58.9946 83.7932 59.0549C83.8568 59.1152 83.9364 59.1626 84.0259 59.1937C84.1186 59.224 84.2178 59.2384 84.3176 59.2362H86.7124L97.1623 59.2825L114.853 59.3713L126.78 59.4486L130.022 59.4795H130.864C131.057 59.4795 131.151 59.4795 131.151 59.4795H130.864H130.022H126.78H114.853L97.1623 59.4331L86.7124 59.3984H84.3176C84.1858 59.4027 84.0543 59.3843 83.9318 59.3443C83.8079 59.3009 83.6977 59.2349 83.6096 59.1512C83.5216 59.0675 83.458 58.9685 83.4236 58.8615C83.3964 58.7602 83.3869 58.6561 83.3954 58.5526V58.2668C83.3954 57.8806 83.3954 57.4944 83.3954 57.1082C83.3954 56.3358 83.3954 55.5634 83.3954 54.791C83.3954 54.4048 83.3954 54.0186 83.3954 53.6324C83.3864 53.5295 83.3864 53.4262 83.3954 53.3234C83.413 53.2098 83.4666 53.1019 83.5507 53.0106C83.6318 52.9173 83.7393 52.8416 83.8638 52.7898C83.9883 52.738 84.1262 52.7118 84.2658 52.7132L123.619 52.8908L130.417 52.9295H131.151C131.281 52.9295 131.408 52.9552 131.523 53.0043C131.637 53.0534 131.736 53.1244 131.81 53.2114C131.943 53.3793 131.996 53.5811 131.961 53.7791C131.961 53.9606 131.961 54.1421 131.961 54.3159C131.961 55.0188 131.961 55.6638 131.961 56.2469C131.961 57.4056 131.928 58.2938 131.918 58.9117C131.907 59.0306 131.854 59.1442 131.767 59.2393C131.679 59.3344 131.56 59.407 131.424 59.4486C131.335 59.4939 131.232 59.5179 131.128 59.5181Z" fill="#E0E0E0"/>
<path d="M109.32 54.8914H87.1875V56.5945H109.32V54.8914Z" fill="#355B5E"/>
<path opacity="0.2" d="M109.32 54.8914H87.1875V56.5945H109.32V54.8914Z" fill="white"/>
<path d="M95.5711 64.9555L83.47 64.9104L83.4599 66.7333L95.561 66.7783L95.5711 64.9555Z" fill="#355B5E"/>
<path opacity="0.1" d="M95.5711 64.9555L83.47 64.9104L83.4599 66.7333L95.561 66.7783L95.5711 64.9555Z" fill="black"/>
<path d="M130.822 76.1479C130.917 76.1383 131.011 76.1241 131.104 76.1054C131.236 76.0711 131.357 76.014 131.459 75.9381C131.561 75.8621 131.642 75.7691 131.697 75.6652C131.771 75.5093 131.8 75.3414 131.782 75.1747C131.782 74.9893 131.782 74.7885 131.782 74.5645C131.782 74.1165 131.782 73.6067 131.782 73.0197V70.5673C131.804 70.3897 131.756 70.211 131.645 70.0575C131.529 69.9001 131.347 69.7832 131.132 69.7292C130.898 69.6949 130.659 69.6845 130.422 69.6983H123.651L84.4352 69.5786C84.2243 69.579 84.0207 69.6423 83.8623 69.7566C83.704 69.871 83.6016 70.0287 83.5742 70.2004C83.5742 70.5673 83.5742 70.9728 83.5742 71.359C83.5742 72.1314 83.5742 72.9038 83.5742 73.6762C83.5742 74.0624 83.5742 74.4486 83.5742 74.8348C83.5567 75.0153 83.5662 75.1969 83.6024 75.3755C83.6612 75.5321 83.7821 75.6681 83.9459 75.7617C84.1197 75.8522 84.3239 75.8955 84.5293 75.8853H85.1833H86.5431L96.9553 75.9278L114.585 76.0166L126.47 76.0938L129.702 76.1247H126.47H114.585L96.9458 76.1093L86.5337 76.0784H84.487C84.2325 76.0908 83.98 76.0352 83.7671 75.9201C83.553 75.7983 83.3968 75.6196 83.3249 75.4141C83.2827 75.2179 83.27 75.0181 83.2872 74.8194C83.2872 74.4332 83.2872 74.047 83.2872 73.6608C83.2872 72.8884 83.2872 72.116 83.2872 71.3435C83.2872 70.9573 83.2872 70.5711 83.2872 70.1849C83.3215 69.9641 83.4527 69.7611 83.6563 69.614C83.8598 69.4668 84.1217 69.3856 84.3929 69.3855L123.609 69.5631L130.38 69.6056C130.632 69.5929 130.885 69.6072 131.132 69.6481C131.377 69.7137 131.583 69.8513 131.711 70.0343C131.833 70.2044 131.886 70.4019 131.862 70.5982C131.862 70.7797 131.862 70.9573 131.862 71.135C131.862 71.834 131.862 72.4751 131.862 73.066C131.862 73.6569 131.862 74.1551 131.862 74.6108C131.862 74.831 131.862 75.0357 131.862 75.2249C131.879 75.3976 131.845 75.5712 131.763 75.7308C131.702 75.8374 131.613 75.9319 131.504 76.0079C131.394 76.0838 131.266 76.1395 131.128 76.1711C131.025 76.1781 130.921 76.1702 130.822 76.1479Z" fill="#E0E0E0"/>
<path d="M95.4803 82.307L83.3792 82.262L83.3691 84.0848L95.4702 84.1299L95.4803 82.307Z" fill="#355B5E"/>
<path opacity="0.1" d="M95.4803 82.307L83.3792 82.262L83.3691 84.0848L95.4702 84.1299L95.4803 82.307Z" fill="black"/>
<path d="M130.728 93.4923C130.823 93.4831 130.917 93.4689 131.01 93.4498C131.141 93.4157 131.261 93.3591 131.364 93.2839C131.466 93.2087 131.547 93.1165 131.603 93.0134C131.677 92.8574 131.706 92.6896 131.688 92.5229C131.688 92.3337 131.688 92.1367 131.688 91.9089C131.688 91.4648 131.688 90.9511 131.688 90.3641V87.9117C131.71 87.7341 131.662 87.5554 131.551 87.4019C131.432 87.2474 131.251 87.1324 131.038 87.0775C130.804 87.0418 130.566 87.0301 130.328 87.0427H123.557L84.3411 86.923C84.1302 86.9234 83.9266 86.9867 83.7682 87.101C83.6099 87.2154 83.5075 87.3731 83.4801 87.5448C83.4801 87.931 83.4801 88.3172 83.4801 88.7034C83.4801 89.4758 83.4801 90.2482 83.4801 91.0206C83.4801 91.4068 83.4801 91.793 83.4801 92.1792C83.4626 92.3584 83.4721 92.5387 83.5083 92.716C83.5647 92.8736 83.6861 93.0102 83.8518 93.1023C84.0245 93.1948 84.2295 93.2382 84.4352 93.2258H86.4819L96.8941 93.2722L114.524 93.361L126.409 93.4382L129.641 93.4691H126.409H114.524L96.8941 93.4267L86.4819 93.3919H84.4352C84.1805 93.406 83.9273 93.3503 83.7154 93.2336C83.5013 93.1118 83.345 92.9331 83.2731 92.7276C83.2309 92.5314 83.2183 92.3316 83.2355 92.1329C83.2355 91.7467 83.2355 91.3605 83.2355 90.9743C83.2355 90.2019 83.2355 89.4295 83.2355 88.657C83.2355 88.2708 83.2355 87.8846 83.2355 87.4791C83.2687 87.2586 83.399 87.0557 83.6017 86.9085C83.8045 86.7612 84.0657 86.6799 84.3364 86.6797L123.553 86.8573L130.323 86.8998C130.575 86.8871 130.828 86.9014 131.076 86.9423C131.32 87.0079 131.527 87.1455 131.655 87.3285C131.776 87.4986 131.829 87.6961 131.805 87.8924C131.805 88.0739 131.805 88.2554 131.805 88.4292C131.805 89.1282 131.805 89.7693 131.805 90.3602C131.805 90.9511 131.805 91.4493 131.805 91.905C131.805 92.1252 131.805 92.3298 131.805 92.5191C131.823 92.6918 131.789 92.8656 131.706 93.025C131.645 93.1316 131.557 93.2261 131.447 93.302C131.338 93.378 131.209 93.4337 131.071 93.4653C130.961 93.4963 130.843 93.5055 130.728 93.4923Z" fill="#E0E0E0"/>
<path d="M108.847 72.0028L86.7153 71.9204L86.7059 73.6235L108.838 73.706L108.847 72.0028Z" fill="#355B5E"/>
<path opacity="0.2" d="M108.847 72.0028L86.7153 71.9204L86.7059 73.6235L108.838 73.706L108.847 72.0028Z" fill="white"/>
<path d="M88.7166 90.3409C88.7027 90.4962 88.6336 90.6448 88.5178 90.7682C88.402 90.8916 88.2446 90.9843 88.0651 91.035C87.8857 91.0856 87.6921 91.0919 87.5083 91.0531C87.3245 91.0142 87.1587 90.932 87.0313 90.8165C86.904 90.701 86.8208 90.5573 86.792 90.4034C86.7632 90.2494 86.7901 90.0919 86.8693 89.9504C86.9486 89.8088 87.0767 89.6895 87.2378 89.6072C87.3989 89.5249 87.5859 89.4832 87.7756 89.4873C88.0377 89.4993 88.2835 89.5957 88.4597 89.7554C88.6359 89.9152 88.7282 90.1256 88.7166 90.3409Z" fill="#355B5E"/>
<path d="M91.7137 90.3527C91.723 90.4616 91.7048 90.5708 91.6604 90.6737C91.616 90.7766 91.5463 90.8709 91.4556 90.9507C91.3649 91.0305 91.2552 91.0942 91.1333 91.1377C91.0113 91.1812 90.8798 91.2037 90.7468 91.2037C90.6138 91.2037 90.4823 91.1812 90.3604 91.1377C90.2384 91.0942 90.1287 91.0305 90.038 90.9507C89.9473 90.8709 89.8776 90.7766 89.8332 90.6737C89.7888 90.5708 89.7707 90.4616 89.7799 90.3527C89.7707 90.2438 89.7888 90.1345 89.8332 90.0317C89.8776 89.9288 89.9473 89.8345 90.038 89.7547C90.1287 89.6749 90.2384 89.6112 90.3604 89.5677C90.4823 89.5242 90.6138 89.5017 90.7468 89.5017C90.8798 89.5017 91.0113 89.5242 91.1333 89.5677C91.2552 89.6112 91.3649 89.6749 91.4556 89.7547C91.5463 89.8345 91.616 89.9288 91.6604 90.0317C91.7048 90.1345 91.723 90.2438 91.7137 90.3527Z" fill="#355B5E"/>
<path d="M94.7156 90.3641C94.7018 90.5194 94.6326 90.668 94.5168 90.7914C94.401 90.9148 94.2436 91.0075 94.0642 91.0582C93.8847 91.1088 93.6911 91.1151 93.5073 91.0763C93.3235 91.0374 93.1577 90.9552 93.0304 90.8397C92.903 90.7242 92.8198 90.5805 92.791 90.4266C92.7622 90.2726 92.7891 90.1151 92.8684 89.9736C92.9476 89.832 93.0757 89.7127 93.2368 89.6304C93.398 89.5481 93.5849 89.5064 93.7746 89.5105C94.0363 89.5235 94.2814 89.6201 94.4573 89.7797C94.6332 89.9392 94.726 90.149 94.7156 90.3641Z" fill="#355B5E"/>
<path d="M97.7127 90.3758C97.6988 90.5311 97.6297 90.6797 97.5139 90.8031C97.3981 90.9265 97.2407 91.0193 97.0612 91.0699C96.8818 91.1206 96.6882 91.1268 96.5044 91.088C96.3206 91.0492 96.1548 90.9669 96.0274 90.8514C95.9001 90.7359 95.8169 90.5923 95.7881 90.4383C95.7593 90.2843 95.7862 90.1268 95.8654 89.9853C95.9447 89.8438 96.0728 89.7244 96.2339 89.6421C96.395 89.5598 96.582 89.5181 96.7717 89.5223C97.0334 89.5352 97.2785 89.6318 97.4544 89.7914C97.6303 89.951 97.723 90.1607 97.7127 90.3758Z" fill="#355B5E"/>
<path d="M100.71 90.3836C100.697 90.5392 100.628 90.6882 100.513 90.8122C100.398 90.9361 100.24 91.0295 100.061 91.0807C99.8816 91.1319 99.6878 91.1387 99.5037 91.1003C99.3196 91.0618 99.1533 90.9798 99.0255 90.8644C98.8977 90.7491 98.814 90.6054 98.7849 90.4513C98.7558 90.2972 98.7825 90.1395 98.8616 89.9977C98.9408 89.856 99.069 89.7364 99.2302 89.654C99.3915 89.5715 99.5787 89.5298 99.7686 89.534C100.029 89.5469 100.274 89.643 100.45 89.8017C100.625 89.9605 100.719 90.1693 100.71 90.3836Z" fill="#355B5E"/>
<path d="M103.711 90.3951C103.699 90.5498 103.631 90.6981 103.517 90.8218C103.402 90.9454 103.247 91.0389 103.069 91.0908C102.89 91.1426 102.698 91.1507 102.514 91.1138C102.331 91.077 102.164 90.9969 102.035 90.8834C101.906 90.7699 101.821 90.6279 101.789 90.475C101.757 90.3221 101.78 90.1649 101.856 90.0227C101.932 89.8805 102.056 89.7596 102.215 89.6748C102.373 89.59 102.558 89.545 102.747 89.5454C103.012 89.5535 103.262 89.6474 103.443 89.8067C103.624 89.9659 103.72 90.1775 103.711 90.3951Z" fill="#355B5E"/>
<path d="M106.709 90.4066C106.718 90.5155 106.7 90.6248 106.656 90.7277C106.611 90.8306 106.541 90.9248 106.451 91.0047C106.36 91.0845 106.25 91.1481 106.128 91.1916C106.006 91.2352 105.875 91.2576 105.742 91.2576C105.609 91.2576 105.477 91.2352 105.355 91.1916C105.234 91.1481 105.124 91.0845 105.033 91.0047C104.942 90.9248 104.873 90.8306 104.828 90.7277C104.784 90.6248 104.766 90.5155 104.775 90.4066C104.766 90.2978 104.784 90.1885 104.828 90.0856C104.873 89.9827 104.942 89.8884 105.033 89.8086C105.124 89.7288 105.234 89.6652 105.355 89.6216C105.477 89.5781 105.609 89.5557 105.742 89.5557C105.875 89.5557 106.006 89.5781 106.128 89.6216C106.25 89.6652 106.36 89.7288 106.451 89.8086C106.541 89.8884 106.611 89.9827 106.656 90.0856C106.7 90.1885 106.718 90.2978 106.709 90.4066Z" fill="#355B5E"/>
<path d="M109.706 90.4182C109.693 90.573 109.625 90.7213 109.511 90.8449C109.397 90.9686 109.241 91.062 109.063 91.1139C108.885 91.1658 108.692 91.1738 108.509 91.137C108.325 91.1001 108.159 91.02 108.03 90.9065C107.901 90.793 107.815 90.6511 107.783 90.4982C107.752 90.3453 107.775 90.1881 107.85 90.0459C107.926 89.9037 108.051 89.7828 108.209 89.698C108.367 89.6132 108.552 89.5682 108.741 89.5686C109.006 89.5767 109.257 89.6706 109.437 89.8299C109.618 89.9891 109.715 90.2007 109.706 90.4182Z" fill="#355B5E"/>
<path d="M112.703 90.4298C112.69 90.5853 112.621 90.7344 112.506 90.8583C112.391 90.9822 112.234 91.0756 112.054 91.1268C111.875 91.1781 111.681 91.1849 111.497 91.1464C111.313 91.108 111.146 91.026 111.019 90.9106C110.891 90.7952 110.807 90.6515 110.778 90.4974C110.749 90.3433 110.776 90.1856 110.855 90.0438C110.934 89.9021 111.062 89.7826 111.223 89.7001C111.385 89.6177 111.572 89.5759 111.762 89.5801C112.023 89.5931 112.267 89.6892 112.443 89.8479C112.619 90.0066 112.712 90.2154 112.703 90.4298Z" fill="#355B5E"/>
<g opacity="0.2">
<path d="M88.7166 90.3409C88.7027 90.4962 88.6336 90.6448 88.5178 90.7682C88.402 90.8916 88.2446 90.9843 88.0651 91.035C87.8857 91.0856 87.6921 91.0919 87.5083 91.0531C87.3245 91.0142 87.1587 90.932 87.0313 90.8165C86.904 90.701 86.8208 90.5573 86.792 90.4034C86.7632 90.2494 86.7901 90.0919 86.8693 89.9504C86.9486 89.8088 87.0767 89.6895 87.2378 89.6072C87.3989 89.5249 87.5859 89.4832 87.7756 89.4873C88.0377 89.4993 88.2835 89.5957 88.4597 89.7554C88.6359 89.9152 88.7282 90.1256 88.7166 90.3409Z" fill="white"/>
<path d="M91.7137 90.3524C91.723 90.4613 91.7048 90.5706 91.6604 90.6735C91.616 90.7764 91.5463 90.8706 91.4556 90.9505C91.3649 91.0303 91.2552 91.0939 91.1333 91.1374C91.0113 91.181 90.8798 91.2034 90.7468 91.2034C90.6138 91.2034 90.4823 91.181 90.3604 91.1374C90.2384 91.0939 90.1287 91.0303 90.038 90.9505C89.9473 90.8706 89.8776 90.7764 89.8332 90.6735C89.7888 90.5706 89.7707 90.4613 89.7799 90.3524C89.7707 90.2436 89.7888 90.1343 89.8332 90.0314C89.8776 89.9285 89.9473 89.8342 90.038 89.7544C90.1287 89.6746 90.2384 89.611 90.3604 89.5674C90.4823 89.5239 90.6138 89.5015 90.7468 89.5015C90.8798 89.5015 91.0113 89.5239 91.1333 89.5674C91.2552 89.611 91.3649 89.6746 91.4556 89.7544C91.5463 89.8342 91.616 89.9285 91.6604 90.0314C91.7048 90.1343 91.723 90.2436 91.7137 90.3524Z" fill="white"/>
<path d="M94.7156 90.3638C94.7018 90.5192 94.6326 90.6677 94.5168 90.7911C94.401 90.9145 94.2436 91.0073 94.0642 91.0579C93.8847 91.1086 93.6911 91.1149 93.5073 91.076C93.3235 91.0372 93.1577 90.9549 93.0304 90.8394C92.903 90.7239 92.8198 90.5803 92.791 90.4263C92.7622 90.2724 92.7891 90.1149 92.8684 89.9733C92.9476 89.8318 93.0757 89.7125 93.2368 89.6302C93.398 89.5479 93.5849 89.5062 93.7746 89.5103C94.0363 89.5233 94.2814 89.6199 94.4573 89.7794C94.6332 89.939 94.726 90.1488 94.7156 90.3638Z" fill="white"/>
<path d="M97.7127 90.3755C97.6988 90.5309 97.6297 90.6795 97.5139 90.8028C97.3981 90.9262 97.2407 91.019 97.0612 91.0697C96.8818 91.1203 96.6882 91.1266 96.5044 91.0878C96.3206 91.0489 96.1548 90.9666 96.0274 90.8511C95.9001 90.7357 95.8169 90.592 95.7881 90.4381C95.7593 90.2841 95.7862 90.1266 95.8654 89.985C95.9447 89.8435 96.0728 89.7242 96.2339 89.6419C96.395 89.5596 96.582 89.5179 96.7717 89.522C97.0334 89.535 97.2785 89.6316 97.4544 89.7912C97.6303 89.9507 97.723 90.1605 97.7127 90.3755Z" fill="white"/>
<path d="M100.71 90.3834C100.697 90.539 100.628 90.688 100.513 90.8119C100.398 90.9358 100.24 91.0292 100.061 91.0805C99.8816 91.1317 99.6878 91.1385 99.5037 91.1C99.3196 91.0616 99.1533 90.9796 99.0255 90.8642C98.8977 90.7488 98.814 90.6051 98.7849 90.451C98.7558 90.2969 98.7825 90.1392 98.8616 89.9975C98.9408 89.8557 99.069 89.7362 99.2302 89.6537C99.3915 89.5713 99.5787 89.5296 99.7686 89.5337C100.029 89.5467 100.274 89.6428 100.45 89.8015C100.625 89.9602 100.719 90.169 100.71 90.3834Z" fill="white"/>
<path d="M103.711 90.3951C103.699 90.5498 103.631 90.6981 103.517 90.8218C103.402 90.9454 103.247 91.0389 103.069 91.0908C102.89 91.1426 102.698 91.1507 102.514 91.1138C102.331 91.077 102.164 90.9969 102.035 90.8834C101.906 90.7699 101.821 90.6279 101.789 90.475C101.757 90.3221 101.78 90.1649 101.856 90.0227C101.932 89.8805 102.056 89.7596 102.215 89.6748C102.373 89.59 102.558 89.545 102.747 89.5454C103.012 89.5535 103.262 89.6474 103.443 89.8067C103.624 89.9659 103.72 90.1775 103.711 90.3951Z" fill="white"/>
<path d="M106.709 90.4066C106.718 90.5155 106.7 90.6248 106.656 90.7277C106.611 90.8306 106.541 90.9248 106.451 91.0047C106.36 91.0845 106.25 91.1481 106.128 91.1916C106.006 91.2352 105.875 91.2576 105.742 91.2576C105.609 91.2576 105.477 91.2352 105.355 91.1916C105.234 91.1481 105.124 91.0845 105.033 91.0047C104.942 90.9248 104.873 90.8306 104.828 90.7277C104.784 90.6248 104.766 90.5155 104.775 90.4066C104.766 90.2978 104.784 90.1885 104.828 90.0856C104.873 89.9827 104.942 89.8884 105.033 89.8086C105.124 89.7288 105.234 89.6652 105.355 89.6216C105.477 89.5781 105.609 89.5557 105.742 89.5557C105.875 89.5557 106.006 89.5781 106.128 89.6216C106.25 89.6652 106.36 89.7288 106.451 89.8086C106.541 89.8884 106.611 89.9827 106.656 90.0856C106.7 90.1885 106.718 90.2978 106.709 90.4066Z" fill="white"/>
<path d="M109.706 90.4182C109.693 90.573 109.625 90.7213 109.511 90.8449C109.397 90.9686 109.241 91.062 109.063 91.1139C108.885 91.1658 108.692 91.1738 108.509 91.137C108.325 91.1001 108.159 91.02 108.03 90.9065C107.901 90.793 107.815 90.6511 107.783 90.4982C107.752 90.3453 107.775 90.1881 107.85 90.0459C107.926 89.9037 108.051 89.7828 108.209 89.698C108.367 89.6132 108.552 89.5682 108.741 89.5686C109.006 89.5767 109.257 89.6706 109.437 89.8299C109.618 89.9891 109.715 90.2007 109.706 90.4182Z" fill="white"/>
<path d="M112.703 90.4298C112.69 90.5853 112.621 90.7344 112.506 90.8583C112.391 90.9822 112.234 91.0756 112.054 91.1268C111.875 91.1781 111.681 91.1849 111.497 91.1464C111.313 91.108 111.146 91.026 111.019 90.9106C110.891 90.7952 110.807 90.6515 110.778 90.4974C110.749 90.3433 110.776 90.1856 110.855 90.0438C110.934 89.9021 111.062 89.7826 111.223 89.7001C111.385 89.6177 111.572 89.5759 111.762 89.5801C112.023 89.5931 112.267 89.6892 112.443 89.8479C112.619 90.0066 112.712 90.2154 112.703 90.4298Z" fill="white"/>
</g>
<path d="M108.445 34.6774C108.772 34.5593 109.049 34.3649 109.242 34.1183C109.436 33.8718 109.536 33.5841 109.532 33.291C109.544 33.1004 109.509 32.9098 109.428 32.7308C109.348 32.5518 109.224 32.3881 109.064 32.2497C108.904 32.1112 108.711 32.001 108.498 31.9257C108.284 31.8504 108.054 31.8115 107.821 31.8115C107.589 31.8115 107.359 31.8504 107.145 31.9257C106.932 32.001 106.739 32.1112 106.579 32.2497C106.419 32.3881 106.295 32.5518 106.215 32.7308C106.134 32.9098 106.099 33.1004 106.111 33.291C106.104 33.587 106.204 33.8782 106.398 34.1277C106.592 34.3772 106.872 34.5739 107.203 34.6929C104.568 35.0173 104.686 37.3654 104.686 37.3654L110.915 37.3886C110.915 37.3886 111.061 34.998 108.445 34.6774Z" fill="#355B5E"/>
<path opacity="0.1" d="M108.445 34.6774C108.772 34.5593 109.049 34.3649 109.242 34.1183C109.436 33.8718 109.536 33.5841 109.532 33.291C109.544 33.1004 109.509 32.9098 109.428 32.7308C109.348 32.5518 109.224 32.3881 109.064 32.2497C108.904 32.1112 108.711 32.001 108.498 31.9257C108.284 31.8504 108.054 31.8115 107.821 31.8115C107.589 31.8115 107.359 31.8504 107.145 31.9257C106.932 32.001 106.739 32.1112 106.579 32.2497C106.419 32.3881 106.295 32.5518 106.215 32.7308C106.134 32.9098 106.099 33.1004 106.111 33.291C106.104 33.587 106.204 33.8782 106.398 34.1277C106.592 34.3772 106.872 34.5739 107.203 34.6929C104.568 35.0173 104.686 37.3654 104.686 37.3654L110.915 37.3886C110.915 37.3886 111.061 34.998 108.445 34.6774Z" fill="black"/>
<path d="M118.567 38.903L96.3647 38.8203L96.3527 40.9985L118.555 41.0812L118.567 38.903Z" fill="#355B5E"/>
<path opacity="0.2" d="M118.567 38.903L96.3647 38.8203L96.3527 40.9985L118.555 41.0812L118.567 38.903Z" fill="white"/>
<path d="M36.9428 50.1912H36.7217L36.0818 50.2298C35.7355 50.2469 35.3911 50.2843 35.0514 50.3418C34.8313 50.3672 34.613 50.402 34.3974 50.4461L33.6681 50.6122C32.4268 50.9247 31.2557 51.4008 30.2005 52.0218C28.8064 52.8524 27.6422 53.9159 26.7847 55.1423C26.2807 55.8493 25.8795 56.6024 25.5896 57.3862C25.285 58.238 25.1095 59.1175 25.0674 60.0046C25.0393 60.4706 25.0487 60.9377 25.0956 61.4027C25.0956 61.6383 25.1756 61.8738 25.2132 62.1133C25.2449 62.3547 25.2999 62.5936 25.3779 62.8278C25.801 64.3775 26.6594 65.8246 27.8848 67.0537C29.1101 68.2828 30.6684 69.2598 32.4354 69.9069C33.7143 70.3598 35.085 70.6126 36.477 70.6523C37.9147 70.7172 39.3539 70.5478 40.7115 70.154L41.1255 70.0266H41.182L41.2291 70.0498L47.1621 72.5215L46.988 72.6451C46.3528 71.0307 45.7412 69.4666 45.1483 67.9643V67.9063L45.2001 67.8639C46.6393 66.6739 47.7078 65.2167 48.3148 63.6156C48.8646 62.1519 49.025 60.6083 48.7853 59.0893C48.5721 57.7393 48.0433 56.4359 47.2279 55.2505C46.5252 54.2322 45.6185 53.3183 44.5461 52.547C43.6613 51.9366 42.682 51.425 41.6337 51.0254C40.8405 50.7446 40.0144 50.5311 39.1683 50.3882L38.2273 50.2607L37.545 50.2182L37.131 50.1951H36.9898C37.0368 50.1908 37.0841 50.1908 37.131 50.1951H37.5497L38.232 50.2182L39.173 50.3302C40.0296 50.4627 40.867 50.6685 41.6713 50.9443C42.7376 51.3391 43.7346 51.8496 44.6355 52.4621C45.7276 53.2299 46.6535 54.1439 47.3738 55.1655C48.2123 56.3636 48.7573 57.6848 48.9782 59.0546C49.2378 60.597 49.0886 62.1673 48.5406 63.6581C47.9297 65.2925 46.8447 66.7807 45.3789 67.9952L45.4071 67.8948C45.9999 69.3971 46.6163 70.9612 47.2562 72.5717L47.3456 72.8073L47.0774 72.6953L41.1444 70.2274H41.2479L40.8244 70.3549C39.4407 70.7546 37.9749 70.9278 36.5099 70.8647C35.0879 70.8202 33.6885 70.5583 32.3836 70.0923C29.8946 69.2172 27.8237 67.6964 26.4883 65.7629C25.8738 64.8699 25.425 63.9067 25.1568 62.905C25.0833 62.6648 25.0283 62.421 24.9921 62.1751C24.9544 61.9318 24.8933 61.6923 24.8792 61.4529C24.7518 60.0787 24.9288 58.697 25.4014 57.3746C25.6986 56.58 26.1108 55.8176 26.6294 55.1037C27.5074 53.8662 28.6958 52.7959 30.1158 51.9639C31.1884 51.3413 32.3792 50.8689 33.6399 50.5658L34.3786 50.4113C34.596 50.3699 34.8158 50.3377 35.0373 50.3148C35.3806 50.2626 35.7281 50.2316 36.0771 50.2221L36.7217 50.2028C36.795 50.1947 36.8688 50.1908 36.9428 50.1912Z" fill="#355B5E"/>
<path d="M39.6246 59.1974H38.7542L36.8722 57.027V55.6019C36.8722 55.6019 35.5265 55.5324 35.6865 57.3977C35.8465 59.2631 35.6865 58.7881 35.6865 58.7881C35.6865 58.7881 32.8306 58.7881 32.5953 59.0005C32.3601 59.2129 32.3459 61.476 32.313 62.7389C32.295 63.0434 32.4014 63.344 32.6154 63.5931C32.8293 63.8422 33.1386 64.0255 33.494 64.1138C33.5936 64.1365 33.6964 64.1482 33.7998 64.1486C34.5149 64.1486 38.1519 63.6735 38.1519 63.6735H39.6528L39.6246 59.1974Z" fill="#355B5E"/>
<path d="M42.1135 58.8152L41.5771 63.6968H40.0903V58.9156L42.1135 58.8152Z" fill="#355B5E"/>
<path d="M59.8464 158.197V154.895L52.6337 154.853L52.5725 159.846L53.0195 159.873C55.0097 159.977 63.1447 160.132 64.4809 159.792C65.9677 159.414 59.8464 158.197 59.8464 158.197Z" fill="#355B5E"/>
<path d="M64.6504 159.483C64.6504 159.537 61.9497 159.583 58.6233 159.583C55.2969 159.583 52.5962 159.537 52.5962 159.483C52.5962 159.429 55.2969 159.383 58.6233 159.383C61.9497 159.383 64.6504 159.429 64.6504 159.483Z" fill="#263238"/>
<path d="M59.9738 158.873C59.9126 158.846 59.9738 158.672 60.1196 158.487C60.2655 158.301 60.4631 158.224 60.5101 158.263C60.5572 158.301 60.4584 158.448 60.3172 158.606C60.1761 158.765 60.0349 158.9 59.9738 158.873Z" fill="#263238"/>
<path d="M60.4347 159.089C60.3688 159.089 60.4018 158.873 60.5429 158.668C60.6841 158.463 60.8723 158.34 60.924 158.371C60.9758 158.402 60.8911 158.575 60.7593 158.757C60.6276 158.938 60.4959 159.108 60.4347 159.089Z" fill="#263238"/>
<path d="M54.7701 159.467C54.7418 159.467 54.6336 159.398 54.4784 159.251C54.2888 159.063 54.0777 158.889 53.8479 158.734C53.6219 158.585 53.3527 158.488 53.0669 158.452C52.8457 158.429 52.7046 158.452 52.6904 158.429C52.6763 158.405 52.8128 158.324 53.0716 158.309C53.4131 158.303 53.7462 158.396 54.0126 158.571C54.2621 158.738 54.4726 158.941 54.6336 159.17C54.7418 159.34 54.7983 159.452 54.7701 159.467Z" fill="#263238"/>
<path d="M59.9973 158.251C60.0302 158.297 59.9079 158.413 59.7009 158.475C59.4939 158.537 59.3104 158.514 59.301 158.475C59.2916 158.436 59.4374 158.355 59.6162 158.301C59.795 158.247 59.9597 158.205 59.9973 158.251Z" fill="#263238"/>
<path d="M59.8841 157.931C59.8841 157.988 59.6959 158.035 59.4513 158.039C59.2066 158.043 59.0137 157.996 59.0184 157.942C59.0231 157.888 59.216 157.838 59.4513 157.834C59.6865 157.83 59.8747 157.876 59.8841 157.931Z" fill="#263238"/>
<path d="M77.6079 158.197V154.895L70.3952 154.853L70.334 159.796L70.781 159.823C72.7712 159.927 80.9108 160.132 82.2424 159.792C83.7291 159.414 77.6079 158.197 77.6079 158.197Z" fill="#355B5E"/>
<path d="M82.4118 159.491C82.4118 159.545 79.7159 159.591 76.3847 159.591C73.0536 159.591 70.3623 159.545 70.3623 159.491C70.3623 159.437 73.0583 159.39 76.3847 159.39C79.7112 159.39 82.4118 159.437 82.4118 159.491Z" fill="#263238"/>
<path d="M77.7349 158.873C77.6785 158.846 77.7349 158.672 77.8808 158.487C78.0266 158.301 78.2243 158.224 78.2713 158.263C78.3184 158.301 78.2195 158.448 78.0784 158.606C77.9372 158.765 77.7961 158.9 77.7349 158.873Z" fill="#263238"/>
<path d="M78.1961 159.089C78.1349 159.089 78.1632 158.873 78.309 158.668C78.4549 158.463 78.6384 158.34 78.6901 158.371C78.7419 158.402 78.6525 158.575 78.5208 158.757C78.389 158.938 78.262 159.108 78.1961 159.089Z" fill="#263238"/>
<path d="M72.531 159.467C72.5028 159.467 72.3993 159.398 72.2393 159.251C72.0498 159.063 71.8387 158.889 71.6089 158.734C71.3829 158.585 71.1136 158.488 70.8278 158.452C70.6114 158.429 70.4655 158.452 70.4514 158.429C70.4373 158.405 70.5738 158.324 70.8325 158.309C71.1741 158.303 71.5072 158.396 71.7735 158.571C72.0244 158.737 72.235 158.94 72.3946 159.17C72.5028 159.34 72.5593 159.452 72.531 159.467Z" fill="#263238"/>
<path d="M77.7588 158.251C77.7917 158.297 77.6694 158.413 77.4624 158.475C77.2553 158.537 77.0719 158.514 77.0624 158.475C77.053 158.436 77.1989 158.355 77.3777 158.301C77.5565 158.247 77.7211 158.205 77.7588 158.251Z" fill="#263238"/>
<path d="M77.655 157.931C77.655 157.988 77.4668 158.035 77.2222 158.039C76.9775 158.043 76.7893 157.996 76.794 157.942C76.7987 157.888 76.9869 157.838 77.2222 157.834C77.4574 157.83 77.655 157.876 77.655 157.931Z" fill="#263238"/>
<path d="M104.182 60.1399C103.994 59.9815 103.528 60.0588 103.528 60.0588C103.575 59.8364 103.575 59.6091 103.528 59.3868C103.443 59.1705 102.85 59.213 102.85 59.213C102.823 59.0309 102.823 58.8467 102.85 58.6646C102.855 58.6242 102.845 58.5836 102.82 58.5484C102.796 58.5131 102.759 58.4849 102.714 58.4676C102.434 58.3737 102.132 58.329 101.829 58.3363C101.467 58.1239 102.935 56.4362 103.481 55.8955C104.027 55.3548 103.928 54.9338 103.443 54.9338C103.109 54.9338 101.397 56.5559 100.87 57.1004C100.343 57.645 98.9453 59.1589 98.8982 57.9501C98.8512 56.7413 98.2583 55.8298 97.8867 55.6753C97.515 55.5209 97.1197 55.8839 97.3221 56.2199C97.4998 56.6016 97.6107 57.0021 97.6514 57.4094C97.7025 57.7338 97.685 58.0631 97.5996 58.3826C97.4437 58.9772 97.2313 59.5609 96.9645 60.1283H96.9268C96.9268 60.1283 86.6605 68.2115 85.9171 68.787C85.2537 69.3045 71.9103 68.1729 69.2332 67.9412C68.3234 67.8319 67.4048 67.7802 66.4854 67.7867C65.3233 67.8292 65.1163 67.9643 63.9588 67.9759C61.0358 68.0026 58.1196 68.213 55.2358 68.6054C53.9299 68.7877 52.7102 69.2608 51.7096 69.9732C50.709 70.6855 49.9659 71.6098 49.5615 72.6451C46.8655 79.5582 40.7584 95.9216 39.681 105.113C38.8668 106.325 38.1318 107.572 37.4791 108.848C36.7216 110.539 36.905 110.597 37.1591 110.636C37.8461 110.74 38.6271 107.705 38.9188 108.438C39.2105 109.172 37.4367 112.057 38.1566 112.142C39.0976 112.25 39.8457 109.053 39.9351 108.798C40.0245 108.543 40.4903 108.624 40.4056 108.863C40.2691 109.203 38.947 112.806 39.8692 112.922C40.3773 112.984 40.4338 112.223 40.4338 112.223C40.4338 112.223 41.3748 108.774 41.803 108.844C42.2311 108.913 41.7747 110.949 41.5583 111.628C41.3419 112.308 41.643 112.652 42.0853 112.486C42.3864 112.37 43.1063 110.304 43.3039 109.632C43.5015 108.96 43.9955 107.098 44.6589 108.176C45.3223 109.253 46.3292 109.879 46.7432 109.894C46.8365 109.886 46.9245 109.854 46.9957 109.804C47.067 109.754 47.1183 109.687 47.1431 109.613C47.1679 109.538 47.1651 109.46 47.1349 109.387C47.1047 109.314 47.0486 109.25 46.9738 109.203C46.6176 108.918 46.312 108.593 46.0657 108.238C45.8462 107.961 45.687 107.655 45.5952 107.334C45.4056 106.693 45.2953 106.039 45.2658 105.38L45.1906 104.994C46.2445 100.711 49.2792 88.1396 53.6596 80.1104L55.4569 83.146L56.2379 85.3937L51.4482 95.099L71.8774 94.8789L68.8285 85.2469L72.5314 75.2057C76.5353 75.279 86.8158 75.4026 88.5284 74.7654C90.6833 73.993 101.829 62.4378 101.829 62.4378C102.556 61.9744 103.252 61.4793 103.914 60.9547C103.914 60.9547 104.591 60.4874 104.182 60.1399Z" fill="#FFBE9D"/>
<path d="M50.5494 87.9271C51.1422 86.2664 54.1864 78.0557 54.1864 78.0557C54.1864 78.0557 55.6826 84.7486 55.2874 85.5558C54.9238 86.2468 54.4943 86.9131 54.0029 87.5486C50.5494 91.8625 51.0011 94.0214 51.0011 94.0214L71.8678 93.5C71.9148 91.1055 70.1881 85.5365 69.8305 84.6482C69.4729 83.7599 70.6633 80.8518 70.6633 80.8518C70.6633 80.8518 73.0158 78.886 72.9311 77.8742C72.8864 76.9653 72.7495 76.061 72.5218 75.1708L85.2253 75.557L84.8254 68.4894L66.5794 66.991C65.9442 68.4624 60.1994 67.7402 60.1994 67.7402C53.9982 67.9101 53.6124 68.8447 51.034 70.49C48.4557 72.1352 44.1882 86.2548 44.1882 86.2548L50.5494 87.9271Z" fill="#355B5E"/>
<path d="M62.8861 86.2549C62.5245 86.308 62.1562 86.3235 61.7899 86.3013C61.1076 86.3013 60.1713 86.2627 59.1409 86.1777C58.1105 86.0927 57.179 85.973 56.5155 85.8649C56.1497 85.8262 55.7911 85.751 55.4475 85.6409C55.8154 85.641 56.1824 85.6694 56.5438 85.7258C57.2119 85.7954 58.1388 85.8919 59.1645 85.9769C60.1902 86.0618 61.1217 86.1198 61.7946 86.1584C62.1613 86.1622 62.5268 86.1945 62.8861 86.2549Z" fill="#263238"/>
<path d="M64.3164 84.7988C63.9547 84.9443 63.5722 85.052 63.1778 85.1194C61.3007 85.5243 59.364 85.7127 57.4236 85.6794C57.0221 85.6901 56.6205 85.659 56.2285 85.5867C56.6248 85.5456 57.0243 85.5288 57.4236 85.5365C58.1623 85.5172 59.1786 85.4747 60.2983 85.3665C61.4181 85.2584 62.4156 85.1039 63.1213 84.9803C63.5133 84.8944 63.9129 84.8337 64.3164 84.7988Z" fill="#263238"/>
<path d="M71.3363 78.303C71.3268 78.5974 71.2779 78.8901 71.1905 79.1758C71.0681 79.7126 70.8799 80.4464 70.64 81.2497C70.4 82.053 70.1695 82.7945 69.9624 83.2966C69.8792 83.584 69.7561 83.8626 69.5955 84.1269C69.6217 83.8334 69.688 83.5432 69.7931 83.2618C69.9719 82.6594 70.1742 81.9642 70.4 81.2034C70.6259 80.4425 70.8423 79.7474 71.0211 79.1449C71.0848 78.8549 71.1906 78.5723 71.3363 78.303Z" fill="#263238"/>
<path d="M50.7707 86.9424C49.6822 86.8045 48.6079 86.5992 47.5571 86.3284C46.4834 86.1223 45.4297 85.8512 44.4048 85.5173C45.4927 85.6576 46.5668 85.8628 47.6183 86.1314C48.6923 86.3367 49.746 86.6078 50.7707 86.9424Z" fill="#263238"/>
<path d="M72.7479 75.0859C72.5704 75.111 72.389 75.111 72.2115 75.0859C71.7201 75.0445 71.2375 74.9497 70.7765 74.804C70.0068 74.5665 69.3061 74.1996 68.7195 73.7267C68.1328 73.2538 67.6732 72.6854 67.3701 72.058C67.035 71.3679 66.892 70.625 66.9513 69.8837C66.9723 69.2723 67.1951 68.6769 67.5959 68.1613C67.8778 67.8139 68.2989 67.5584 68.7863 67.439C68.9165 67.4096 69.0511 67.3953 69.1862 67.3966C69.2803 67.3966 69.3274 67.3966 69.3274 67.3966C69.3274 67.3966 69.1297 67.3966 68.8145 67.5008C68.3674 67.6364 67.9883 67.8906 67.7371 68.223C67.0972 69.0495 66.9184 70.5596 67.6006 71.9692C67.9181 72.6339 68.4152 73.2307 69.0545 73.7149C69.5782 74.111 70.1815 74.4298 70.8377 74.6572C71.4534 74.8569 72.094 75.0007 72.7479 75.0859Z" fill="#263238"/>
<path d="M83.7153 75.418C83.5976 74.2337 83.5599 73.045 83.6023 71.8572C83.5655 70.6705 83.6095 69.483 83.7341 68.3003C83.8519 69.4833 83.8896 70.6708 83.847 71.8572C83.8866 73.0452 83.8426 74.2342 83.7153 75.418Z" fill="#263238"/>
<path d="M66.4573 67.4235C66.5091 66.5622 66.6173 65.589 66.6173 65.589C66.6173 65.589 69.2144 65.3534 69.3697 63.1521C69.525 60.9507 69.3697 55.8721 69.3697 55.8721L64.6647 53.8948L59.4421 57.2663L60.2467 68.2731L65.0364 68.5242C65.4025 68.5325 65.7577 68.4213 66.0241 68.2149C66.2904 68.0086 66.4462 67.724 66.4573 67.4235Z" fill="#FFBE9D"/>
<path d="M66.9228 61.4106C66.9228 61.4106 66.9228 61.4531 66.8805 61.5033C66.8455 61.5397 66.8002 61.5686 66.7486 61.5874C66.6969 61.6063 66.6405 61.6145 66.5841 61.6114C66.2829 61.6114 65.9912 61.3256 65.8877 60.9935C65.8385 60.8325 65.8385 60.664 65.8877 60.503C65.8974 60.4327 65.9283 60.3656 65.9776 60.3076C66.0269 60.2496 66.093 60.2026 66.17 60.1709C66.2333 60.1494 66.3044 60.1494 66.3676 60.1709C66.4146 60.19 66.4526 60.2212 66.4759 60.2597C66.5088 60.3254 66.4759 60.3678 66.4759 60.364C66.4759 60.3601 66.4759 60.3254 66.4288 60.2867C66.4042 60.2591 66.368 60.2398 66.3272 60.2327C66.2864 60.2256 66.2438 60.2311 66.2077 60.2481C66.15 60.2768 66.102 60.3169 66.0683 60.3649C66.0345 60.4128 66.0161 60.467 66.0148 60.5223C65.9752 60.666 65.9752 60.8151 66.0148 60.9587C66.1089 61.26 66.3629 61.5033 66.5888 61.5264C66.633 61.5314 66.6779 61.5288 66.7208 61.5188C66.7637 61.5088 66.8036 61.4917 66.8381 61.4685C66.8946 61.4376 66.9134 61.4067 66.9228 61.4106Z" fill="#EB996E"/>
<path d="M70.9833 54.6827C70.621 53.6709 69.3083 53.1688 68.1132 52.8908C66.2924 52.4659 64.3257 52.2806 62.5472 52.8174C60.7687 53.3542 58.6326 54.2965 58.6326 55.907C57.5834 55.8375 56.9812 56.5906 56.5671 57.5252C56.3024 58.0946 56.1438 58.6935 56.0966 59.3017C55.9649 61.4104 55.245 64.3224 53.5794 65.8672C52.6384 66.7284 51.3352 67.3232 50.7988 68.3968C50.3283 69.3276 50.5729 70.4321 50.1354 71.3745C49.7449 72.2048 48.8838 72.7957 48.2534 73.5179C47.6111 74.3372 47.233 75.277 47.1549 76.2492C47.0767 77.2214 47.3009 78.1939 47.8064 79.0753C48.3156 79.9342 49.0324 80.699 49.9133 81.3232C50.7942 81.9473 51.8206 82.4177 52.9302 82.7057C55.1279 83.2545 57.4715 83.2733 59.6818 82.7597C61.3407 82.4341 62.8882 81.8043 64.2081 80.9175C65.5586 80.0123 66.4861 78.7515 66.8335 77.349C67.1675 75.7733 66.6311 74.1706 66.2312 72.6026C64.9797 67.6476 65.3373 67.3888 66.9181 62.7892C66.9558 62.708 66.9746 62.6231 67.0028 62.542C67.0311 62.4609 67.0452 62.4223 67.064 62.3605C67.1089 62.1786 67.1325 61.9937 67.1346 61.8082C66.9037 61.8787 66.653 61.8936 66.4122 61.8512C66.1713 61.8088 65.9502 61.7108 65.7748 61.5687C65.5991 61.4173 65.4765 61.2297 65.4202 61.0257C65.3638 60.8217 65.3758 60.609 65.4549 60.4101C65.5659 60.1927 65.7313 59.9968 65.9404 59.8351C66.1495 59.6734 66.3977 59.5496 66.6688 59.4717C67.191 59.294 67.7509 59.2013 68.2638 59.0044C69.3506 58.5795 70.1034 57.699 70.6163 56.776C71.0379 56.1362 71.168 55.3941 70.9833 54.6827Z" fill="#263238"/>
<path d="M67.1112 61.5146C67.2107 61.6352 67.2928 61.7648 67.3559 61.9009C67.4971 62.1442 67.6853 62.4879 67.8923 62.8857L67.9299 62.9591H67.8311L67.3606 62.9938C67.036 62.9938 66.7631 63.044 66.4431 63.0402C66.4153 63.035 66.3895 63.0242 66.3681 63.0086C66.3467 62.9931 66.3304 62.9734 66.3208 62.9513C66.3068 62.9162 66.3068 62.8783 66.3208 62.8432C66.3317 62.7911 66.3458 62.7396 66.3632 62.6887L66.4478 62.4145C66.4904 62.2316 66.5567 62.0529 66.6455 61.8815C66.6367 62.068 66.6036 62.2532 66.5466 62.4338L66.4808 62.708C66.4573 62.8007 66.4149 62.9436 66.4808 62.932C66.716 62.932 67.0501 62.8895 67.3606 62.8741L67.8311 62.8393L67.77 62.9243C67.5676 62.5381 67.3983 62.1751 67.2995 61.924C67.2128 61.7958 67.1494 61.6579 67.1112 61.5146Z" fill="#355B5E"/>
<path d="M51.001 94.0216L71.8677 93.5002L80.9484 122.597L79.2781 155.972H68.2449L69.5952 123.307L61.5261 103.051L62.7682 157.266L51.6174 157.401L50.4458 106.442C50.3941 105.025 49.8295 101.831 50.0412 100.425L51.001 94.0216Z" fill="#263238"/>
<path d="M64.3022 103.464C63.9607 103.482 63.6178 103.465 63.2812 103.414C62.6508 103.352 61.7897 103.244 60.844 103.09C59.8983 102.935 59.0514 102.758 58.4398 102.615C58.1128 102.556 57.7965 102.462 57.4988 102.337C57.4988 102.279 59.0326 102.58 60.9146 102.893C62.7966 103.206 64.3116 103.406 64.3022 103.464Z" fill="#455A64"/>
<path d="M79.1652 154.142C79.1652 154.196 76.6669 154.242 73.5851 154.242C70.5033 154.242 68.0002 154.196 68.0002 154.142C68.0002 154.088 70.4986 154.042 73.5851 154.042C76.6716 154.042 79.1652 154.084 79.1652 154.142Z" fill="#455A64"/>
<path d="M62.6696 155.857C62.6696 155.914 60.2418 155.957 57.2495 155.957C54.2571 155.957 51.834 155.914 51.834 155.857C51.834 155.799 54.2618 155.756 57.2495 155.756C60.2371 155.756 62.6696 155.802 62.6696 155.857Z" fill="#455A64"/>
<path d="M61.2298 155.717C61.1639 155.717 60.8722 143.873 60.5758 129.262C60.2794 114.652 60.1053 102.8 60.1665 102.8C60.2276 102.8 60.5288 114.641 60.8205 129.259C61.1122 143.876 61.3004 155.717 61.2298 155.717Z" fill="#455A64"/>
<path d="M77.6835 154.142C77.6783 154.089 77.6783 154.036 77.6835 153.983V153.52C77.6835 153.103 77.7211 152.504 77.7493 151.743C77.8152 150.199 77.9093 147.955 78.0269 145.205C78.281 139.675 78.6386 132.051 79.0291 123.636C79.0291 123.554 79.0291 123.477 79.0291 123.408V123.435C76.559 115.324 74.3241 107.963 72.7009 102.638L70.8189 96.3387C70.6024 95.6011 70.4378 95.0256 70.3201 94.624C70.2637 94.4347 70.226 94.288 70.1931 94.176C70.1748 94.1257 70.1637 94.0739 70.1602 94.0215C70.1846 94.0702 70.2035 94.1206 70.2166 94.1721C70.2543 94.2802 70.3013 94.427 70.3672 94.6124C70.4942 94.9986 70.6777 95.5856 70.913 96.3194C71.3835 97.8101 72.0469 99.9574 72.8749 102.603C74.5123 107.925 76.7707 115.267 79.2738 123.388V123.415C79.2738 123.485 79.2738 123.566 79.2738 123.643C78.855 132.059 78.4739 139.678 78.1963 145.209C78.0504 147.963 77.9281 150.191 77.8434 151.743C77.7964 152.516 77.7587 153.103 77.7352 153.52C77.7352 153.717 77.707 153.871 77.7023 153.983C77.703 154.037 77.6967 154.09 77.6835 154.142Z" fill="#455A64"/>
<path d="M74.0838 122.728C73.2913 122.942 72.4749 123.091 71.6466 123.172C70.6304 123.315 69.7646 123.415 69.3741 123.431V123.354C69.5012 123.385 69.567 123.404 69.567 123.419C69.567 123.435 69.487 123.419 69.3553 123.419H69.073L69.3553 123.35C69.7223 123.261 70.588 123.114 71.6043 122.964C72.4194 122.818 73.2499 122.74 74.0838 122.728Z" fill="#455A64"/>
<path d="M73.8909 123.836C73.157 123.864 72.4216 123.837 71.6937 123.755C70.9587 123.743 70.2266 123.677 69.5059 123.558C70.9763 123.46 72.4564 123.554 73.8909 123.836Z" fill="#455A64"/>
<path opacity="0.2" d="M50.9116 94.6357C51.1587 94.8962 51.47 95.1109 51.8251 95.266C52.1802 95.421 52.5711 95.5129 52.9724 95.5355C53.8128 95.6173 54.6629 95.6043 55.499 95.4969C60.8862 95.0064 66.5934 94.5546 71.8677 93.5002C65.0408 93.8131 57.828 93.7088 51.001 94.0216L50.9304 94.5005" fill="black"/>
<g opacity="0.2">
<path d="M57.9458 102.533L61.7945 114.792L61.5263 103.051L57.9458 102.533Z" fill="black"/>
</g>
</svg>
