<svg width="23" height="16" viewBox="0 0 23 16" fill="none" xmlns="http://www.w3.org/2000/svg">
<path d="M0.75 3.5H10.5L11.25 5H1.5L0.75 3.5ZM1.75 6.5H11.5L12.25 8H2.5L1.75 6.5ZM18 14.5C18.83 14.5 19.5 13.83 19.5 13C19.5 12.17 18.83 11.5 18 11.5C17.17 11.5 16.5 12.17 16.5 13C16.5 13.83 17.17 14.5 18 14.5ZM19.5 5.5H17V8H21.46L19.5 5.5ZM8 14.5C8.83 14.5 9.5 13.83 9.5 13C9.5 12.17 8.83 11.5 8 11.5C7.17 11.5 6.5 12.17 6.5 13C6.5 13.83 7.17 14.5 8 14.5ZM20 4L23 8V13H21C21 14.66 19.66 16 18 16C16.34 16 15 14.66 15 13H11C11 14.66 9.65 16 8 16C6.34 16 5 14.66 5 13H3V9.5H5V11H5.76C6.31 10.39 7.11 10 8 10C8.89 10 9.69 10.39 10.24 11H15V2H3C3 0.89 3.89 0 5 0H17V4H20Z" fill="#355B5E"/>
</svg>
