<svg width="17" height="17" viewBox="0 0 17 17" fill="none" xmlns="http://www.w3.org/2000/svg">
<path fill-rule="evenodd" clip-rule="evenodd" d="M8.47454 1.59375H8.52554C9.16588 1.59375 9.68225 1.59375 10.0995 1.63129C10.5287 1.67025 10.9041 1.75313 11.2448 1.95004C11.6487 2.18302 11.9841 2.51819 12.2174 2.92188C12.4143 3.26258 12.4965 3.638 12.5354 4.06725C12.573 4.48446 12.573 5.00083 12.573 5.64117V8.05446C12.9229 8.12813 13.2395 8.27333 13.4952 8.56446C13.8104 8.92571 13.9131 9.37621 13.9563 9.87204L13.9592 9.90533C13.984 10.1958 14.008 10.4699 13.9925 10.6994C13.9748 10.9622 13.9032 11.2306 13.69 11.463C13.4704 11.7038 13.1927 11.7923 12.9278 11.8306C12.8202 11.8462 12.7012 11.8547 12.5737 11.8589V14.875C12.5737 15.0159 12.5177 15.151 12.4181 15.2507C12.3184 15.3503 12.1833 15.4062 12.0424 15.4062C11.9015 15.4062 11.7664 15.3503 11.6668 15.2507C11.5671 15.151 11.5112 15.0159 11.5112 14.875V11.8646H5.49033V14.875C5.49033 15.0159 5.43436 15.151 5.33473 15.2507C5.23511 15.3503 5.09998 15.4062 4.95908 15.4062C4.81819 15.4062 4.68306 15.3503 4.58343 15.2507C4.4838 15.151 4.42783 15.0159 4.42783 14.875V11.8589C4.30889 11.8556 4.19021 11.8462 4.07225 11.8306C3.80733 11.7923 3.53038 11.7031 3.31008 11.463C3.09688 11.2306 3.02533 10.9622 3.00763 10.6994C2.99204 10.4699 3.01613 10.195 3.04092 9.90604L3.04375 9.87204C3.08625 9.37621 3.18967 8.92571 3.50488 8.56517C3.76058 8.27333 4.07721 8.12813 4.42713 8.05446V5.64117C4.42713 5.00083 4.42713 4.48446 4.46467 4.06725C4.50363 3.638 4.5865 3.26258 4.78342 2.92188C5.0164 2.51802 5.35157 2.18261 5.75525 1.94933C6.09596 1.75313 6.47138 1.67025 6.90063 1.63129C7.31783 1.59375 7.83421 1.59375 8.47454 1.59375ZM5.98121 7.96875H5.48963V5.66667C5.48963 4.99517 5.48963 4.52625 5.52292 4.16358C5.5555 3.80729 5.615 3.60542 5.70354 3.45312C5.84327 3.21078 6.04432 3.00948 6.2865 2.86946C6.43879 2.78163 6.64067 2.72212 6.99696 2.68954C7.35963 2.65696 7.82854 2.65625 8.50004 2.65625C9.17154 2.65625 9.64046 2.65625 10.0031 2.68954C10.3594 2.72212 10.5613 2.78163 10.7136 2.86946C10.9558 3.00971 11.157 3.21087 11.2973 3.45312C11.3851 3.60542 11.4446 3.80729 11.4772 4.16358C11.5098 4.52625 11.5105 4.99517 11.5105 5.66667V7.96875H5.98121ZM6.02088 9.03125C5.4195 9.03125 5.02921 9.03267 4.74163 9.07729C4.47671 9.11767 4.37542 9.18354 4.30458 9.265C4.21533 9.367 4.13883 9.537 4.10271 9.96271C4.07367 10.2985 4.05879 10.4904 4.06729 10.6285C4.0684 10.6631 4.07412 10.6974 4.08429 10.7305C4.08713 10.7376 4.08854 10.7397 4.09279 10.7447L4.0935 10.7454L4.09563 10.7468C4.13624 10.7632 4.1789 10.7739 4.22242 10.7787C4.37683 10.8007 4.59358 10.8021 4.95908 10.8021H12.0424C12.4065 10.8021 12.6233 10.8007 12.7777 10.7787C12.8212 10.7739 12.8638 10.7632 12.9045 10.7468L12.9066 10.7461L12.9073 10.7447C12.9112 10.7408 12.9142 10.7359 12.9158 10.7305C12.9257 10.6974 12.9312 10.6631 12.9321 10.6285C12.9413 10.4904 12.9264 10.2985 12.8974 9.96271C12.8613 9.53771 12.7848 9.367 12.6955 9.265C12.6247 9.18425 12.5234 9.11767 12.2585 9.07729C11.9709 9.03267 11.5806 9.03125 10.9792 9.03125H6.02088Z" fill="#355B5E"/>
</svg>
