<svg width="17" height="17" viewBox="0 0 17 17" fill="none" xmlns="http://www.w3.org/2000/svg">
<path fill-rule="evenodd" clip-rule="evenodd" d="M1.41675 4.25008C1.41675 4.06222 1.49138 3.88205 1.62421 3.74921C1.75705 3.61638 1.93722 3.54175 2.12508 3.54175H14.8751C15.0629 3.54175 15.2431 3.61638 15.3759 3.74921C15.5088 3.88205 15.5834 4.06222 15.5834 4.25008C15.5834 4.43794 15.5088 4.61811 15.3759 4.75095C15.2431 4.88379 15.0629 4.95841 14.8751 4.95841V13.4584C14.8751 13.6463 14.8005 13.8264 14.6676 13.9593C14.5348 14.0921 14.3546 14.1667 14.1667 14.1667C13.9789 14.1667 13.7987 14.0921 13.6659 13.9593C13.533 13.8264 13.4584 13.6463 13.4584 13.4584V12.0417H10.9792C10.6975 12.0417 10.4272 11.9298 10.2279 11.7305C10.0287 11.5313 9.91675 11.261 9.91675 10.9792V7.79175H3.54175V13.4584C3.54175 13.6463 3.46712 13.8264 3.33428 13.9593C3.20144 14.0921 3.02128 14.1667 2.83341 14.1667C2.64555 14.1667 2.46539 14.0921 2.33255 13.9593C2.19971 13.8264 2.12508 13.6463 2.12508 13.4584V4.95841C1.93722 4.95841 1.75705 4.88379 1.62421 4.75095C1.49138 4.61811 1.41675 4.43794 1.41675 4.25008ZM13.4584 10.6251V7.79175H11.3334V10.6251H13.4584ZM13.4584 6.37508V4.95841H11.3334V6.37508H13.4584ZM9.91675 6.37508H3.54175V4.95841H9.91675V6.37508Z" fill="#355B5E"/>
</svg>
