<svg width="24" height="24" viewBox="0 0 24 24" fill="none" xmlns="http://www.w3.org/2000/svg">
<g clip-path="url(#clip0_276_7439)">
<path d="M12.8567 15.4285L7.71387 16.3543L8.57101 11.1428L18.3939 1.35425C18.5532 1.19357 18.7428 1.06604 18.9517 0.979008C19.1606 0.891976 19.3847 0.847168 19.611 0.847168C19.8373 0.847168 20.0614 0.891976 20.2703 0.979008C20.4792 1.06604 20.6688 1.19357 20.8282 1.35425L22.6453 3.17139C22.806 3.33076 22.9335 3.52036 23.0205 3.72926C23.1076 3.93816 23.1524 4.16223 23.1524 4.38854C23.1524 4.61484 23.1076 4.83891 23.0205 5.04781C22.9335 5.25671 22.806 5.44631 22.6453 5.60568L12.8567 15.4285Z" stroke="#355B5E" stroke-width="2" stroke-linecap="round" stroke-linejoin="round"/>
<path d="M20.5712 16.2856V21.4285C20.5712 21.8831 20.3906 22.3192 20.0691 22.6406C19.7476 22.9621 19.3116 23.1428 18.8569 23.1428H2.57122C2.11656 23.1428 1.68053 22.9621 1.35904 22.6406C1.03755 22.3192 0.856934 21.8831 0.856934 21.4285V5.14275C0.856934 4.6881 1.03755 4.25206 1.35904 3.93057C1.68053 3.60908 2.11656 3.42847 2.57122 3.42847H7.71408" stroke="#355B5E" stroke-width="2" stroke-linecap="round" stroke-linejoin="round"/>
</g>
<defs>
<clipPath id="clip0_276_7439">
<rect width="24" height="24" fill="white"/>
</clipPath>
</defs>
</svg>
