<svg width="24" height="24" viewBox="0 0 24 24" fill="none" xmlns="http://www.w3.org/2000/svg">
<path fill-rule="evenodd" clip-rule="evenodd" d="M11.0083 3.89053C12.1136 2.84029 13.6127 2.25018 15.176 2.25H18.2075C18.4308 2.25 18.645 2.33429 18.8029 2.48431C18.9608 2.63434 19.0495 2.83783 19.0495 3.05V6.89C19.0495 7.10217 18.9608 7.30566 18.8029 7.45569C18.645 7.60571 18.4308 7.69 18.2075 7.69H15.176C15.1539 7.69 15.132 7.69414 15.1115 7.70218C15.0911 7.71022 15.0725 7.722 15.0569 7.73686C15.0413 7.75172 15.0289 7.76936 15.0204 7.78877C15.0119 7.80818 15.0076 7.82899 15.0076 7.85V9.93H18.2075C18.3355 9.92993 18.4618 9.95759 18.5769 10.0109C18.692 10.0642 18.7927 10.1417 18.8715 10.2375C18.9503 10.3334 19.0051 10.445 19.0317 10.564C19.0582 10.683 19.0559 10.8061 19.0248 10.9241L18.0143 14.7641C17.9688 14.9373 17.8635 15.091 17.7154 15.2007C17.5673 15.3105 17.3848 15.3701 17.197 15.37H15.0076V22.25C15.0076 22.4622 14.9189 22.6657 14.7609 22.8157C14.603 22.9657 14.3888 23.05 14.1655 23.05H10.1235C9.90021 23.05 9.68603 22.9657 9.52811 22.8157C9.37019 22.6657 9.28147 22.4622 9.28147 22.25V15.37H7.09207C6.86874 15.37 6.65456 15.2857 6.49664 15.1357C6.33872 14.9857 6.25 14.7822 6.25 14.57V10.73C6.25 10.6249 6.27178 10.5209 6.3141 10.4239C6.35642 10.3268 6.41844 10.2386 6.49664 10.1643C6.57483 10.09 6.66766 10.0311 6.76983 9.9909C6.87199 9.95069 6.98149 9.93 7.09207 9.93H9.28147V7.85C9.28165 6.36485 9.9028 4.9406 11.0083 3.89053ZM15.176 3.85C14.0593 3.85 12.9884 4.27143 12.1988 5.02157C11.4092 5.77172 10.9656 6.78913 10.9656 7.85V10.73C10.9656 10.9422 10.8769 11.1457 10.719 11.2957C10.5611 11.4457 10.3469 11.53 10.1235 11.53H7.93415V13.77H10.1235C10.3469 13.77 10.5611 13.8543 10.719 14.0043C10.8769 14.1543 10.9656 14.3578 10.9656 14.57V21.45H13.3234V14.57C13.3234 14.3578 13.4121 14.1543 13.5701 14.0043C13.728 13.8543 13.9422 13.77 14.1655 13.77H16.539L17.1285 11.53H14.1655C13.9422 11.53 13.728 11.4457 13.5701 11.2957C13.4121 11.1457 13.3234 10.9422 13.3234 10.73V7.85C13.3234 7.38322 13.5186 6.93556 13.866 6.60549C14.2135 6.27543 14.6847 6.09 15.176 6.09H17.3654V3.85H15.176Z" fill="#355B5E"/>
</svg>
