<svg width="24" height="24" viewBox="0 0 24 24" fill="none" xmlns="http://www.w3.org/2000/svg">
<path d="M21.805 9.51137C21.7649 9.2934 21.648 9.09619 21.4749 8.95417C21.3017 8.81216 21.0833 8.73436 20.8577 8.73435H11.7904C11.535 8.73435 11.2902 8.83394 11.1096 9.01122C10.9291 9.18849 10.8276 9.42893 10.8276 9.67964V13.336C10.8276 13.5867 10.9291 13.8271 11.1096 14.0044C11.2902 14.1817 11.535 14.2813 11.7904 14.2813H15.6049C15.3332 14.7315 14.9609 15.1152 14.516 15.4033C13.7022 15.9099 12.7537 16.1681 11.7904 16.1454C10.7916 16.1342 9.82185 15.8143 9.01886 15.231C8.21587 14.6478 7.62052 13.8309 7.31739 12.8964V12.8946C6.98018 11.9241 6.98018 10.8713 7.31739 9.90083V9.89894C7.62081 8.96475 8.21627 8.14815 9.01922 7.56511C9.82216 6.98206 10.7918 6.6622 11.7904 6.65094C12.3452 6.6384 12.8971 6.73357 13.4144 6.93099C13.9317 7.1284 14.4042 7.42419 14.8048 7.80135C14.9866 7.97239 15.2294 8.06669 15.4812 8.06404C15.733 8.06139 15.9737 7.962 16.1517 7.78717L18.9129 5.07609C19.0044 4.98635 19.0765 4.87943 19.125 4.76171C19.1735 4.644 19.1973 4.5179 19.1951 4.39094C19.1928 4.26399 19.1645 4.13878 19.1119 4.02278C19.0593 3.90679 18.9834 3.8024 18.8888 3.71583C16.9672 1.94679 14.4245 0.973958 11.7904 1.00002C9.82621 0.994276 7.89947 1.52747 6.22744 2.53946C4.55542 3.55146 3.20462 5.002 2.3274 6.72751L2.32643 6.7294C1.58276 8.17721 1.19686 9.77665 1.2 11.3982C1.2023 13.0194 1.5879 14.6179 2.32643 16.0679L2.3274 16.0688C3.20462 17.7943 4.55542 19.2449 6.22744 20.2569C7.89947 21.2689 9.82621 21.8021 11.7904 21.7963C14.3759 21.8607 16.8885 20.952 18.8137 19.2563L18.8147 19.2554C19.8582 18.2698 20.6803 17.0808 21.2281 15.7648C21.7759 14.4488 22.0374 13.0348 21.9957 11.6137C21.9961 10.9087 21.9323 10.2052 21.805 9.51137ZM11.7904 2.89059C13.5916 2.87351 15.3503 3.42821 16.8045 4.47206L15.4056 5.84556C14.3443 5.12446 13.0809 4.74523 11.7904 4.76037C10.6121 4.76608 9.45672 5.08001 8.44309 5.66984C7.42946 6.25966 6.59425 7.10407 6.02344 8.11613L4.99521 7.33344L4.43199 6.90428C5.20677 5.67345 6.29001 4.65821 7.57825 3.95553C8.86649 3.25285 10.3167 2.8862 11.7904 2.89059ZM3.58765 14.1423C2.97231 12.3628 2.97231 10.4336 3.58765 8.654L5.30329 9.96039C5.08392 10.9068 5.08392 11.8895 5.30329 12.8359L3.58765 14.1423ZM11.7904 19.9057C10.3165 19.9103 8.86613 19.5437 7.57771 18.841C6.28929 18.1383 5.20589 17.123 4.43103 15.8921L4.79592 15.6141L6.0244 14.6783C6.59481 15.6906 7.42974 16.5354 8.44322 17.1256C9.4567 17.7157 10.6121 18.03 11.7904 18.036C12.8934 18.049 13.984 17.806 14.9733 17.327L16.6013 18.5682C15.169 19.4742 13.4939 19.94 11.7904 19.9057ZM18.0734 17.2967L17.8972 17.1616L16.5715 16.1511C17.267 15.4134 17.7345 14.4967 17.9193 13.508C17.9451 13.3716 17.9399 13.2313 17.9041 13.097C17.8684 12.9627 17.803 12.8379 17.7126 12.7312C17.6222 12.6246 17.5089 12.5388 17.3809 12.4799C17.2529 12.4211 17.1133 12.3906 16.972 12.3907H12.7531V10.6249H20.021C20.0538 10.951 20.0701 11.2819 20.0701 11.6137C20.1263 13.6825 19.4169 15.7021 18.0734 17.2967Z" fill="#355B5E"/>
</svg>
