<svg width="24" height="24" viewBox="0 0 24 24" fill="none" xmlns="http://www.w3.org/2000/svg">
<path fill-rule="evenodd" clip-rule="evenodd" d="M12.0001 1.5C11.6022 1.5 11.2207 1.65804 10.9394 1.93934C10.6581 2.22064 10.5001 2.60218 10.5001 3V3.15C8.80628 3.49632 7.28406 4.41694 6.19079 5.7562C5.09752 7.09546 4.50028 8.77117 4.50007 10.5V16.5L2.69257 18.492C1.81807 19.4565 2.50207 21 3.80257 21H9.40207C9.66539 21.456 10.0441 21.8347 10.5001 22.098C10.9562 22.3613 11.4735 22.4999 12.0001 22.4999C12.5267 22.4999 13.044 22.3613 13.5 22.098C13.956 21.8347 14.3348 21.456 14.5981 21H20.1976C21.4981 21 22.1821 19.455 21.3076 18.492L19.5001 16.5V10.5C19.4999 8.77117 18.9026 7.09546 17.8094 5.7562C16.7161 4.41694 15.1939 3.49632 13.5001 3.15V3C13.5001 2.60218 13.342 2.22064 13.0607 1.93934C12.7794 1.65804 12.3979 1.5 12.0001 1.5ZM6.75007 17.37L6.16507 18.012L5.49607 18.75H18.5041L17.8336 18.012L17.2501 17.3685V10.5C17.2501 9.81056 17.1143 9.12787 16.8504 8.49091C16.5866 7.85395 16.1999 7.2752 15.7124 6.78769C15.2249 6.30018 14.6461 5.91347 14.0092 5.64963C13.3722 5.3858 12.6895 5.25 12.0001 5.25C11.3106 5.25 10.6279 5.3858 9.99098 5.64963C9.35402 5.91347 8.77527 6.30018 8.28776 6.78769C7.80025 7.2752 7.41354 7.85395 7.1497 8.49091C6.88587 9.12787 6.75007 9.81056 6.75007 10.5V17.37Z" fill="#355B5E"/>
</svg>
