<svg width="24" height="24" viewBox="0 0 24 24" fill="none" xmlns="http://www.w3.org/2000/svg">
<path fill-rule="evenodd" clip-rule="evenodd" d="M11.9998 1.5C11.602 1.5 11.2205 1.65804 10.9392 1.93934C10.6579 2.22064 10.4998 2.60218 10.4998 3V3.15C8.80604 3.49632 7.28381 4.41694 6.19054 5.7562C5.09727 7.09546 4.50004 8.77117 4.49983 10.5V16.5L2.69233 18.492C1.81783 19.4565 2.50183 21 3.80233 21H9.40183C9.66514 21.456 10.0439 21.8347 10.4999 22.098C10.9559 22.3613 11.4732 22.4999 11.9998 22.4999C12.5264 22.4999 13.0437 22.3613 13.4998 22.098C13.9558 21.8347 14.3345 21.456 14.5978 21H20.1973C21.4978 21 22.1818 19.455 21.3073 18.492L19.4998 16.5V10.5C19.4996 8.77117 18.9024 7.09546 17.8091 5.7562C16.7158 4.41694 15.1936 3.49632 13.4998 3.15V3C13.4998 2.60218 13.3418 2.22064 13.0605 1.93934C12.7792 1.65804 12.3977 1.5 11.9998 1.5ZM6.74983 17.37L6.16483 18.012L5.49583 18.75H18.5038L17.8333 18.012L17.2498 17.3685V10.5C17.2498 9.81056 17.114 9.12787 16.8502 8.49091C16.5864 7.85395 16.1996 7.2752 15.7121 6.78769C15.2246 6.30018 14.6459 5.91347 14.0089 5.64963C13.372 5.3858 12.6893 5.25 11.9998 5.25C11.3104 5.25 10.6277 5.3858 9.99074 5.64963C9.35378 5.91347 8.77502 6.30018 8.28752 6.78769C7.80001 7.2752 7.4133 7.85395 7.14946 8.49091C6.88562 9.12787 6.74983 9.81056 6.74983 10.5V17.37Z" fill="#355B5E"/>
</svg>
