<svg width="17" height="17" viewBox="0 0 17 17" fill="none" xmlns="http://www.w3.org/2000/svg">
<path d="M3.54159 14.875C3.34089 14.875 3.17254 14.807 3.03654 14.671C2.90054 14.535 2.83278 14.3669 2.83325 14.1667V13.4583C2.24297 13.4583 1.74124 13.2517 1.32804 12.8385C0.914849 12.4253 0.708252 11.9236 0.708252 11.3333V7.79167C0.708252 7.20139 0.914849 6.69965 1.32804 6.28646C1.74124 5.87326 2.24297 5.66667 2.83325 5.66667V4.25C2.83325 3.65972 3.03985 3.15799 3.45304 2.74479C3.86624 2.3316 4.36797 2.125 4.95825 2.125H12.0416C12.6319 2.125 13.1336 2.3316 13.5468 2.74479C13.96 3.15799 14.1666 3.65972 14.1666 4.25V5.66667C14.7569 5.66667 15.2586 5.87326 15.6718 6.28646C16.085 6.69965 16.2916 7.20139 16.2916 7.79167V11.3333C16.2916 11.9236 16.085 12.4253 15.6718 12.8385C15.2586 13.2517 14.7569 13.4583 14.1666 13.4583V14.1667C14.1666 14.3674 14.0986 14.5357 13.9626 14.6717C13.8266 14.8077 13.6585 14.8755 13.4583 14.875C13.2576 14.875 13.0892 14.807 12.9532 14.671C12.8172 14.535 12.7494 14.3669 12.7499 14.1667V13.4583H4.24992V14.1667C4.24992 14.3674 4.18192 14.5357 4.04592 14.6717C3.90992 14.8077 3.74181 14.8755 3.54159 14.875ZM2.83325 12.0417H14.1666C14.3673 12.0417 14.5356 11.9737 14.6716 11.8377C14.8076 11.7017 14.8754 11.5336 14.8749 11.3333V7.79167C14.8749 7.59097 14.8069 7.42262 14.6709 7.28662C14.5349 7.15062 14.3668 7.08286 14.1666 7.08333C13.9659 7.08333 13.7975 7.15133 13.6615 7.28733C13.5255 7.42333 13.4578 7.59144 13.4583 7.79167V10.625H3.54159V7.79167C3.54159 7.59097 3.47359 7.42262 3.33759 7.28662C3.20159 7.15062 3.03347 7.08286 2.83325 7.08333C2.63256 7.08333 2.46421 7.15133 2.32821 7.28733C2.19221 7.42333 2.12445 7.59144 2.12492 7.79167V11.3333C2.12492 11.534 2.19292 11.7024 2.32892 11.8384C2.46492 11.9744 2.63303 12.0421 2.83325 12.0417ZM4.95825 9.20833H12.0416V7.79167C12.0416 7.47292 12.1065 7.18368 12.2364 6.92396C12.3662 6.66424 12.5374 6.43403 12.7499 6.23333V4.25C12.7499 4.04931 12.6819 3.88096 12.5459 3.74496C12.4099 3.60896 12.2418 3.54119 12.0416 3.54167H4.95825C4.75756 3.54167 4.58921 3.60967 4.45321 3.74567C4.31721 3.88167 4.24945 4.04978 4.24992 4.25V6.23333C4.46242 6.43403 4.6336 6.66424 4.76346 6.92396C4.89332 7.18368 4.95825 7.47292 4.95825 7.79167V9.20833Z" fill="#355B5E"/>
</svg>
