<svg width="24" height="24" viewBox="0 0 24 24" fill="none" xmlns="http://www.w3.org/2000/svg">
<g clip-path="url(#clip0_276_7410)">
<path d="M11.7773 16.2857C16.0378 16.2857 19.4916 12.8319 19.4916 8.57146C19.4916 4.31098 16.0378 0.857178 11.7773 0.857178C7.51679 0.857178 4.06299 4.31098 4.06299 8.57146C4.06299 12.8319 7.51679 16.2857 11.7773 16.2857Z" stroke="#355B5E" stroke-width="2" stroke-linecap="round" stroke-linejoin="round"/>
<path d="M11.7772 12C13.6708 12 15.2058 10.4649 15.2058 8.57139C15.2058 6.67785 13.6708 5.14282 11.7772 5.14282C9.88366 5.14282 8.34863 6.67785 8.34863 8.57139C8.34863 10.4649 9.88366 12 11.7772 12Z" stroke="#355B5E" stroke-width="2" stroke-linecap="round" stroke-linejoin="round"/>
<path d="M10.2858 16.1487L8.77724 22.4915C8.74739 22.6121 8.6922 22.7249 8.61534 22.8224C8.53849 22.92 8.44174 23 8.33153 23.0572C8.21521 23.1077 8.08976 23.1338 7.96296 23.1338C7.83615 23.1338 7.7107 23.1077 7.59439 23.0572L1.90296 20.5715C1.78358 20.5151 1.67853 20.4323 1.5957 20.3295C1.51288 20.2267 1.45443 20.1064 1.42473 19.9777C1.39504 19.849 1.39488 19.7153 1.42426 19.5866C1.45365 19.4578 1.51181 19.3374 1.59439 19.2344L6.0001 13.7144M13.7144 16.063L15.2572 22.4915C15.2879 22.6141 15.3453 22.7284 15.4253 22.8262C15.5054 22.924 15.606 23.0029 15.7201 23.0572C15.8332 23.1084 15.956 23.1348 16.0801 23.1348C16.2042 23.1348 16.327 23.1084 16.4401 23.0572L22.0972 20.5715C22.2184 20.5158 22.3249 20.4325 22.4082 20.3283C22.4916 20.2242 22.5494 20.102 22.5772 19.9715C22.6097 19.8439 22.6111 19.7104 22.5813 19.5821C22.5515 19.4538 22.4913 19.3346 22.4058 19.2344L17.8115 13.3887" stroke="#355B5E" stroke-width="2" stroke-linecap="round" stroke-linejoin="round"/>
</g>
<defs>
<clipPath id="clip0_276_7410">
<rect width="24" height="24" fill="white"/>
</clipPath>
</defs>
</svg>
